<?xml version="1.0" encoding="UTF-8"?><svg id="a" xmlns="http://www.w3.org/2000/svg" viewBox="0 0 512 512"><g id="b"><path id="c" d="M410.64,205.27c6.32-37.39,18.46-73.55,35.98-107.17,2.59-4.76,.84-10.72-3.92-13.31-2.95-1.61-6.51-1.6-9.45,.03-99.95,58.29-143.78,143.29-149.26,211.44-4.73,58.78,35.36,119.29,96.22,130.34,60.76,11.03,118.95-29.29,129.97-90.04,11.03-60.76-29.29-118.95-90.04-129.97-3.13-.57-6.29-1-9.46-1.3"/><path id="d" d="M127.06,205.27c6.31-37.38,18.44-73.55,35.95-107.17,2.59-4.76,.84-10.72-3.92-13.31-2.95-1.61-6.51-1.6-9.45,.03C49.69,143.1,5.86,228.1,.38,296.26c-4.73,58.78,35.36,119.29,96.22,130.34,60.76,11.03,118.95-29.29,129.97-90.04,11.03-60.76-29.29-118.95-90.04-129.97-3.13-.57-6.29-1-9.46-1.3"/></g></svg>