<?xml version="1.0" standalone="no"?>
<!DOCTYPE svg PUBLIC "-//W3C//DTD SVG 1.1//EN" "http://www.w3.org/Graphics/SVG/1.1/DTD/svg11.dtd">
<svg xmlns="http://www.w3.org/2000/svg"><metadata>This SVG WebFont was generated by YouWorkForThem.
Copyright (c) 2016 by Fanny Coulez and Julien Saurin. All rights reserved.</metadata><defs><font horiz-adv-x="1394" id="ywftsvg"><font-face ascent="1540" bbox="-64.5414 -662.013 2120.51 2009" cap-height="1536" descent="-508" font-family="" font-stretch="normal" font-weight="900" panose-1="2 1 5 3 1 1 1 2 1 4" underline-position="0" underline-thickness="0" unicode-range="U+000D-F6C3" units-per-em="2048" x-height="1534"/><missing-glyph d="M678 1518l24 -2q88 -53 66 -117q2 -27 2 -74q0 -373 -4 -446v-123v-2l-2 -4v-134q0 -51 6 -106q2 -27 8 -119v-41v-2l-2 -4v-61q0 -51 2 -72q4 -100 -13 -136t-97 -36q-29 0 -70 6q-18 4 -86 -4q-49 -4 -205 -4l-184 10q-39 4 -82 47q-16 25 -16 64t8 92q0 29 4 41 q8 35 4 41q0 78 -14 174l-4 39q-6 41 -7 96q-4 35 4 104v132q0 4 3 10q6 84 6 397q0 33 -2 53q-4 86 0 119q39 57 106 57q29 0 115 -4h10l4 -2h6h23q131 -12 258 -6q18 0 49 6l27 2l8 4q20 5 45 5zM184 475q4 -20 9 -74q14 49 40.5 123t46 126t23.5 59l27 77l-51 160 q-16 47 -27 88q-2 4 -5 17.5t-6 24.5t-5 16l-29 79q-4 -291 -6 -301q-8 -70 -8 -170q0 -16 -4.5 -70.5t-5.5 -84t1 -70.5zM369 221h149q0 2 -6 16.5t-8 24.5l-12 31q-4 10 -30 87t-28 83q-2 4 -8 22.5t-12 38t-13 37.5l-30 -98q-2 -6 -28 -83t-30 -87l-12 -31l-14 -39 q31 -2 82 -2zM586 614q0 219 2 271l2 39v101v118l-17 -51l-16 -58q-10 -41 -27 -88l-57 -160l29 -77q10 -25 90 -291l-2 28l-2 86q-2 4 -2 17v65zM498 1339q-147 0 -203 2l14 -41q31 -86 51 -167q4 -16 21 -66l12 -47l8 -31l11 31l12 47q16 49 20 66q20 82 52 167l12 39h-10 z" horiz-adv-x="798"/><glyph d="M678 1518l24 -2q88 -53 66 -117q2 -27 2 -74q0 -373 -4 -446v-123v-2l-2 -4v-134q0 -51 6 -106q2 -27 8 -119v-41v-2l-2 -4v-61q0 -51 2 -72q4 -100 -13 -136t-97 -36q-29 0 -70 6q-18 4 -86 -4q-49 -4 -205 -4l-184 10q-39 4 -82 47q-16 25 -16 64t8 92q0 29 4 41 q8 35 4 41q0 78 -14 174l-4 39q-6 41 -7 96q-4 35 4 104v132q0 4 3 10q6 84 6 397q0 33 -2 53q-4 86 0 119q39 57 106 57q29 0 115 -4h10l4 -2h6h23q131 -12 258 -6q18 0 49 6l27 2l8 4q20 5 45 5zM184 475q4 -20 9 -74q14 49 40.5 123t46 126t23.5 59l27 77l-51 160 q-16 47 -27 88q-2 4 -5 17.5t-6 24.5t-5 16l-29 79q-4 -291 -6 -301q-8 -70 -8 -170q0 -16 -4.5 -70.5t-5.5 -84t1 -70.5zM369 221h149q0 2 -6 16.5t-8 24.5l-12 31q-4 10 -30 87t-28 83q-2 4 -8 22.5t-12 38t-13 37.5l-30 -98q-2 -6 -28 -83t-30 -87l-12 -31l-14 -39 q31 -2 82 -2zM586 614q0 219 2 271l2 39v101v118l-17 -51l-16 -58q-10 -41 -27 -88l-57 -160l29 -77q10 -25 90 -291l-2 28l-2 86q-2 4 -2 17v65zM498 1339q-147 0 -203 2l14 -41q31 -86 51 -167q4 -16 21 -66l12 -47l8 -31l11 31l12 47q16 49 20 66q20 82 52 167l12 39h-10 z" glyph-name=".notdef" horiz-adv-x="798"/><glyph glyph-name="glyph1" horiz-adv-x="0"/><glyph glyph-name="glyph1" horiz-adv-x="0"/><glyph glyph-name="glyph2" horiz-adv-x="681"/><glyph glyph-name="space" horiz-adv-x="901" unicode=" "/><glyph d="M283 233q39 0 70.5 -29.5t37.5 -66.5q6 -39 -25.5 -81t-62.5 -58q-88 -35 -125 39l2 -2q-23 33 -22 74q0 39 24.5 72.5t61.5 45.5q25 6 39 6zM299 1534q31 2 47 -19.5t19 -54.5q6 -121 2 -145q-2 -10 -2 -45v-135l2 -37q6 -41 0 -99q-4 -39 0 -127l6 -137q0 -41 -2 -57 q0 -39 -2 -45q0 -10 1 -32.5t1 -31.5v-88q0 -29 -2 -41t-11.5 -26.5t-28 -19.5t-53.5 -5q-41 0 -57 2t-31.5 18.5t-15.5 51.5q0 106 2 153q4 131 4 203q0 47 -4 105v16q2 37 0 68v2q0 2 -1 6t-1 8v12v17v77q-4 86 -4 183v147q-6 74 63 76q33 4 68 0z" glyph-name="exclam" horiz-adv-x="368" unicode="!"/><glyph d="M465 1516l70 -132q12 -37 32 -73q4 -12 51 -113q14 -29 19 -39q18 -25 20 -49q10 -55 -57.5 -96t-101.5 -2q-18 25 -21 26q-4 6 -20 37l-8 17l-62 133q-18 63 -41 86q-2 6 -8 18t-8 19l-19 36q0 6 -16 37l-8 19q-8 23 11 48t48 40q99 41 119 -12zM174 1516l70 -132 q12 -37 32 -73q4 -12 52 -113q14 -29 18 -39q18 -25 21 -49q10 -55 -57.5 -96t-102.5 -2q-18 25 -21 26q-6 6 -20 37l-8 17l-62 133q-18 63 -41 86q-2 6 -8 18t-8 19l-19 36q0 6 -16 37l-8 19q-8 23 11.5 48t47.5 40q99 41 119 -12z" glyph-name="quotedbl" horiz-adv-x="659" unicode="&quot;"/><glyph d="M1014 1169q-27 -86 -37 -108q16 0 48 -1t48 -1q39 -2 51.5 -16.5t14.5 -65.5q2 -68 -13.5 -90.5t-66.5 -26.5l-148 -4l-6 -16l-26 -86l-5 -25q-4 -16 -4 -29l-14 -45q2 0 6 -1t6 -1h23l76 -2q25 0 33 -1t19 -8t14 -23.5t7 -47.5q0 -68 -17 -92t-60 -22q-78 0 -172 -6 q-33 -111 -64 -189q-6 -23 -8 -29q-4 -8 -4 -12q0 -10 -8 -24v2l-39 -138q-16 -57 -84 -57l-78 4q-35 4 -40 29.5t7 68.5l64 189q2 14 8 39.5t8 38.5l14 57l8 27h-36q-6 0 -22.5 1t-27.5 1l-118 -6v-7l-4 -20q-4 -12 -5 -14q-4 -20 -20 -54l-45 -143l-14 -39l-7 -20 q-4 -16 -4 -25l-26 -70q-12 -27 -27.5 -39t-30 -12h-30.5h-21q-12 0 -22 6l2 -2q-12 4 -15 4q-23 2 -34 7.5t-23 23t0 49.5l16 49q2 18 15 50l10 28l20 68l46 129q0 4 3 13t5 16h-99q-51 0 -70.5 18t-19.5 88q0 68 17.5 81t72.5 11h11l57 6h2l4 -2h37l41 2v2q4 10 8 23l8 22 l33 93l12 43l7 20h-29l-8 2q-102 2 -123 26.5t-12 104.5q10 47 23 58.5t63 11.5h43q37 2 106 2q2 6 8 17.5t8 19.5l11 39q29 80 47 155l18 62l45 108q20 66 99 66q51 0 80.5 -16.5t23.5 -45.5l-63 -225l-21 -57q-4 -4 -4 -12l-12 -39l-9 -29l-8 -27l-2 -4v-6l-2 -6h31l4 2h6 h74q2 0 7 1t9 1q49 0 70 4q4 14 14 45t15 47q31 78 32 84q0 16 9 33l-3 -2l7 22l24 66l35 104q14 37 36.5 49.5t67.5 10.5q29 -2 46.5 -5t35 -17.5t11.5 -41.5q0 -2 -10.5 -38.5t-30 -109.5t-39.5 -149zM494 858l-7 -22l-41 -142l-8 -26l-4 -9h4l6 3h191l6 36q2 2 5 12.5 t7 21.5t9 20q2 6 8 25.5t10 27.5q0 2 4 21.5t8 29.5h-149h-6l-2 2h-41z" glyph-name="numbersign" horiz-adv-x="1259" unicode="#"/><glyph d="M535 1673l12 -2q45 0 62.5 -15.5t19.5 -49.5l2 -68q63 -10 141 -59l19 -13q88 -90 112 -127q37 -51 37 -77q0 -16 -20 -58l-15 -16q-51 -66 -102 -23l-17 15l-20 26l-29 33q-23 20 -47 47q-33 25 -51 31l-10 2v-80q4 -33 4 -78q2 -41 2 -117v-170q23 -14 75 -43.5 t76 -44.5l37 -28q92 -78 129 -201q18 -72 21 -133q10 -178 -86 -281q-41 -41 -68.5 -64.5t-78 -49t-107.5 -35.5q0 -6 1 -23.5t1 -29.5q-2 -57 -16.5 -70.5t-79.5 -13.5q-57 0 -73.5 19.5t-16.5 90.5v35q-76 18 -103 39q-14 4 -92 55q-4 0 -10 6l-82 72l-43 49 q-45 57 12 121q63 72 115 29l45 -33l28 -27l33 -26q6 -4 20.5 -15.5t20.5 -17.5l29 -16l14 -5l10 -6q-6 420 -4 439v67l-26 17q-47 18 -62 30q-156 84 -211 203q-25 49 -32 107q-8 141 41 217q25 45 89 103t130 97q47 18 71 25v14l4 31q0 35 4.5 52.5t24 30.5t60.5 13z M637 229l20 4q43 23 56 35q47 41 53 92v74q-6 57 -53 123q-12 18 -49 39l-29 18q4 -70 4 -223q0 -2 -1 -63.5t-1 -98.5zM444 1303l-16 -9q-35 -23 -67.5 -62.5t-41.5 -72.5q-8 -16 4.5 -52t28.5 -60q31 -27 97 -72l2 61v54l-2 59q0 57 -3 88q-2 11 -2 66z" glyph-name="dollar" horiz-adv-x="1171" unicode="$"/><glyph d="M434 1348q0 23 -41 53h-4q-6 2 -10 2q-23 0 -31 -4q-45 -14 -45 -56v-6q0 -20 6 -32q23 -39 68 -27l24 6q33 29 33 64zM156 1327q0 125 86 184q51 31 145 31q131 0 180 -112q14 -35 15 -89q0 -41 -9 -57q-35 -74 -68.5 -110.5t-88.5 -49.5q-92 -4 -175 52.5t-85 150.5z M989 1255l-6 -12l-8 -12l-29 -53l-43 -70l-37 -74l-12 -33l-8 -16l-49 -94l-54 -88q-35 -61 -41 -72l-81 -139l-80 -160l-35 -57l-23 -33l-86 -145l-20 -37q0 -4 -4 -10.5t-6 -8.5l-7 -8q-2 -4 -14 -23.5t-16 -29.5l-31 -53q-8 -20 -32.5 -22.5t-45.5 11.5l-12 7l-53 36 q-55 31 -9 103l74 125l146 250q2 2 8 12t8 16q10 20 27 45l24 43q20 31 21 33l18 39l14 25l43 88l119 206l23 31l20 45q10 16 19.5 31.5t16.5 30t9 18.5l62 111l26 47l21 41l10 22l49 76q27 49 76 23q18 -8 39 -25l16 -8q45 -37 25 -90q-8 -25 -26.5 -61t-30.5 -58zM922 217 q0 35 -41 53h-4q-6 2 -11 2q-23 0 -30 -4q-45 -14 -45 -55v-8q0 -20 6 -33q31 -27 53 -27l39 7q33 28 33 65zM643 195q0 125 86 184q51 31 145 31q131 0 181 -111q14 -35 14 -88q0 -43 -8 -59q-37 -74 -71 -110t-87 -48q-92 -4 -175 52.5t-85 148.5z" glyph-name="percent" horiz-adv-x="1228" unicode="%"/><glyph d="M373 1470q12 10 26.5 20.5t22.5 14.5l10 4q59 35 141 35q96 -2 146 -47q76 -59 110 -170q6 -12 10.5 -35.5t6.5 -42.5l2 -16q2 -96 -29 -156.5t-102 -138.5l-47 -49q20 -27 37 -45l22 -33l76 -96l96 -119l27 -33q31 -47 43 -61q14 29 14 30v3q-2 0 4 10q6 18 12 24 q10 25 29 105q0 2 2 10t2 10q0 6 4 27v-2q4 29 4 35q8 37 11 43q2 43 22.5 58t69.5 11q66 -6 81 -22.5t13 -67.5q0 -31 -11 -110.5t-20 -112.5q0 -4 -4 -14.5t-6 -16.5l-6 -20q-20 -74 -37 -111l-18 -22q-6 -6 -17 -25l29 -39l4 -6v2q8 -16 14 -20l52 -68l34 -47 q45 -55 72 -98q23 -31 12.5 -47.5t-30 -20.5t-56.5 -4l-53 2q-45 0 -76 29l-8 6q-63 57 -74 80l2 -2l-18 20l-49 53q-63 -63 -86 -71h2l-33 -21l-12 -6h2l-66 -37l-28 -12q-31 -16 -79 -28.5t-81 -16.5l-35 -4q-113 0 -170 22q-102 37 -168 101q-74 66 -115 163 q-27 68 -26 166q0 47 4 58q35 176 166 309l94 80l18 10l-2 -2l23 18l-14 15q-57 72 -68 90h2q-2 2 -18 26q-12 14 -15 25q-29 45 -28 145q0 137 131 256zM842 338l-115 141l-14 25h2l-23 28l-30 37q-6 10 -55.5 67.5t-57.5 65.5l-10 17l-4 2q-4 2 -5 4l-34 39l-15 -14 l-24 -19l-21 -16l-76 -80l-4 -6q-4 -6 -8 -15l-4 -6l-14 -20q0 -2 -2 -6l-2 -4q-33 -70 -33 -113q0 -76 18 -109v-4q-2 0 10.5 -17.5t18.5 -25.5q55 -68 184 -108q18 -6 31 -6q57 0 138 43t149 100zM512 1331q-23 -10 -41 -38.5t-20 -61.5q-8 -59 24 -98l10 -19h-2l19 -22 l28 -35l9 -8q119 86 106 178q-2 47 -20.5 81.5t-49.5 34.5q-38 0 -63 -12z" glyph-name="ampersand" horiz-adv-x="1435" unicode="&amp;"/><glyph d="M180 1384l70 132q20 53 119 12q29 -14 48 -40t11 -48l-8 -19q-16 -31 -17 -37l-18 -36q-2 -6 -8 -18.5t-8 -18.5q-23 -23 -41 -86l-62 -133l-8 -17q-16 -31 -20 -37q-2 -2 -21 -26q-35 -39 -102.5 2t-57.5 96q2 25 21 49q4 10 18 39q47 100 51 113z" glyph-name="quotesingle" horiz-adv-x="432" unicode="'"/><glyph d="M242 477l6 -28l10 -46l10 -47l11 -51l38 -98q33 -92 181 -307q25 -35 21.5 -57.5t-34.5 -63.5q-18 -23 -51 -34t-55 7l-31 37q-84 78 -151 209l-56 119l-32 63l-21 64q-6 12 -6 20l-21 72l-28 108l-17 111v55v35v148q0 100 21 202l6 25l18 51l7 12l14 47l45 117l102 201 l25 47l25 45q18 35 55 78l28 31q39 39 117 -15q59 -43 35 -94q-18 -37 -39 -86l-29 -45q-8 -16 -49 -88q-43 -66 -45 -72l-12 -26q-4 -18 -14 -33l-64 -166q-45 -158 -45 -268q0 -123 12 -197z" glyph-name="parenleft" horiz-adv-x="561" unicode="("/><glyph d="M283 449l6 28l12 82q12 74 12 197q0 119 -47 268l-61 166l-15 33q-2 2 -6 12t-6 14q-4 6 -45 72q-41 72 -49 88l-29 45l-41 86q-23 53 37 94q78 53 117 15l31 -33q31 -35 51 -76l24 -45l27 -47l102 -201l46 -117l14 -47l6 -12l18 -51l5 -25q20 -102 20 -202l2 -148v-35 l-2 -55l-16 -111l-27 -108l-20 -72q0 -4 -7 -22l-20 -62l-33 -63l-55 -119q-68 -131 -152 -209l-30 -37q-23 -18 -56 -7t-51 34q-31 41 -34 63.5t20 57.5q147 207 182 307q29 55 37 98q0 8 4 25.5t6 25.5l10 47z" glyph-name="parenright" horiz-adv-x="573" unicode=")"/><glyph d="M729 1415q53 0 88 -72q12 -47 8 -60t-24 -32l-8 -8q-14 -4 -41 -31l-52 -36l-57 -25l64 -29q27 -12 55 -35q47 -33 53 -34q55 -41 25 -105q-39 -84 -99 -59q-23 10 -30 16l-35 19l-35 20l-78 72q6 -25 6 -41q0 -2 1 -9.5t1 -11.5l2 -63l2 -55q0 -39 -11 -58.5 t-23.5 -22.5t-46.5 -7q-2 0 -5.5 -1.5t-5.5 -1.5q-92 -6 -98 80q-2 18 4 93t6 88l-65 -52l-58 -41l-65 -34q-57 -25 -92 57q-23 53 -9 80q12 20 31 31l21 12l22 14l64 43l71 23q-4 4 -29.5 10t-29.5 8l-49 25l-8 2q-8 4 -11 6l-49 29q-68 55 -28 124q35 72 94 52l53 -27 l35 -18l10 -9l12 -6q12 -6 15 -6l22 -14l41 -35q-2 31 -6 72t-6 69l-4 27q0 57 21.5 77.5t80.5 18.5q41 2 60.5 -15.5t19.5 -64.5v-39l2 -20v-6q2 -6 0 -25l-4 -18l-2 -68l74 70q67 43 100 57z" glyph-name="asterisk" horiz-adv-x="1011" unicode="*"/><glyph d="M360 958q2 68 21.5 89.5t75.5 17.5q61 -2 79.5 -20.5t18.5 -55.5v-8l2 -121q0 -6 4 -55v-33q2 -10 2 -41h53q4 0 14.5 -1t16.5 -1h68q51 0 65.5 -1t37 -8t28.5 -24.5t10 -50.5q0 -72 -18.5 -87t-94.5 -15h-14q-16 -2 -106 -2q-45 0 -64 2q0 -100 -2 -123q0 -2 1 -7t1 -7 l2 -23v-39q0 -53 -20.5 -78.5t-83.5 -25.5q-41 0 -62.5 13t-27 30.5t-5.5 52.5l-4 205h-88l-151 6q-47 4 -47 76v8q0 59 18.5 77.5t52.5 20.5q61 4 207 4l12 -2v19z" glyph-name="plus" horiz-adv-x="993" unicode="+"/><glyph d="M119 205l69 131q20 53 119 12q29 -14 48.5 -39.5t11.5 -48.5l-9 -18q-16 -31 -16 -37l-18 -37q-2 -6 -8.5 -18.5t-8.5 -18.5q-23 -23 -41 -86q-20 -55 -71 -160l-9 -18l-12 -27q-14 -20 -29 -55l-6 -16q-12 -25 -22 -37q-2 -2 -21 -27q-35 -39 -102.5 2t-56.5 96 q2 25 20 50l6 18l8 12t4 8l9 17l16 39l6 10l14 27q2 6 8.5 18t8.5 18q47 104 49 111z" glyph-name="comma" horiz-adv-x="425" unicode=","/><glyph d="M205 539q-106 -2 -132 20.5t-20 95.5q6 37 29.5 55.5t44 21.5t53.5 3h23q25 -2 114 2q25 2 82 2l62 -2l303 -6q35 0 57.5 -5t41 -27.5t18.5 -63.5q-4 -68 -28 -83t-101 -15q-106 4 -207 4q-117 0 -168 -4q-20 -2 -72 -2z" glyph-name="hyphen" horiz-adv-x="1038" unicode="-"/><glyph d="M203 242q37 0 67.5 -34t34.5 -71q6 -41 -29.5 -86t-66.5 -59q-86 -20 -125 51q-25 43 6 107.5t82 85.5q10 2 14 4q9 2 17 2z" glyph-name="period" horiz-adv-x="382" unicode="."/><glyph d="M612 1341l-8 -22q0 -8 -2 -10q-4 -8 -4 -13l-20 -57l-29 -80l-21 -82l-6 -33q0 -4 -1 -10t-1 -8l-28 -102l-33 -95q-10 -27 -27 -79l-53 -154l-6 -27l-39 -147l-23 -62l-14 -34l-53 -164l-13 -39l-6 -19q-4 -4 -4 -8t-4 -12q-6 -12 -12 -41l-25 -68q-31 -45 -71 -26 l-17 6q-14 0 -22 6q-29 10 -53.5 45t-12.5 66l47 145l92 272l11 33l14 49q2 6 7 21.5t9 25.5l2 5q2 4 2 6q0 12 11 28l12 41l8 27l25 96l71 226q4 12 15 34l12 52q20 51 29 86l37 118l16 54l12 43q0 4 2 11t2 11l25 68q6 12 6 16q4 16 27.5 29.5t44.5 7.5l45 -14l8 -4 q2 -2 8 -3q31 -14 38 -30.5t3 -48.5q-2 -27 -10 -61t-17 -54z" glyph-name="slash" horiz-adv-x="798" unicode="/"/><glyph d="M938 975l2 -25q10 -68 10 -125v-61q0 -55 -4 -88q-2 -127 -8 -189q0 -23 -2 -26q-6 -49 -18 -86l-7 -17l-22 -63q-4 -27 -33 -86l-41 -66q-29 -29 -51 -55q-27 -27 -88 -57q-94 -43 -170 -43q-68 0 -105 12q-25 6 -28 12l-41 25q-57 27 -94 69l-41 58l-17 35l-18 32 l-8 23l-11 31l-22 86q-4 6 -4 12l-17 66q0 2 -1 7t-1 9v4q-2 4 -2 6l-4 19l-6 43l-2 57q-12 70 -12 143v68q0 45 4 78l4 20l2 21q6 100 16 147q4 14 19.5 69.5t19.5 69.5q0 2 1 7.5t1 7.5q6 23 33 71l8 13l27 51l14 24l21 25l6 6q51 55 96 80l53 31q31 14 109 18 q59 4 110 -12q27 -12 56.5 -28.5t44.5 -26.5l16 -11q37 -31 62 -69q43 -43 59 -105l4 -16l12 -31q27 -76 52 -170l4 -20l2 -13q2 -12 6 -34.5t4 -32.5zM508 1339q-74 -18 -121 -86l2 2l-24 -43l-7 -14l-8 -20q-16 -23 -35 -103l-12 -53q-2 -8 -2 -21v-10l-8 -67l-2 -4v-9 q-2 -6 -2 -10l-6 -31q-4 -16 -4 -59q0 -53 2 -76v-45q0 -16 14 -160q6 -31 16 -63l8 -21q14 -68 29 -96l12 -35l15 -26q8 -20 20 -45l13 -15q10 -10 12 -10q43 -18 67 -22h5q4 -2 6 -2h12q12 -4 29 0l10 4q53 23 59 26.5t23 20.5q14 10 33 43q14 25 32 76l13 41q0 6 4 10 q41 184 37 266l-2 203q0 16 -5 26l-12 78q-4 12 -4 33l-6 22q0 2 -2 7.5t-4 9.5t-2 6l-21 80l-4 14l-12 33l-35 61l-14 17q-35 51 -78 67l-14 4q-11 0 -27 -4z" glyph-name="zero" horiz-adv-x="1093" unicode="0"/><glyph d="M451 68q0 -45 -21.5 -57.5t-85.5 -12.5q-51 0 -74.5 13.5t-23.5 51.5v261q2 18 2 90q0 98 -4 176v59q0 63 2 99v73q0 25 2 39q4 37 2 47v58q0 33 -2 55q0 4 -1 13t-1 16l-6 170l2 18l-35 -33l-47 -43q-2 -2 -34 -27.5t-40 -33.5q-20 -23 -50 -15.5t-52 39.5 q-63 68 -25 111l51 59l17 17l100 88l12 12q8 4 17 12l10 9l14 12l68 49q53 41 100 41q98 0 98 -72v-110q0 -59 3 -92l6 -142q0 -45 -2 -88l-7 -178l3 -37l-3 -98q0 -39 5 -43v-606z" glyph-name="one" horiz-adv-x="657" unicode="1"/><glyph d="M827 203h2q8 -2 17 -2q41 0 54 -1t31.5 -9.5t24 -28t5.5 -56.5q0 -74 -21.5 -90t-89.5 -16q-145 0 -227 6q-119 0 -185 -4q-61 0 -69 2h-21l-215 -4q-102 -4 -104 53q-2 53 17.5 94t86.5 115l164 180q59 51 84 84l22 21l117 127l86 117l35 38l27 35q55 84 57 187 q2 72 -35 153q-8 8 -18 31q-82 98 -152 98q-31 0 -53.5 -4t-32.5 -9t-28.5 -16.5t-26.5 -15.5l-6 -6q-47 -55 -56 -72q-10 -18 -24 -63q0 -4 -4 -31l-4 -26q-2 -31 -19.5 -43.5t-70.5 -14.5q-74 -4 -94.5 18.5t-12.5 127.5q8 121 121 241q70 63 143.5 93t177.5 32h13 q104 -10 190 -71q25 -12 66 -58l30 -35q92 -123 103 -313q6 -176 -94 -340l-50 -68l-30 -43l-78 -73l-12 -17l-17 -18l-192 -207l-31 -27l-45 -38l-12 -13l-11 -8l-16 -12q25 -4 39 -4l135 2l160 -2z" glyph-name="two" horiz-adv-x="1124" unicode="2"/><glyph d="M829 702l23 -28q14 -20 43 -92l2 -4q2 -4 4 -10.5t4 -12.5q16 -53 17 -94v-45q0 -55 -7 -70q-10 -51 -38 -115q-4 -2 -13 -30q-16 -33 -24 -47q-29 -43 -74 -77t-76 -42l-10 -6q-12 -8 -53 -21l-27 -6q-45 -16 -100.5 -16t-139.5 22l-65 33q-39 23 -53 37 q-61 43 -105 125q-43 131 -49 186q-2 27 -1 46.5t9 32.5t27.5 22.5t54.5 13.5q59 8 76.5 -2t28.5 -45q0 -37 18 -97q14 -43 31 -73l12 -19q12 -16 23 -26l30 -23l17 -10q18 -8 61 -8h33q37 0 72 12q25 8 43 25l18 16q33 27 59 84l9 22q2 6 8 62q0 47 -6 65l-21 41l-2 9 l-8 16t-6 10l-23 25l-33 26l-28 27q-27 31 -146 74q-86 29 -86 80q0 25 11.5 37t44.5 30l65 39q66 41 96 72l21 20q2 2 18.5 22.5t20.5 26.5q31 25 35 72q4 61 -21 135q-23 43 -88 72l-31 6q-33 12 -49 8q-74 -4 -133 -32l-18 -17q-43 -35 -54 -49q-4 -8 -8 -17.5t-7 -20.5 t-5 -17q-2 -4 -5 -15.5t-5 -15.5q-4 -10 -6 -41q-2 -43 -19.5 -55.5t-66.5 -18.5q-72 -8 -92.5 21.5t-16.5 116.5q12 129 127 247q125 113 281 125q43 0 104 -10l66 -18l45 -23q92 -43 143 -115q45 -66 51 -137q10 -51 10 -117q0 -88 -20 -116q0 -2 -6 -14.5t-13.5 -27 t-13.5 -24.5q-45 -66 -74 -86l-28 -18q-20 -12 -70 -25q43 -2 78 -24l39 -25q4 -3 65 -64z" glyph-name="three" horiz-adv-x="1048" unicode="3"/><glyph d="M889 461h65q45 0 57.5 -19.5t14.5 -76.5v-11q4 -41 -8 -65q-41 -25 -146 -27q-29 0 -47 -2q0 -53 2 -55v-37l2 -43v-6q0 -80 -13 -98.5t-87 -18.5q-57 0 -78.5 14.5t-23.5 57.5v184h-15q-63 0 -178 -4h-55q-39 0 -62 -2q-49 -4 -77 -4q-18 0 -56 -4h-100q-33 0 -46 1 t-27.5 11t-14.5 33q0 31 31 86l118 235l33 62l27 49q0 2 2 6t2 6l12 27l29 59l37 72l18 43l10 22q23 41 27 58l47 106l10 21l15 39l59 125q31 47 55 118l37 66q25 41 111 47q53 2 72.5 -13.5t9.5 -62.5l-2 -6q-2 -4 -6 -16l-7 -13q0 -2 -3 -9t-5 -11q-12 -25 -12 -29 l-18 -33l-11 -28l-24 -70l-17 -31l-16 -34l-16 -56l-29 -65l-25 -43l-10 -29l-12 -35l-35 -67q-2 -2 -2 -6l-43 -82q-6 -6 -6 -13l-19 -43l-16 -41l-21 -41l-6 -16l-6 -14l-88 -156q-4 -4 -4 -6l-16 -21h18q14 0 64 5h30q2 0 7.5 1t9.5 1q102 6 213 6q0 20 -1 61t-1 60v137 l2 108q2 33 18 46.5t74 13.5q55 0 73.5 -14.5t22.5 -51.5q8 -53 2 -123v-43l2 -32q0 -8 2 -23q4 -25 4 -47l-2 -35v-37q0 -6 -1 -11t-1 -9q47 0 70 2z" glyph-name="four" horiz-adv-x="1163" unicode="4"/><glyph d="M487 199q35 4 58 22l30 23l19 16l12 19q102 143 103 210l2 11v12v41q0 51 -30 110.5t-69 96.5q-33 37 -71 51l-56 2q-23 0 -57 -12q-66 -23 -133 -74q-4 -2 -15.5 -12t-14.5 -12.5t-13 -9.5t-16.5 -8t-15.5 -5t-19.5 -4h-22.5q-41 0 -58.5 14.5t-23.5 57.5v18 q-4 43 0 141v56q0 4 -1 12t-1 14v23q0 2 -1 6t-1 8v133q-2 53 -2 156v16q-2 8 -2 33v45q-4 66 17.5 96.5t78.5 28.5q8 0 24.5 -1t27.5 -1h73q14 -2 47 -2l23 2q39 4 74 0h184q141 0 182 -4q49 -4 49 -115q0 -37 -10 -53.5t-24.5 -19.5t-47.5 -3h-12q-102 4 -141 0 q-55 -4 -137 4q-14 2 -72 2l-135 -6v-96l2 -80v-71q2 -39 2 -121q47 25 92 37t66 12h22q66 0 119 -14q25 -4 98 -50l55 -34q59 -55 105 -134q31 -51 51 -131l12 -71q2 -18 2 -62q2 -90 -77 -278q0 -8 -15 -31l-12 -20l-31 -39l-45 -52q-102 -92 -200 -108q-47 -6 -86 -4 q-152 10 -283 123q-45 45 -82 117.5t-45 136.5q-2 88 14.5 106.5t93.5 15.5q39 0 58.5 -13t21.5 -25.5t4 -36.5q0 -6 11 -47q18 -41 26 -58l4 -12q33 -47 70 -70q41 -28 145 -28z" glyph-name="five" horiz-adv-x="1075" unicode="5"/><glyph d="M864 643l8 -29q6 -12 11 -47v-55q2 -12 2 -43v-16q0 -88 -15 -129l-6 -21q-6 -39 -39 -113q-37 -76 -120 -139l-35 -20q-57 -41 -162 -43q-41 -2 -116 12t-97 33q-25 8 -121 104l-35 56q-23 53 -33 106l-10 35q-14 49 -14 145v15q0 68 4 88q10 68 35 131l2 2v4l18 49 l23 47l18 39l25 51l4 10l43 84l6 17l6 12l41 72l15 24l38 95q80 152 91 176q8 20 34 65l11 19l4 8q4 6 5 8t6 8t7 8t7 7.5t9.5 6.5t11.5 4t14 4t16.5 2t19.5 1h8q27 0 39 -1t30.5 -6t19.5 -14.5t7.5 -27t-6.5 -41.5l-43 -103l-35 -61l-26 -74l-27 -49l-31 -51l-14 -27 l-12 -20l-19 -33l-14 -29l-20 -45l-35 -59q41 39 106 39q31 0 76 -10q53 -6 156 -93l18 -20q53 -66 90 -168zM596 698q-41 37 -98 41q-20 -2 -31 -4q-4 -2 -47 -20l-19 -13l-12 -8q-23 -14 -37 -35l-16 -22l-12 -23l-13 -16q-20 -35 -20 -74q-4 -37 -4 -49q0 -37 8 -82 l20 -61l9 -25q0 -6 4 -10l12 -18q2 -4 12 -15.5t13 -13.5q14 -23 59 -43q33 -14 74 -14h20q27 0 49 12q20 12 25 16q2 2 8 12l14 19l15 20q18 23 29.5 48.5t13.5 39.5l2 15q8 45 8 84q0 47 -10 102q0 4 -4 12l-9 27q-12 35 -38 74z" glyph-name="six" horiz-adv-x="1034" unicode="6"/><glyph d="M657 1536q86 0 150 -2q59 -4 79.5 -12.5t20.5 -32.5q0 -55 -14 -84l-8 -23q-12 -25 -34 -68.5t-39 -80.5t-34 -70q-35 -63 -78 -151l-6 -13l-6 -14l-39 -80q-27 -45 -45 -90l-18 -61v-2q-2 -2 -2 -4l-62 -127l-20 -43l-8 -15l-43 -86v-2q-4 -6 -7 -16l-14 -33l-27 -64 l-71 -145l-25 -47l-61 -119q-33 -57 -78 -51h-29q-39 2 -57.5 4t-31.5 14.5t-13 36.5q0 8 18 60l6 14l7 18l41 82q10 39 45 88l12 25q8 12 14 29q18 45 37 78l6 14l56 112l55 107q4 25 22 57l23 58l45 88l2 4q2 4 2 6l18 49l11 21l14 24l14 31q16 29 35 72q18 27 33 61 l16 31l21 53l45 96l-152 -2h-159h-2h-6.5t-11.5 -1t-18.5 -1h-25.5l-86 2h-92q-25 0 -37 2t-25.5 10.5t-18.5 28t-5 53.5q0 109 76 109h57q20 0 25 2h43q12 -2 204 -2h189q4 0 67 2z" glyph-name="seven" horiz-adv-x="976" unicode="7"/><glyph d="M932 561q10 -27 10 -69v-33v-33q0 -6 -1 -19.5t-1 -17.5q-4 -55 -22 -106l-17 -29l-18 -37l-13 -27l-30 -43l-17 -14l-28 -27q-80 -72 -179 -102q-57 -14 -108 -14q-78 0 -164 33q-94 43 -131 86q-20 18 -66 100l-6 16l-4 13l-14 32q-2 4 -2 6q-18 43 -25 113l-2 47v10 l10 95q23 96 91 174l16 22l33 29q39 33 73 49q-55 27 -96 68l-26 35l-15 28q-39 88 -39 187v65q4 31 26.5 92.5t41.5 87.5q41 51 86 86l76 45q43 23 108 33q14 2 47 2q82 0 109 -10q39 -20 57 -27q10 -6 15 -6q29 -12 76.5 -50t72.5 -75q41 -74 53 -162v-59q0 -39 -8 -72 l-12 -41q-27 -68 -84 -133l-25 -24q-8 -8 -18 -17.5t-19 -15.5q-23 -14 -51 -25q51 -18 109 -65q80 -56 131 -201zM494 197h10q41 0 84 16l39 25l8 6l10 6l41 39l19 22l24 47l12 41q4 8 4 41v15q0 31 -18 67l-18 33q-14 20 -29 35q-33 37 -45 45l-31 29l-20 14q-4 2 -35 20 l-21 11q-14 8 -18 10l-35 -23q-18 -12 -41 -34l-8 -9l-45 -47l-33 -41l-18 -30q-4 -8 -4 -13q-20 -61 -21 -96v-29l2 -22l4 -19q8 -47 39 -82q16 -25 31 -38l14 -11q2 -2 27 -14q16 -8 24 -8q36 -10 48 -6zM600 983q63 45 94 119v-2q0 2 2 6l2 4q12 51 13 82q-4 37 -42 79 t-77 62q-27 6 -68 6l-41 -6l-14 -6l-16 -8q-12 -4 -29 -14q-45 -39 -55 -58q-25 -53 -25 -86q-4 -10 8 -65q4 -23 21 -58q18 -33 37 -51l43 -37l6 -4l8 -6l33 -22q33 14 80 49z" glyph-name="eight" horiz-adv-x="1120" unicode="8"/><glyph d="M106 872l-16 52q-6 49 -6 104v39q0 84 10 123q0 12 2 20q0 8 4 13l4 12q23 68 27 74l29 41q2 2 8 14l8 10q18 29 64 74l8 6l24 23l17 14q55 31 80 41l28 6q20 4 31 4q27 2 64.5 3t48.5 -1q57 -8 116 -41q18 -18 23 -18q37 -12 86 -76l4 -4q4 -6 8 -10l4 -4l9 -11 q33 -45 43 -67q18 -39 28 -82l8 -35q16 -72 17 -147v-15q0 -66 -13 -104l-14 -58q-2 -8 -6 -18t-13.5 -35.5t-19.5 -54.5l-18 -43q-6 -6 -6 -12q-23 -45 -43 -97l-21 -43l-22 -47l-31 -59l-6 -17l-29 -49l-35 -84l-78 -155l-8 -17l-4 -8q-6 -12 -6 -10l-20 -39l-29 -41 q-6 -12 -15.5 -20.5t-14.5 -13.5t-19.5 -7t-19.5 -2h-25.5h-26.5q-61 0 -78.5 18.5t4.5 53.5l56 106l51 111l26 45l31 57q4 10 14.5 32.5t12.5 27.5q25 49 31 65l53 109q-68 -41 -135 -31q-2 0 -8.5 1t-10.5 1l-41 10q-57 20 -121 78l-18 23q-66 69 -105 165zM510 795 q4 0 12 2q23 2 40.5 9t23.5 13l8 6l18 21l15 18l8 15q6 10 12 26l2 4q2 4 2 6l25 101v6q4 25 4 29q0 10 -4 51q0 4 -1 14t-1 17l-31 94q-4 6 -9 13t-10.5 14.5t-5.5 9.5q-31 35 -57 51q-39 33 -90 28h-4q-4 -2 -8 -2q-14 -2 -37 -12l-21 -12l-6 -2q-16 -8 -26 -19l-25 -32 l-18 -25l-4 -8l-21 -45l-8 -33q-10 -51 -10 -88q0 -49 10 -98l12 -37q18 -53 60 -88q49 -49 120 -49q2 -2 25 2z" glyph-name="nine" horiz-adv-x="1034" unicode="9"/><glyph d="M272 961q41 0 73 -34t38 -71q6 -41 -34 -88t-79 -61q-80 -12 -100 28q-14 33 -14 68q0 45 20.5 88t52.5 61q20 9 43 9zM303 229l10 -4l49 -22q23 -18 30 -57.5t-3 -69.5q-18 -51 -67.5 -71.5t-88.5 -18.5q-92 14 -88 112q-2 51 53.5 94t104.5 37z" glyph-name="colon" horiz-adv-x="483" unicode=":"/><glyph d="M387 961q43 0 75 -36t36 -73q6 -41 -33 -86t-76 -57q-70 -23 -121 47q-20 49 2.5 111.5t77.5 84.5q2 0 10 4q17 5 29 5zM221 205l68 131q23 53 121 12q29 -14 48 -39.5t11 -48.5l-8 -18q-16 -31 -17 -37l-18 -37q-2 -6 -8 -18.5t-8 -18.5q-23 -23 -41 -86 q-20 -55 -72 -160l-10 -18l-13 -27q-18 -29 -26 -55l-6 -16q-12 -25 -23 -37q-2 -2 -20 -27q-18 -16 -57.5 -9t-75 40t-29.5 67q2 25 20 50l9 18l8 12t4 8l8 17l16 39l7 10l16 29q2 6 7 17t7 17q47 104 49 111z" glyph-name="semicolon" horiz-adv-x="544" unicode=";"/><glyph d="M606 682l-231 -107q6 -2 16 -6t12 -4l162 -55q106 -39 160 -70l16 -8q8 0 33 -12l29 -14q6 -2 18.5 -8.5t18.5 -8.5q10 -8 14 -8l68 -29q45 -27 96 -47q96 -41 168 -82q16 -14 37 -22q57 -25 39 -88q-8 -37 -36 -69t-57 -26q-37 8 -61 19q-14 4 -71.5 35.5t-90.5 44.5 q-31 12 -91 38.5t-85 37.5l-127 63l-33 14l-145 66l-35 12q-25 8 -41 17l-41 18q-23 8 -41 20l-35 21l-14 6l-51 29q-20 8 -23 10l-34 20q-51 31 -54 80q-2 39 10.5 55.5t45.5 34.5l45 29l317 178l78 41l47 23q25 12 47 26l23 15l16 6l63 33l68 34l27 17l73 37q14 4 88 37 l91 34l8 5q53 23 92 -35q25 -35 25 -72q0 -29 -7.5 -39t-38.5 -24l-43 -23l-67 -33q-16 -10 -27 -14l-26 -12l-109 -56l-63 -30l-15 -9l-26 -12l-25 -14q-82 -37 -141 -80q-25 -16 -47 -29z" glyph-name="less" horiz-adv-x="1474" unicode="&lt;"/><glyph d="M776 864q106 2 130 -17.5t18 -96.5q-8 -37 -22.5 -54.5t-28 -19.5t-48.5 -2h-55q-16 4 -108 -2h-459q-66 -4 -87.5 17.5t-21.5 80.5q0 70 23.5 83t109.5 13q109 -4 217 -4q117 0 160 4q20 2 72 2zM221 352q-94 0 -112.5 15.5t-14.5 72.5q4 59 28.5 79t74.5 20h45 q25 -2 116 2q23 2 78 2l66 -2h319q63 4 82 -21.5t19 -85.5q0 -27 -6.5 -42t-12.5 -24.5t-27.5 -12.5t-36 -4t-53.5 -1q-102 4 -204 4q-117 0 -166 -4q-29 -2 -72 -2z" glyph-name="equal" horiz-adv-x="1081" unicode="="/><glyph d="M991 575l-231 107l-19 10q-23 12 -47 29q-59 43 -141 80l-25 14l-26 12l-15 9l-63 30l-109 56l-26 12q-10 4 -27 14l-67 33l-43 23q-31 14 -38.5 24t-7.5 39q0 37 25 72q39 57 92 35q6 -4 8 -5l91 -34q76 -33 88 -37l73 -37l27 -17l68 -34l63 -33l16 -6l23 -15 q23 -14 47 -26l47 -23l78 -41l317 -178l45 -29q33 -18 45.5 -34.5t10.5 -55.5q-2 -49 -53 -80l-35 -20q-2 -2 -23 -10l-51 -29l-14 -6l-35 -21q-18 -12 -41 -20l-41 -18q-16 -8 -41 -17l-35 -12l-145 -66l-33 -14l-127 -63q-25 -10 -85 -37t-91 -39q-33 -12 -90.5 -44 t-71.5 -36q-25 -10 -61 -19q-29 -6 -56.5 26t-36.5 69q-18 63 39 88q20 8 37 22q72 41 168 82q51 20 96 47l68 29q4 0 14 8q6 2 18.5 8t18.5 9l29 14q25 12 33 12l16 8q53 31 160 70l162 55q2 0 12 4t16 6z" glyph-name="greater" horiz-adv-x="1472" unicode=">"/><glyph d="M551 1546q25 0 46 -4t30 -8l10 -4q66 -18 115 -51l49 -37q39 -29 82 -150q25 -86 20 -145q-2 -68 -56 -163t-112 -157l-53 -59l-8 -12l-19 -29q-31 -39 -37 -96q-12 -33 -14 -74q0 -27 -2 -35v-8v-6l-2 -4v-31q0 -39 -17.5 -58.5t-74.5 -25.5q-41 -4 -73 12.5t-36 38.5 l-4 37v12q-2 70 8 109l7 33q10 59 37.5 128.5t54.5 102.5l22 39l27 31l41 47l35 41l14 12q29 29 39 43q29 68 16 111q4 35 -16 65q-61 92 -162 86q-6 0 -104 -34l-35 -27l-14 -19q-10 -10 -23 -28q-20 -25 -33 -76l-12 -43q-10 -76 -82 -76q-80 -4 -100.5 22.5t-10.5 117.5 q16 147 123 243q142 123 324 129zM514 227q39 0 66.5 -27.5t33.5 -60.5q6 -39 -30.5 -84t-71.5 -63q-66 -18 -94 24q-29 35 -29 86q0 39 21.5 73t56.5 42q37 10 47 10z" glyph-name="question" horiz-adv-x="903" unicode="?"/><glyph d="M1532 1235l24 -41l13 -14q84 -129 84 -306q0 -39 -2 -55q-6 -98 -39 -166q-72 -150 -99 -184l-49 -53q-109 -113 -252 -113q-57 0 -112.5 31t-75.5 78l-10 -11q-33 -41 -80 -61q-63 -31 -127 -31q-94 0 -160 49q-53 39 -94 122t-41 186q0 135 40 213.5t132 173.5 q12 8 38 28.5t40 30.5l31 18q90 31 159 27q51 -4 90 -28.5t54 -55.5l16 37q18 41 53 41q23 0 76 -18q37 -23 45 -35.5t0 -46.5l-24 -90l-15 -56l-2 -4q-2 -4 -5 -11t-5 -12.5t-4 -11.5l-21 -73l-8 -31l-41 -133l-6 -27q-16 -33 -16 -61q-2 -29 18.5 -44.5t40.5 -15.5 q90 0 143 80q70 117 93 209q14 61 14 125q0 84 -45 160q-45 80 -168 166q-135 66 -258 65q-113 0 -168 -14l-23 -8q-76 -20 -129 -52l-69 -55q-57 -45 -123 -153q-88 -158 -88 -302q0 -270 176 -403q27 -16 80 -39l26 -12q61 -31 86 -41l25 -6q2 0 7 -2t7 -2q31 -16 115 -17 h27q113 0 172 10.5t139 49.5l41 14l27 14l26 11q25 12 31 12q33 2 45 -8.5t29 -38.5l12 -25q37 -63 0 -96q-20 -16 -80.5 -49t-85.5 -41l-6 -2q-41 -16 -66 -23h-10l-39 -12q-72 -18 -184 -25l-78 -2l-68 4q-84 8 -284 103l-15 6q-6 0 -12 6q-104 47 -119 57l-24 25l-25 27 l-6 6l-8 10q-55 68 -74 98q-37 61 -65.5 162.5t-28.5 200.5q0 170 43 293l27 67q72 143 137 219l45 45q119 102 251 149.5t326 47.5l48 -2q84 -10 181 -43t163 -78l65 -51q35 -25 76 -86zM760 504l37 -6q23 0 28 6q25 8 46.5 28.5t31.5 36.5l10 19q37 61 69 160.5t32 164.5 v17q-14 53 -56 53q-39 0 -90 -21.5t-71 -56.5l-39 -55l-15 -27q-37 -53 -36 -143q0 -45 2 -59q4 -12 4 -23q4 -10 8 -28.5t7 -26.5t11.5 -18.5t20.5 -20.5z" glyph-name="at" horiz-adv-x="1880" unicode="@"/><glyph d="M541 1386l8 23l26 45q43 82 89 82q35 0 65.5 -49t89.5 -201l72 -199l6 -12l21 -69l24 -74l12 -31l15 -41l86 -256l20 -65l17 -47l14 -46q0 -2 6 -17t17.5 -43t17.5 -44q37 -92 39 -98l6 -29l2 -12l16 -33l7 -18l16 -54q20 -51 5 -76.5t-75 -23.5q-6 0 -18 1t-19 1l-8 2 q-80 0 -92 72q-4 23 -22 45l-7 14q-2 4 -2 6l-14 39q-18 37 -20 43q-6 12 -7 19l-6 14l-10 41q0 2 -2 6l-23 55q-4 4 -4 9q-27 68 -37 110q0 2 -14 31l-8 12h-313q-72 0 -91 -2h3l-25 -2l-2 -4l-6 -16q-2 -2 -2 -9q-18 -61 -47 -110v2q-4 -14 -9 -19q-8 -10 -24 -51l-12 -31 q-2 -4 -16.5 -35.5t-18.5 -45.5l-13 -27q-4 -4 -4 -8l-10 -29l-41 -74q-20 -35 -40.5 -46t-61.5 -11l-66 2q-39 6 -49 22.5t6 65.5l12 31l7 14l12 27l6 12l6 16q0 2 2 7.5t2 7.5l19 35v-2q16 33 20 47q4 6 17 34l4 15l32 78l23 45l29 69l30 78l29 76l6 14q25 74 37 99l16 43 l43 90l13 28q2 2 6 17.5t10 33t12 27.5q8 23 23 43q2 4 5 14.5t5 14.5l8 20l15 39l8 21q0 14 29 86l6 20q6 14 6 17l18 43q2 6 8.5 18t8.5 18zM668 1124l-13 43l-6 -28l-10 -31q0 -16 -8 -29l-23 -67l-18 -56l-19 -47l-16 -32q-20 -47 -27 -74q-2 -4 -2 -8l-26 -64h127 q82 0 159 2l-20 60q-4 4 -4 14l-23 72l-18 53l-10 33l-6 18z" glyph-name="A" unicode="A"/><glyph d="M987 848q-68 -41 -121 -55q109 -20 197 -93q39 -39 64.5 -111.5t25.5 -142.5q0 -45 -8 -77q-29 -143 -146 -252l-45 -29l-12 -8h2l-24 -14q-98 -47 -205 -58q-76 -6 -326 -6l-51 -2l-74 -2q-47 0 -60.5 18.5t-13.5 71.5l3 154q0 113 -3 131l-2 30v17l-4 96q0 39 4 92 q0 6 1 19.5t1 15.5v43q0 10 3 16v39q4 45 4 66q2 37 -2 121v20l-2 4v6v37q-2 29 -3 86v78q0 70 3 94q6 143 2 177q-2 63 18 85.5t94 20.5h37q25 2 76 2h104q98 0 148 -8q2 0 6 -1t6 -1q4 -2 8 -2q10 0 27 -4q12 -4 14 -4l47 -17l43 -16q55 -16 99 -41q35 -33 84 -86 q2 -4 10 -12l33 -50l6 -8q45 -59 47 -180q6 -123 -60 -207zM854 268l18 21q8 8 23 41q29 41 37 78v6q0 23 2 28v56l-2 12q0 4 -4 16.5t-15.5 32t-27.5 29.5l-39 28q-100 45 -187 56q-43 2 -127 2h-86l-57 -2v-13q0 -35 2 -57v-6q0 -2 1 -5t1 -5v-11l2 -24q4 -41 4 -68 l-2 -37v-28q-2 -20 -2 -56l-2 -172q39 0 51 -2h41l58 -2q147 0 311 82zM578 872h4q90 4 192 50l10 6l27 16q31 14 60.5 72.5t25.5 93.5q0 27 -12 59l-11 17v-2l-22 33h2l-45 45q-37 33 -90 49q-102 33 -213 26h-111v-98q0 -117 6 -176v-174v-19h97q55 0 80 2z" glyph-name="B" horiz-adv-x="1310" unicode="B"/><glyph d="M1108 1282l-14 -12q-23 -29 -36.5 -33t-62.5 10l-37 19q-8 8 -22 14l-43 29l-43 16q-53 14 -94 14l-37 -2q-25 -4 -45 -4q-88 -20 -176 -80q-51 -53 -131 -170l2 2q-70 -143 -82 -305v-26q-4 -43 -2 -52q4 -78 30 -190q47 -115 64 -143l24 -25q37 -43 64 -68l29 -20 q8 -8 19 -14t20 -9l8 -2l45 -12q8 -4 26 -4l25 -2q35 -14 162 -14h16l55 14q8 4 27 14.5t23 12.5l26 12q8 6 41 29l19 10q66 37 114 -45q41 -74 13 -94l-60 -52q-47 -41 -108 -71l-11 -4h2q-80 -31 -145 -31q-31 0 -49 -2q-45 -4 -78 -2q-178 27 -313 90q-68 41 -197 213 q-57 96 -86 301v-2q-8 33 -8 110q0 121 10 172v-2q39 281 144 412l30 33l6 6l11 14q6 6 18 25q39 43 68 59h-2l14 10.5t10 6.5t6 4l41 33l25 14q104 53 211 57q4 0 12 2l74 2q111 -2 188 -41l101 -53q51 -37 86 -76q26 -28 -27 -98z" glyph-name="C" horiz-adv-x="1290" unicode="C"/><glyph d="M190 90v119q0 109 5 309v590l4 143v88l2 72l2 70q-2 27 15.5 41t53.5 14h78q137 0 271 -18q236 -39 405 -209l18 -25l48 -51q63 -88 104 -240l6 -24l6 -35q16 -61 17 -148q4 -39 -4 -110l-7 -78l-18 -74q-2 -25 -27 -78l-18 -38l-8 -17l-8 -14l-21 -39l-18 -21l-25 -36 l-20 -25q-25 -45 -66 -70q-199 -150 -367 -176q-86 -12 -237 -12q-6 2 -42 2t-52 -2q-66 4 -81.5 17.5t-15.5 74.5zM532 197q90 0 152 41l64 34l81 60l29 22q31 27 62 68l16 20l18 43q31 53 52 152q10 41 10 96q0 10 2 17v45q0 2 -1 9t-1 13q0 4 -1 12.5t-1 14.5 q-27 115 -41 149l-25 54l-28 45l-41 57l-15 18l-20 29q-33 25 -41 35q-18 18 -41 31l-57 26l-52 12l-35 11l-28 10q-14 4 -59.5 7t-51.5 1l-73 -2v-104l-3 -31v-109q-4 -45 -4 -67q0 -57 2 -82v-193q0 -82 -4 -245v-303z" glyph-name="D" horiz-adv-x="1388" unicode="D"/><glyph d="M893 1534q66 -2 81 -13.5t23 -72.5l-2 -33q0 -84 -116 -78h-9q-68 0 -108 -2q-25 -2 -84 -2q-27 0 -45 -2l-217 -2h-6h-8.5h-10.5q0 -59 4 -96q4 -74 4 -113q0 -37 -4 -82l-2 -4v-8q-6 -92 -2 -119h148q29 -4 36 -4q33 0 70 4l133 -6q33 0 49.5 -13.5t19.5 -27.5t3 -41 q2 -35 -1 -54.5t-16.5 -27.5t-22.5 -9t-38 -1h-18q-92 -8 -142 -4h-75q-23 -2 -72 -2l-64 2h-8v-121q2 -16 -2 -65v-23l-2 -49q-2 -23 4 -84q2 -35 2 -115l-2 -57v-4q41 -4 123 -4q8 0 25.5 -1t27.5 -1q49 -4 99 0h127l73 -4q6 0 15.5 -1t11.5 -1q33 -2 43 -3.5t23.5 -9.5 t15.5 -21.5t6 -41.5q2 -68 -5 -84.5t-44 -28.5q-6 0 -10 -2q-16 -2 -170 2h-195q-104 0 -190 -4h-101q-55 0 -71.5 23.5t-16.5 80.5v35q2 63 2 187v217q0 61 -2 92l-2 113l4 126q0 94 -2 144v90l2 43q0 39 -2 57q-2 29 -2 103q0 98 2 135v8q2 29 5 43t24.5 26.5t62.5 12.5 q123 0 170 -2q121 -4 138 -2q61 4 174 4z" glyph-name="E" horiz-adv-x="1157" unicode="E"/><glyph d="M281 1536q236 0 442 -6h80l16 -2q27 2 94 2q45 -4 59.5 -23.5t18.5 -81.5q0 -59 -14 -75.5t-62 -18.5l-106 -2q-106 4 -168 4q-57 0 -82 -2q-41 -6 -121 0h-43v-258q0 -92 2 -164h47l105 -2h14l4 -2h8l46 2q12 -2 14 0h70q6 0 15 -1t13 -1q35 -2 47.5 -4t22.5 -17.5 t12 -49.5v-15q0 -63 -15.5 -78.5t-82.5 -23.5h-58h-32l-27 -2l-94 2h-105v-39q0 -37 5 -98v-144q0 -55 2 -82q4 -49 4 -75v-70q0 -18 2 -45q0 -35 6 -53q8 -41 3 -62.5t-21.5 -31t-67.5 -19.5l-53 2q-29 -6 -45.5 7t-20.5 26.5t-6 42.5v10l-10 154q0 18 -4 47q-2 16 -2 61 v45q4 43 2 60v26l2 17l-2 88v59q-4 41 -5 141l-4 146q-8 201 -8 327v58q0 4 1 19.5t1 43v60.5q-2 51 16.5 74.5t84.5 23.5z" glyph-name="F" horiz-adv-x="1118" unicode="F"/><glyph d="M1079 1290q-27 -59 -80 -59q-20 0 -45 20q-2 0 -8 5.5t-10 7.5l-25 14l-28 16l-54 21l-16 4q-47 16 -104 16q-27 0 -45 -4q-117 -23 -203 -117q-2 -4 -39 -49l-14 -22q-68 -94 -82 -152q-25 -123 -33 -241q-10 -166 57 -308l21 -39l20 -30h-2l14 -15q63 -63 91 -84 q92 -49 133 -61l20 -8q14 -4 88 -4q76 0 154 47l14 10l12 8l5 4v148q0 49 -2 51l-3 70v34q0 12 1.5 33t1.5 33q4 59 0 117v37q0 63 16 80.5t88 15.5q51 -2 66.5 -20.5t21.5 -63.5q2 -14 2 -113v-117q4 -94 4 -141q0 -31 -4 -72q0 -16 2 -61t2 -63q0 -31 -4 -48 q-14 -45 -84 -94l-14 -14q-139 -96 -293 -92h-43q-29 0 -43 6q-78 10 -117 29l-10 2q-25 6 -43 14q-41 16 -75 36.5t-49 34t-58 50.5q-94 102 -117 184q-25 35 -33 72l-18 49q-25 113 -25 244q0 113 10 176v20l6 60q12 86 41 137q33 76 88.5 162t98.5 123l14 10l17 14 q6 4 38.5 27.5t47.5 32.5q139 74 254 71q145 -2 233 -49q119 -72 141 -100q33 -48 0 -105z" glyph-name="G" horiz-adv-x="1333" unicode="G"/><glyph d="M315 1534q41 -6 53.5 -9t25 -19.5t12.5 -51.5v-39q0 -2 1 -10t1 -10v-17q0 -4 -1 -13t-1 -15l-3 -47v-80q-2 -63 -2 -148q0 -61 -2 -102q0 -2 -1 -12.5t-1 -14.5v-59h256q20 0 59.5 1t51.5 1q25 -2 55 -2q33 0 60 4h20l19 2q0 72 -3 74q0 61 7 141q0 147 -2 149l-2 60 l4 137q4 53 24.5 68.5t89.5 13.5q53 -2 68.5 -19.5t15.5 -58.5v-186q0 -90 2 -133v-131l2 -15q0 -295 2 -411v-195q0 -76 7 -164v-149q2 -35 -12.5 -52.5t-69.5 -21.5l-37 -2q-84 0 -86 53v113l-2 65l-4 177q0 131 -7 264v12q-8 0 -28 4q-51 4 -66 2h-6q-4 -2 -8 -2h-23 q-125 -6 -147 -2q-63 0 -92 2h-35q-4 0 -12.5 -1t-10.5 -1q-20 -4 -34 -4h-58q-2 -27 2 -57v-97l2 -100q-2 -23 -2 -74q0 -57 2 -104q0 -133 2 -164q2 -45 -15 -66.5t-42 -20.5t-47 1h-16q-84 0 -86 65v87l-5 53q0 80 -2 125q-2 23 -2 123q-4 33 0 67q0 55 2 64v338 q0 41 2 57v65q-2 14 -2 43q0 59 2 89q2 18 3 49l2 49q2 16 2 39q2 18 2 86v33q0 66 14 85t82 19h20z" glyph-name="H" horiz-adv-x="1404" unicode="H"/><glyph d="M375 1446v-6q2 -45 -2 -117q-2 -14 -2 -53q0 -41 -2 -62v-20q0 -2 2 -60q4 -106 4 -344v-385q0 -6 2 -16v-12q6 -37 2 -58q0 -31 -2 -39v-18q4 -18 4 -55l2 -19q2 -12 2 -37v-28q2 -33 1 -55.5t-10 -37t-30.5 -20.5t-60.5 -6t-60.5 6t-31 25.5t-11.5 37t-2 60.5l-2 8v60 q-4 51 -4 170v75q2 39 2 119q0 98 -2 148v90q0 14 -1 44.5t-1 47.5v24q0 10 1 30t1 26v96q-2 14 -2 51q0 57 -2 90v54q0 27 2 38q0 6 1 15.5t1 11.5v127q0 55 23.5 71.5t78.5 12.5q68 -6 83.5 -18.5t15.5 -71.5z" glyph-name="I" horiz-adv-x="583" unicode="I"/><glyph d="M539 1417q-2 -18 2 -65q2 -16 2 -47v-35q0 -37 2 -64l2 -22v-45q2 -18 2 -66l2 -18v-140l2 -79q0 -154 4 -201q2 -27 2 -92v-84q0 -59 -4 -82v-6q0 -14 -2 -23q-2 -4 -2 -33q0 -27 -2 -39q0 -47 -2 -53q-2 -31 -12 -55q-10 -70 -74 -129q-23 -20 -103 -43q-33 -8 -90 -8 q-100 0 -153 32q-68 55 -99 115l-10 25q-18 51 -20 98q-4 74 13 97.5t85 23.5q57 0 71.5 -13.5t22.5 -74.5l2 -27q12 -57 58 -80q18 -6 28 -6h27q37 12 54.5 56.5t12.5 95.5v39l2 20v8l-2 41q4 49 5 78v189q-4 49 -5 73l-4 96l-2 181q-2 23 -4 59.5t0 46.5v86q-2 16 -2 51 v142q0 35 6 55.5t24.5 28.5t30 9t44.5 1q51 0 66.5 -19.5t19.5 -97.5z" glyph-name="J" horiz-adv-x="753" unicode="J"/><glyph d="M393 948l101 105l24 30l53 56l72 69q4 6 14.5 18.5t14.5 18.5l6 10l31 37q37 33 59 62q6 8 31 28q39 35 49 52l74 65q20 18 33.5 26.5t17.5 8.5t28 2q43 4 72 0q90 -4 37 -76l-33 -39l-35 -43l-43 -51l-55 -63l-57 -60l-99 -110l-116 -121q-39 -45 -84 -90l-64 -64 l-30 -35l-7 -6l5 -2l79 -84l295 -311l80 -88l53 -60l25 -26l45 -49q68 -72 84 -99q39 -59 -23 -59h-102q-47 0 -67.5 9t-51.5 42l-24 23l-27 24l-37 35l-22 25q-31 25 -56 55l-47 51l-53 58l-20 26l-101 92l-18 23l-27 31l-10 10l-27 24q-12 12 -32 41q-10 10 -13 15 q0 -268 -6 -516q-2 -47 -21.5 -58.5t-80.5 -11.5q-53 0 -76 17.5t-23 74.5v295q2 10 2 51v80l3 45v53v70v47v64.5t1 41t1 17.5v8l-7 178q0 29 2 37v185q0 10 1.5 45.5t1.5 48.5v16l-5 70q0 63 16.5 78.5t84.5 15.5q41 0 56 -3t26.5 -17.5t15.5 -47t4 -125.5l4 -112 q-6 -119 -2 -158v-63v-62z" glyph-name="K" horiz-adv-x="1234" unicode="K"/><glyph d="M397 1417l-2 -231v-49q-6 -43 -6 -60v-471l2 -102q-2 -29 -2 -80q0 -41 2 -62l-2 -81v-37v-2v-3t1 -8.5t1 -14.5v-21q23 2 90 2h41q45 0 76 -2h12q57 -4 62 -5l219 7q51 0 74.5 -13.5t23.5 -60.5l-2 -57q0 -41 -12 -52.5t-43 -11.5h-90q-20 -2 -62 -2q-49 0 -73 2h-56 q-33 6 -94 -2q-23 -2 -72 -2l-79 2h-19q-16 -2 -100 -2q-61 -2 -81 21.5t-24 82.5q-2 51 -2 211l6 168q2 57 -2 187v84q0 4 -1 15t-1 17q-4 49 -4 68q0 47 2 70q-2 20 -2 65q0 29 2 45q0 23 2 27q0 4 2 10v4l2 313l2 68q0 37 11.5 52.5t48.5 23.5q25 4 63 4q55 0 70.5 -24.5 t15.5 -92.5z" glyph-name="L" horiz-adv-x="1103" unicode="L"/><glyph d="M180 1217l4 215q-2 59 14.5 82.5t69.5 23.5q23 0 39.5 -10t46.5 -47l60 -72l18 -27l57 -73l27 -39l27 -41l28 -45q23 -37 56 -76l53 -74l16 -20l29 -35l37 -57l16 -31l47 -60l15 19l14 14l16 29l31 49l64 84q4 6 14 22.5t14 22.5l15 16q14 20 34.5 47t31.5 43.5t18 28.5 q45 68 47 74q37 43 78 111l73 94q16 25 47 40t62 13q25 -2 39 -5t27.5 -18.5t13.5 -41.5q0 -76 2 -101q4 -39 0 -72v-10l-2 -20v-65.5v-117.5q4 -20 -2 -100v-156q0 -150 -2 -221q-2 -27 -2 -104v-127q0 -10 -1.5 -32.5t-1.5 -37.5q0 -63 3 -100l2 -29v-100q0 -59 -29 -72.5 t-100 -7.5q-47 6 -60.5 29.5t-17.5 89.5v61q-2 20 -2 66l-2 53v336l4 55q2 16 0 39v127q2 45 2 154l-2 102l-54 -76l-51 -80q-45 -78 -55 -90l-31 -35q-12 -20 -38.5 -57t-34.5 -49q-6 -6 -39 -53l-4 -4l-15 -23l-26 -33l-19 -20q-57 -66 -77.5 -64t-45 26t-39.5 46l-16 25 l-21 20l-28 45l-33 41q-25 39 -27 41q-137 182 -163 219q-12 18 -35 56t-29 49l-10 20v-6q0 -29 4 -89t6 -91q4 -102 4 -160v-68q0 -80 2 -104v-139q0 -92 -2 -111v-82q0 -143 6 -209q0 -57 -57 -57h-43q-43 0 -57.5 2t-26.5 21.5t-14 64.5q-4 102 -4 209v84q4 35 4 180 q0 47 -4 121q0 18 -2 43l-3 41q-6 74 -2 90v64q0 84 -4 190q0 25 -4 107z" glyph-name="M" horiz-adv-x="1759" unicode="M"/><glyph d="M442 1368l25 -43q4 -6 19.5 -26.5t21.5 -32.5l57 -92l49 -87l35 -59l8 -12l27 -45l8 -17q39 -72 88 -143l62 -109l26 -36l74 -142l53 -114q-2 66 -10 176l2 131v153q-2 55 -2 164q0 49 -2 78q-4 104 -2 166l6 147q6 68 23.5 86.5t72.5 22.5q74 0 90.5 -18.5t16.5 -65.5 v-8l2 -82q0 -72 -2 -96l-4 -308l2 -51v2q2 -10 2 -55v-262q-2 -23 2 -41v-361q2 -16 2 -53v-55q0 -80 -82 -80q-59 0 -102 61l-64 93l-18 26l-74 109l-98 147l-17 31q-8 16 -47 80l-12 20l-43 78l-21 37l-57 78l-41 80l-16 26l-94 183l-39 81l8 -116q0 -14 4 -52t4 -49 l2 -69l2 -15l-4 -127q0 -20 2 -32v-13l2 -20q2 -29 2 -86v-27l-2 -143q-4 -41 -2 -55l6 -35l4 -53v-48q0 -16 2 -36l2 -11l-2 -59q2 -53 -13 -66.5t-60 -17.5q-2 0 -7.5 -1t-7.5 -1h-28q-43 8 -59.5 24.5t-20.5 53.5q-4 41 -4 96q-2 14 -2 70q-4 53 -4 77l-3 127l-2 158v27 l-4 110q-4 31 0 58v131l-2 53v23q2 29 -2 81q0 8 -1 22.5t-1 18.5v62l2 94l-2 178q0 72 70 72q51 0 79.5 -16.5t53.5 -57.5z" glyph-name="N" horiz-adv-x="1462" unicode="N"/><glyph d="M276 1395q74 70 143.5 106.5t172.5 42.5l55 2h23q6 0 10 -2h10q156 -10 314 -141q127 -123 151 -297q0 -14 4 -31v-20q0 -6 2 -19v-47q4 -25 4 -43l2 -78v-231q0 -49 -4 -70q-2 -8 -2 -20q0 -70 -6 -113q-2 -4 -2 -6q-2 -4 -2 -8q-27 -117 -57 -168q-82 -133 -146 -174 l-108 -49l-43 -17q-55 -16 -160 -24h-41q-86 4 -129 24q-178 82 -272 232q-59 111 -70 276q-2 27 -2 88v74q0 96 -2 147v115q2 14 4 21v28q0 6 2 17v26q2 12 2 25q4 25 4 43q24 172 143 291zM446 270q41 -39 74 -52t90 -19q27 0 37 -2q84 8 115 30l57 29q4 2 10.5 6t8.5 4 l20 21q43 49 80 139q2 4 2 16l6 39q4 41 8 54v2l2 4q8 20 9 55v115q-2 16 -2 49q0 129 -13 272q-10 145 -102 217q-88 84 -191 88h-41q-18 0 -24 -2l-27 -2q-80 -31 -121 -69q-102 -61 -116 -351q-6 -63 -6 -112v-176q-2 -20 -3 -50q4 -47 21 -122q2 -33 6 -39 q51 -97 100 -144z" glyph-name="O" horiz-adv-x="1370" unicode="O"/><glyph d="M397 633v-41q0 -80 11 -182l6 -56q4 -43 4 -145v-137q0 -39 -20.5 -56.5t-92.5 -17.5q-59 2 -80.5 20.5t-21.5 94.5q2 35 2 116q0 94 -6 150q-4 53 -4 182v152v121v210v33v25q-4 37 -5 59v101q0 127 -4 137v37q0 43 3.5 59t21.5 27.5t61 11.5l148 2q25 -2 29 0 q170 0 256 -16q84 -12 180 -82l30 -25q4 -2 12.5 -9t11.5 -9t10 -8.5t10.5 -9.5t9.5 -9t9 -11t8 -11.5t9 -14.5t9 -16q47 -63 59 -191q4 -29 4 -57q0 -35 -4 -63l-4 -17q-29 -123 -129 -223q-45 -47 -126 -86t-145 -39q-59 0 -92 -2q-61 -4 -96 -4h-74zM629 842h26l33 8 q66 33 82 49l21 14l22 27l18 39q4 4 15 47q6 25 6 47q0 49 -21.5 98.5t-44.5 69.5q-55 55 -122 74q-68 16 -222 16h-10h-35q0 -4 1 -10t1 -8v-25q2 -20 2 -78q0 -49 2 -67v-23q4 -53 5 -80q0 -10 -2 -16v-8v-94q-2 -29 -3 -80v-4h113q78 0 113 4z" glyph-name="P" horiz-adv-x="1222" unicode="P"/><glyph d="M592 1544l53 2h23l22 -2q104 -6 171 -41t134 -98q133 -121 158 -299q0 -14 4 -31v-20l4 -25q0 -18 2 -29v-133q4 -14 4 -34l-2 -105q6 -41 6 -92q0 -49 -4 -70q-2 -8 -2 -20v-23q0 -4 -1 -10t-1 -8q-4 -41 -4 -66q-31 -135 -67 -180l-7 -8l-26 -39h2q-16 -31 -49 -63 l14 -15l35 -35q20 -23 -1.5 -63.5t-59 -65t-56.5 -8.5l-76 76l-55 -19q-57 -33 -178 -32h-39q-86 4 -131 24q-188 84 -262 213q-68 133 -78 295q-2 27 -2 88v74q0 100 -2 152v53q0 33 2 43q2 8 2 22q0 2 2 6v58q2 10 2 16v43q4 16 4 29q25 182 146 297q78 68 146.5 102.5 t166.5 40.5zM446 264q39 -35 68 -46t92 -21q20 0 33 -2q72 8 94 16q-6 8 -25.5 30.5t-25.5 30.5l-8 9q-20 41 38 94t89 20l82 -84q23 29 30 47l11 25q4 20 8 31l8 22q20 92 23 131v13q0 2 1 6t1 6v106q-4 33 -4 54q0 131 -9 274q-16 152 -102 219q-92 88 -193 92h-41 q-16 0 -24 -2q-80 -20 -135 -67l-45 -35q-39 -35 -58.5 -88t-21.5 -164v-16q0 -51 -6 -74v-27q0 -2 -1 -5t-1 -5v-8q-2 -12 -2 -45v-176q-2 -20 -3 -50q8 -100 11 -110l16 -51q59 -115 100 -150z" glyph-name="Q" horiz-adv-x="1372" unicode="Q"/><glyph d="M969 752q-45 -49 -111 -78l12 -25q20 -59 41 -82l21 -41q6 -14 24 -51l21 -37l6 -12l6 -10l33 -76q20 -35 29 -55l26 -45l21 -41l14 -27q6 -6 16 -33q27 -49 37 -78q12 -41 -7 -51t-79 -10h-39q-76 0 -92 35l-8 14q-6 12 -6 14l-33 58l-4 12l-12 19l-13 20q-12 18 -16 29 l-10 26l-17 31l-4 18q-12 16 -12 25l-18 31l-74 143l-21 43l-32 70q-23 35 -29 51q-33 0 -45 -4q-12 -2 -41 -2q-23 -2 -74 -2l-69 6h-2q0 -8 -1 -23.5t-1 -21.5q-2 -31 -3 -103q0 -76 7 -127q2 -51 2 -161l2 -80l-2 -45q0 -53 -21.5 -65.5t-89.5 -12.5q-37 -2 -54.5 1 t-29.5 21.5t-12 55.5v125q0 35 -2 55q0 2 -1 7t-1 7v84q-4 49 -4 172v201q-2 4 -2 127l-2 33v8q-6 104 -5 115q4 51 0 94q-2 33 -2 115l2 229q-4 84 62 84h143q53 4 82 4q25 0 62 -4h30l31 -2h51q98 -8 162 -39q57 -14 121 -57q98 -86 151 -234q14 -43 15 -104v-17 q0 -51 -2 -75l-9 -33q-4 -33 -28 -88q-55 -102 -90 -131zM406 836h96q233 0 317 55l23 27l6 14l14 24l6 15q20 43 21 100v31q-4 23 -17 53q-31 53 -79 107q-94 68 -279 67h-117v-10l-2 -6v-10q-4 -119 -2 -152q0 -27 4 -76v-26q0 -18 4 -23q6 -82 5 -145v-20.5v-16.5v-8z " glyph-name="R" horiz-adv-x="1304" unicode="R"/><glyph d="M920 1204l-15 -16q-51 -66 -102 -23l-17 15l-20 26l-29 33q-23 20 -47 47q-33 25 -51 31l-29 8q-8 4 -61 4q-55 0 -121 -35q-35 -23 -67.5 -62.5t-41.5 -72.5q-8 -16 4.5 -52t28.5 -60q129 -111 234 -142q18 -10 93 -54t107 -65l37 -28q92 -78 129 -201q18 -72 21 -133 q10 -178 -86 -281q-47 -47 -79 -72.5t-93.5 -52t-136.5 -32.5q-37 -2 -120 15t-112 40q-14 4 -92 55q-4 0 -10 6l-82 72l-43 49q-45 57 12 121q63 72 115 29l45 -33l28 -27l33 -26q6 -4 20.5 -15.5t20.5 -17.5l29 -16l14 -5q41 -20 66 -20q41 -12 104 6l23 8q2 0 8 2l20 4 q43 23 56 35q47 41 53 92v74q-6 57 -53 123q-12 18 -49 39l-35 25l-21 16l-33 25l3 -3q-2 0 -6.5 4.5l-6.5 6.5q-23 20 -37 24l-34 17l-39 18q-25 10 -39 21q-47 18 -62 30q-156 84 -211 203q-25 49 -32 107q-8 141 41 217q25 45 89 103t130 97q84 41 209 37q90 -2 192 -65 l19 -13q88 -90 112 -127q37 -51 37 -77q0 -17 -20 -58z" glyph-name="S" horiz-adv-x="1171" unicode="S"/><glyph d="M897 1536l39 -2q35 -2 46 -24.5t15 -84.5q0 -90 -65 -90h-129q-57 0 -88 -2q-16 -2 -68 -2v-53q2 -14 2 -45v-57q-4 -29 0 -50q0 -80 -2 -114q0 -61 -4 -94v-48q-2 -33 -2 -67q0 -14 4 -68v-51q4 -41 2 -47q-2 -53 2 -170l2 -49v-105q0 -88 2 -123v-28l2 -8l2 -68 q0 -55 -17 -71.5t-87 -14.5q-37 2 -55.5 5t-32.5 18.5t-14 46.5l-2 112q-2 14 -3 70q0 106 3 137q-2 14 -3 45v58q0 90 -2 124v54q0 37 -4 65l-2 201v20q0 14 2 19v20q4 20 4 49q0 23 -2 41q-2 33 -2 107v29l-2 108q-18 0 -22 2q-4 0 -11.5 1t-9.5 1h-8l-63 -4h-170 q-57 0 -75 16.5t-18 81.5q0 63 13.5 83t70.5 22h179q12 0 42.5 1t51.5 1q61 0 96 2q53 4 84 0q49 -4 111 -4q84 0 120 4h68z" glyph-name="T" horiz-adv-x="1132" unicode="T"/><glyph d="M369 1448v-121q0 -96 -4 -184v-129l4 -213v-123q-4 -74 -4 -125q0 -80 12 -150q33 -102 80 -127q37 -35 93 -57t99 -22q10 0 78 10l16 4l13 2l35 10q23 6 59 27q31 25 41 43q35 57 39 74l10 34l6 21q18 76 19 170v57q0 53 2 86v19q4 33 4 49v35q0 102 -4 149q-2 27 -2 78 v207q0 25 4 45v17.5v23.5v16q0 8 1 29.5t1 28.5q0 68 21.5 85t78.5 17q59 0 79.5 -15.5t20.5 -82.5v-103q0 -2 -1 -8t-1 -10v-62v-30q-2 -29 -2 -78q0 -55 2 -80l2 -213v-104q-2 -37 -2 -125v-97q0 -55 -8 -120q0 -2 -2 -9v-8l-16 -49q-47 -150 -103 -205 q-154 -145 -374 -147q-98 0 -172 22q-123 39 -207 136.5t-119 228.5q-18 74 -18 184q0 2 1 6t1 8v127q0 78 6 136q0 35 -2 36q-4 41 -4 95v51q-4 45 0 90v18q0 10 2 17v139q4 86 2 141q-2 72 22.5 91.5t83.5 19.5q70 0 88.5 -16.5t18.5 -69.5z" glyph-name="U" horiz-adv-x="1411" unicode="U"/><glyph d="M1288 1386l-24 -47l-9 -16q-23 -43 -55 -129l-10 -23q-6 -12 -8 -20l-29 -82l-18 -37l-19 -37q-8 -33 -16 -49l-6 -14l-23 -49l-16 -35l-41 -96l-27 -60l-18 -37l-13 -32l-16 -45l-39 -103l-2 -8q-2 -8 -6 -14q0 -2 -4 -15l-6 -10q-6 -23 -23 -61l-14 -27l-25 -64l-4 -14 q-4 -8 -4 -12l-14 -39l-25 -59l-33 -74q-2 -2 -4 -8l-22 -41q-23 -37 -66 -35q-18 -2 -29.5 10t-35.5 57l-43 93l-25 53l-4 14q-8 20 -8 23l-17 32l-12 39l-10 33q-6 6 -6 10l-4 11l-21 43l-28 69l-5 15l-6 14q-27 55 -94 231l-4 17q-45 127 -64 166l-14 43l-18 51 q-27 39 -47 108l-13 37l-32 72l-11 25q-4 8 -8 19t-8 23.5t-6 14.5q-2 4 -2 6l-11 29l-6 20l-12 27l-27 59q-18 33 -0.5 55.5t86.5 22.5q57 0 85 -12.5t44 -55.5q20 -35 23 -38l6 -15l33 -59l35 -94l16 -66l12 -27l19 -51q4 -14 12 -22l37 -76l78 -195l41 -116l6 -19l18 -41 l15 -37l10 -20l22 -74l9 -20l32 -92l2 -11q0 4 1.5 9.5t1.5 7.5l16 53l20 63l25 74l14 41l8 16q12 23 17 37l51 123l18 53l31 72l21 49q53 106 65 156l53 119q2 6 9.5 23.5t9.5 19.5q23 35 37 75l20 50l25 43q12 29 28.5 41t53.5 16h45h33t29.5 -2t22.5 -9t10 -19.5 t-3 -32.5q-10 -42 -33 -87z" glyph-name="V" horiz-adv-x="1413" unicode="V"/><glyph d="M2087 1386l-21 -49l-18 -59l-20 -47l-21 -45l-25 -62l-45 -100l-22 -72l-33 -67l-29 -84q-2 -4 -8 -23q-10 -37 -24 -61l-19 -41l-6 -17l-70 -178l-10 -35l-6 -22l-8 -18l-29 -72l-31 -92l-57 -158q-23 -49 -22 -51q-14 -29 -23.5 -36t-30.5 -7q-41 0 -63 45l-35 69 l-6 15q-4 10 -12.5 29.5t-12.5 27.5l-26 74l-11 29q-4 8 -10 25.5t-6 19.5q-4 12 -14 34q-27 55 -45 107l-17 35q-68 152 -96 241l-4 17l-25 69l-10 19q-18 43 -26 65l-21 54l-6 18l-6 -22l-23 -76l-33 -84l-10 -27l-30 -76q-12 -25 -17 -45l-63 -186q-4 -12 -52 -131 l-28 -88q-8 -29 -17 -45q-8 -14 -14 -39l-33 -74l-18 -35q-29 -53 -43 -59q-6 -2 -17 -4q-35 -6 -63 51q-2 6 -51 104q-6 12 -37 86q-20 41 -27 58l-12 35l-10 20l-29 68l-16 53l-31 80q-31 59 -66 158l-12 34l-29 74l-10 25q-2 4 -5 11t-3 9l-18 49l-11 33l-18 51l-29 72 l-4 20l-10 45l-43 97l-10 32l-17 50q-8 8 -10 26l-14 35l-8 21l-17 47l-2 10v-2q-20 35 -0.5 62.5t100.5 27.5h23q33 2 51.5 -5t28.5 -40l33 -72l4 -16l10 -29l14 -35q8 -31 13 -34l10 -27l14 -43q8 -45 29 -88l37 -92l16 -49l31 -84l20 -46l60 -149q4 -10 8 -23.5t7 -25.5 t5 -17l6 -20l15 -39l6 -12q18 -47 28 -76l25 -72l10 -37l35 140l31 84l6 14l12 31q0 2 2 8l2 6l9 21l34 98q0 2 7.5 18.5t9.5 20.5l6 14l10 21l8 28q8 14 11 27l8 33l24 57l15 45l16 47l49 117q8 8 12 33l-14 43l-8 24l-8 25l-19 53l-12 41q-18 51 3.5 69.5t88.5 14.5 q35 -2 51.5 -5t31.5 -14.5t24 -33.5l41 -82l28 -82q8 -20 23 -49q2 -4 6 -17.5t6 -17.5q0 -14 6 -21l6 -18q6 -25 25 -72l4 -18l8 -21l121 -290l14 -37l5 -21l4 -12l4 -14q10 -49 28 -82l13 -23l10 -28q0 -6 6 -13l6 -16l37 -123l6 16l25 86l45 134l53 147q0 2 7 18.5 t9 20.5l9 14q2 2 6 12.5t7 17.5t3 11l19 41l10 37l35 86l12 29l8 22l18 47l41 103l54 125l41 82q25 61 118 61q68 0 85.5 -16.5t9.5 -46.5q-2 -6 -14.5 -40.5t-16.5 -46.5z" glyph-name="W" horiz-adv-x="2291" unicode="W"/><glyph d="M604 522l-35 62l-37 -70q-10 -16 -20 -43l-18 -27l-7 -8l-16 -30l-10 -21l-17 -27l-41 -59l-36 -59l-76 -123l-19 -35q-2 -4 -12 -16.5t-14 -20.5q-33 -45 -99 -45h-75q-35 0 -51.5 11.5t-6.5 43.5l27 43l2 4q2 4 2 7q18 33 25 41q16 33 24 47l2 4q2 4 2 6l21 31l67 116 l13 21l51 78l43 75l39 60l41 53q0 6 6 12l6 17l21 37l43 71l-46 82l-24 43l-29 53l-33 66l-47 68l-53 104l-22 37l-25 51q-6 8 -20.5 41t-24.5 51l-10 25l-6 14q-2 4 -15.5 28.5t-17.5 37.5q-12 31 6 44t61 13l72 -2q63 0 94 -76l35 -59l25 -45l100 -189q0 -4 35 -71l43 -74 l24 -47l52 106q55 111 63 119l4 8q4 4 4 8l27 56l22 37q49 88 64 120l2 5l4 8t2 6l10 18l23 31q25 37 70 39q27 2 53 1t46.5 -5t31 -17.5t2.5 -35.5l-41 -91l-11 -18l-12 -27q-12 -25 -26 -57q-4 -12 -14.5 -31.5t-12.5 -25.5q-6 -14 -20.5 -38t-18.5 -34l-29 -51l-26 -47 l-25 -47l-37 -66q-2 -6 -15 -28.5t-18 -32.5l-18 -29l-18 -33l-25 -43l35 -51l57 -92l23 -33q8 -12 35.5 -55t42.5 -66l69 -119q4 -2 51 -86q2 -4 10.5 -18t12.5 -18l24 -43q35 -51 70 -119l10 -25q27 -47 -51 -53q-20 -2 -82 -2q-70 4 -92 41l-45 80l-23 26l-32 56l-23 35 l-26 43l-25 36l-29 56l-10 16l2 -2l-12 18q-4 4 -12.5 17.5t-12.5 17.5l-16 29l-8 10z" glyph-name="X" horiz-adv-x="1220" unicode="X"/><glyph d="M209 1487l53 -84l35 -55l4 -9l8 -12l41 -65l21 -35l57 -109l14 -24l29 -41l25 -35l43 -78q2 -2 20 -35l12 -22l15 -31l16 -18l19 -31q6 12 18 34.5t18 32.5l15 27l20 35l51 76l78 118l31 60l18 28l29 37q4 6 12.5 20.5t12.5 20.5l51 92l37 66l30 51q12 31 93 35 q84 2 101 -18.5t-7 -67.5l-74 -154q-29 -45 -35 -61l-14 -25l-21 -39l-12 -24l-20 -35q-59 -88 -80 -115q-6 -10 -23.5 -37.5t-25.5 -39.5l-41 -72q-33 -59 -43 -82l-60 -92l-55 -76v-88q0 -18 2 -43v-31l2 -102l2 -17v-69q-2 -39 -2 -168q2 -49 -20.5 -64.5t-73.5 -15.5 q-66 0 -86.5 20.5t-20.5 71.5v131q-4 70 -4 113v16q-2 6 -2 15q-4 43 0 71q4 14 0 49q-4 25 -4 45v58q-12 18 -26.5 37.5t-20.5 29.5l-8 11l-33 57l-14 29l-54 80l-12 20l-53 98q-51 94 -98 152l-97 178l-16 27l-35 73q-31 45 -47 107q-8 31 18.5 40t90.5 7q41 0 60.5 -11 t35.5 -38z" glyph-name="Y" horiz-adv-x="1329" unicode="Y"/><glyph d="M950 1526q12 -2 29.5 -3t26 -2t20.5 -3t17.5 -5.5t11.5 -8.5t8 -12t2 -17q0 -41 -10 -66l-47 -106l-17 -33l-20 -37l-27 -41l-47 -70q-18 -37 -72 -121l-20 -34l-31 -43l-29 -45l-10 -17l-96 -162l-25 -53l-20 -33l-27 -43l-51 -92l-10 -16l-37 -68l-16 -24l-29 -41 l-43 -66l-47 -65h69l50 -4q70 6 100 2h18.5t34 1t27.5 1h112q4 0 7.5 1t5.5 1l98 -2q2 0 9 -1t19.5 -1h22.5h56q25 -2 41 -13q23 -16 22 -67q0 -39 -13.5 -74t-35.5 -37q-20 -2 -115 -2q-49 2 -104 2q-57 0 -73.5 -4t-84.5 -4q-106 0 -160 4q-18 -2 -51 -2l-82 2 q-55 0 -57 -2h-29q-20 -2 -55 0t-45 2h-8q-74 0 -86 14q-10 10 -11 27q0 31 35 86l58 96l30 56q147 223 148 233l28 43l27 43l59 102l70 113l59 92q4 10 20.5 42t22.5 42l72 111l43 55l10 21l39 67q6 6 13 19l10 22l10 17l23 26l-218 -6q-14 2 -26 2q-20 2 -41 2 q-74 2 -156 2h-108l-92 -2q-29 -2 -41.5 23.5t-14.5 62.5v37q0 35 13.5 52.5t60.5 23.5l25 4q66 4 108 4h162q61 -4 65 -4h99l39 -2h155q29 0 64 -2h63z" glyph-name="Z" horiz-adv-x="1206" unicode="Z"/><glyph d="M403 1524h-30v-54l2 -317q-6 -141 -6 -588l-2 -76v-405q2 -14 2 -66h69q80 0 97 -2q27 -4 33.5 -65.5t-7.5 -89.5q0 -4 -3 -10.5t-20.5 -13.5t-43.5 -7h-250q-29 -2 -52.5 15.5t-25.5 54.5v442q-2 14 -2 41q0 49 2 72q0 57 2 65v29l-2 35v61q0 268 2 346v19l2 12v57 l-2 45l4 86q4 25 2 37q-4 61 -4 262v133q0 41 15.5 57.5t64.5 16.5h233q33 0 56 -6q31 -10 30 -92v-8q0 -41 -10 -60.5t-41 -19.5l-67 -2q-2 0 -7.5 -1t-17 -2t-23.5 -1z" glyph-name="bracketleft" horiz-adv-x="581" unicode="["/><glyph d="M74 1319l-8 24q-25 76 -31 134q-4 33 3 49t36 30q6 0 10 5q2 0 6 2q37 12 45 14q23 6 46.5 -7.5t27.5 -29.5q0 -4 6 -16l25 -68l4 -22l12 -43l16 -52l35 -120q8 -35 29 -86l12 -52l14 -34l74 -226l25 -96l8 -27l14 -47q0 -2 2 -7t4.5 -9t2.5 -6l4 -13l14 -45l16 -49 l11 -33l90 -272l49 -145q12 -31 -12.5 -66t-55.5 -45q-18 -6 -22 -6l-17 -6q-41 -16 -69 26l-25 68q-6 29 -12 41q-4 8 -4 12l-4 10v-2l-6 19l-13 39l-55 164l-14 34l-23 62l-39 147l-6 27l-51 154q-16 53 -27 79l-33 95l-28 102l-4 18l-6 33l-21 82q-4 12 -14.5 39 t-14.5 41l-20 57z" glyph-name="backslash" horiz-adv-x="780" unicode="\"/><glyph d="M164 1524h-31h-47l-68 2q-31 0 -41 20.5t-10 63.5v8q0 82 31 92q23 6 55 6h234q49 0 64.5 -16.5t15.5 -57.5v-133q0 -201 -5 -262q-2 -12 3 -37l4 -86l-2 -45v-57l2 -12v-19q2 -78 2 -346v-61l-2 -35v-29q2 -8 2 -65q2 -23 2 -72q0 -27 -2 -41v-442q-2 -37 -25.5 -54.5 t-52.5 -15.5h-250q-27 0 -44 7t-20.5 13.5t-3.5 10.5q-14 29 -7 90t34 65l96 2h70q0 51 2 66v405l-2 76q0 446 -6 588l2 317v54z" glyph-name="bracketright" horiz-adv-x="583" unicode="]"/><glyph d="M498 1714l-37 41q-27 -33 -53 -55l-13 -12q-12 -12 -30 -33l-17 -21l-20 -22l-11 -8q-23 -23 -41 -23q-31 0 -65 41q-43 47 -12 88l55 66l16 12q12 8 31 33l72 75l12 13q47 47 75.5 47t78.5 -49l16 -17q23 -23 29 -30q14 -16 30 -31l48 -45l30 -35l15 -14l24 -27 q12 -20 4 -47q-10 -31 -33 -53q-25 -25 -45 -27t-29.5 4t-25.5 23l-35 39l-30 30z" glyph-name="asciicircum" horiz-adv-x="1011" unicode="^"/><glyph d="M215 -168q-117 -2 -144.5 18.5t-19.5 100.5q10 49 28.5 63.5t82.5 16.5h354q221 0 379 6q131 0 156 -2l12 -4h18h129q86 0 108.5 -15.5t22.5 -87.5q0 -63 -22.5 -78.5t-99.5 -15.5q-23 2 -45 2q-33 0 -48 -2h-18l-16 -2q-31 0 -72 4q-55 2 -176 2l-350 -2q-16 0 -39 -4 h-17l-59 2z" glyph-name="underscore" horiz-adv-x="1482" unicode="_"/><glyph d="M223 1919l10 -6l33 -19l29 -18l6 -4l10 -6q6 -6 13 -6q29 -18 43 -25q61 -29 82 -39q8 -4 31.5 -19.5t37.5 -23.5q33 -20 8 -90q-23 -66 -96 -37l-31 10q-2 0 -13 5.5l-19 9.5q-6 4 -19.5 10t-15.5 6l-13 6l-24 13l-12 8l-17 6l-22 12l-49 31q-16 6 -21 10 q-16 8 -50 31.5t-50 32.5q-37 29 -27 65q6 12 27 45q33 45 76 29l51 -23z" glyph-name="grave" horiz-adv-x="630" unicode="`"/><glyph d="M541 1386l8 23l26 45q43 82 89 82q35 0 65.5 -49t89.5 -201l72 -199l6 -12l21 -69l24 -74l12 -31l15 -41l86 -256l20 -65l17 -47l14 -46q0 -2 6 -17t17.5 -43t17.5 -44q37 -92 39 -98l6 -29l2 -12l16 -33l7 -18l16 -54q20 -51 5 -76.5t-75 -23.5q-6 0 -18 1t-19 1l-8 2 q-80 0 -92 72q-4 23 -22 45l-7 14q-2 4 -2 6l-14 39q-18 37 -20 43q-6 12 -7 19l-6 14l-10 41q0 2 -2 6l-23 55q-4 4 -4 9q-27 68 -37 110q0 2 -14 31l-8 12h-313q-72 0 -91 -2h3l-25 -2l-2 -4l-6 -16q-2 -2 -2 -9q-18 -61 -47 -110v2q-4 -14 -9 -19q-8 -10 -24 -51l-12 -31 q-2 -4 -16.5 -35.5t-18.5 -45.5l-13 -27q-4 -4 -4 -8l-10 -29l-41 -74q-20 -35 -40.5 -46t-61.5 -11l-66 2q-39 6 -49 22.5t6 65.5l12 31l7 14l12 27l6 12l6 16q0 2 2 7.5t2 7.5l19 35v-2q16 33 20 47q4 6 17 34l4 15l32 78l23 45l29 69l30 78l29 76l6 14q25 74 37 99l16 43 l43 90l13 28q2 2 6 17.5t10 33t12 27.5q8 23 23 43q2 4 5 14.5t5 14.5l8 20l15 39l8 21q0 14 29 86l6 20q6 14 6 17l18 43q2 6 8.5 18t8.5 18zM668 1124l-13 43l-6 -28l-10 -31q0 -16 -8 -29l-23 -67l-18 -56l-19 -47l-16 -32q-20 -47 -27 -74q-2 -4 -2 -8l-26 -64h127 q82 0 159 2l-20 60q-4 4 -4 14l-23 72l-18 53l-10 33l-6 18z" glyph-name="a" unicode="a"/><glyph d="M987 848q-68 -41 -121 -55q109 -20 197 -93q39 -39 64.5 -111.5t25.5 -142.5q0 -45 -8 -77q-29 -143 -146 -252l-45 -29l-12 -8h2l-24 -14q-98 -47 -205 -58q-76 -6 -326 -6l-51 -2l-74 -2q-47 0 -60.5 18.5t-13.5 71.5l3 154q0 113 -3 131l-2 30v17l-4 96q0 39 4 92 q0 6 1 19.5t1 15.5v43q0 10 3 16v39q4 45 4 66q2 37 -2 121v20l-2 4v6v37q-2 29 -3 86v78q0 70 3 94q6 143 2 177q-2 63 18 85.5t94 20.5h37q25 2 76 2h104q98 0 148 -8q2 0 6 -1t6 -1q4 -2 8 -2q10 0 27 -4q12 -4 14 -4l47 -17l43 -16q55 -16 99 -41q35 -33 84 -86 q2 -4 10 -12l33 -50l6 -8q45 -59 47 -180q6 -123 -60 -207zM854 268l18 21q8 8 23 41q29 41 37 78v6q0 23 2 28v56l-2 12q0 4 -4 16.5t-15.5 32t-27.5 29.5l-39 28q-100 45 -187 56q-43 2 -127 2h-86l-57 -2v-13q0 -35 2 -57v-6q0 -2 1 -5t1 -5v-11l2 -24q4 -41 4 -68 l-2 -37v-28q-2 -20 -2 -56l-2 -172q39 0 51 -2h41l58 -2q147 0 311 82zM578 872h4q90 4 192 50l10 6l27 16q31 14 60.5 72.5t25.5 93.5q0 27 -12 59l-11 17v-2l-22 33h2l-45 45q-37 33 -90 49q-102 33 -213 26h-111v-98q0 -117 6 -176v-174v-19h97q55 0 80 2z" glyph-name="b" horiz-adv-x="1310" unicode="b"/><glyph d="M1108 1282l-14 -12q-23 -29 -36.5 -33t-62.5 10l-37 19q-8 8 -22 14l-43 29l-43 16q-53 14 -94 14l-37 -2q-25 -4 -45 -4q-88 -20 -176 -80q-51 -53 -131 -170l2 2q-70 -143 -82 -305v-26q-4 -43 -2 -52q4 -78 30 -190q47 -115 64 -143l24 -25q37 -43 64 -68l29 -20 q8 -8 19 -14t20 -9l8 -2l45 -12q8 -4 26 -4l25 -2q35 -14 162 -14h16l55 14q8 4 27 14.5t23 12.5l26 12q8 6 41 29l19 10q66 37 114 -45q41 -74 13 -94l-60 -52q-47 -41 -108 -71l-11 -4h2q-80 -31 -145 -31q-31 0 -49 -2q-45 -4 -78 -2q-178 27 -313 90q-68 41 -197 213 q-57 96 -86 301v-2q-8 33 -8 110q0 121 10 172v-2q39 281 144 412l30 33l6 6l11 14q6 6 18 25q39 43 68 59h-2l14 10.5t10 6.5t6 4l41 33l25 14q104 53 211 57q4 0 12 2l74 2q111 -2 188 -41l101 -53q51 -37 86 -76q26 -28 -27 -98z" glyph-name="c" horiz-adv-x="1290" unicode="c"/><glyph d="M190 90v119q0 109 5 309v590l4 143v88l2 72l2 70q-2 27 15.5 41t53.5 14h78q137 0 271 -18q236 -39 405 -209l18 -25l48 -51q63 -88 104 -240l6 -24l6 -35q16 -61 17 -148q4 -39 -4 -110l-7 -78l-18 -74q-2 -25 -27 -78l-18 -38l-8 -17l-8 -14l-21 -39l-18 -21l-25 -36 l-20 -25q-25 -45 -66 -70q-199 -150 -367 -176q-86 -12 -237 -12q-6 2 -42 2t-52 -2q-66 4 -81.5 17.5t-15.5 74.5zM532 197q90 0 152 41l64 34l81 60l29 22q31 27 62 68l16 20l18 43q31 53 52 152q10 41 10 96q0 10 2 17v45q0 2 -1 9t-1 13q0 4 -1 12.5t-1 14.5 q-27 115 -41 149l-25 54l-28 45l-41 57l-15 18l-20 29q-33 25 -41 35q-18 18 -41 31l-57 26l-52 12l-35 11l-28 10q-14 4 -59.5 7t-51.5 1l-73 -2v-104l-3 -31v-109q-4 -45 -4 -67q0 -57 2 -82v-193q0 -82 -4 -245v-303z" glyph-name="d" horiz-adv-x="1388" unicode="d"/><glyph d="M893 1534q66 -2 81 -13.5t23 -72.5l-2 -33q0 -84 -116 -78h-9q-68 0 -108 -2q-25 -2 -84 -2q-27 0 -45 -2l-217 -2h-6h-8.5h-10.5q0 -59 4 -96q4 -74 4 -113q0 -37 -4 -82l-2 -4v-8q-6 -92 -2 -121h148q29 -4 36 -4q33 0 70 4l133 -6q33 0 49.5 -13.5t19.5 -27.5t3 -41 q2 -35 -1 -54.5t-16.5 -27.5t-22.5 -9t-38 -1h-18q-92 -8 -142 -4h-75q-23 -2 -72 -2l-64 2h-8v-119q2 -16 -2 -65v-23l-2 -49q-2 -23 4 -84q2 -35 2 -115l-2 -57v-4q41 -4 123 -4q8 0 25.5 -1t27.5 -1q49 -4 99 0h127l73 -4q6 0 15.5 -1t11.5 -1q33 -2 43 -3.5t23.5 -9.5 t15.5 -21.5t6 -41.5q2 -68 -5 -84.5t-44 -28.5q-6 0 -10 -2q-16 -2 -170 2h-195q-104 0 -190 -4h-101q-55 0 -71.5 23.5t-16.5 80.5v35q2 63 2 187v217q0 61 -2 92l-2 113l4 126q0 94 -2 144v90l2 43q0 39 -2 57q-2 29 -2 103q0 98 2 135v8q2 29 5 43t24.5 26.5t62.5 12.5 q123 0 170 -2q121 -4 138 -2q61 4 174 4z" glyph-name="e" horiz-adv-x="1157" unicode="e"/><glyph d="M281 1536q236 0 442 -6h80l16 -2q27 2 94 2q45 -4 59.5 -23.5t18.5 -81.5q0 -59 -14 -75.5t-62 -18.5l-106 -2q-106 4 -168 4q-57 0 -82 -2q-41 -6 -121 0h-43v-258q0 -92 2 -164h47l105 -2h14l4 -2h8l46 2q12 -2 14 0h70q6 0 15 -1t13 -1q35 -2 47.5 -4t22.5 -17.5 t12 -49.5v-15q0 -63 -15.5 -78.5t-82.5 -23.5h-58h-32l-27 -2l-94 2h-105v-35q0 -41 5 -102v-144q0 -55 2 -82q4 -49 4 -75v-70q0 -18 2 -45q0 -35 6 -53q8 -41 3 -62.5t-21.5 -31t-67.5 -19.5l-53 2q-29 -6 -45.5 7t-20.5 26.5t-6 42.5v10l-10 154q0 18 -4 47q-2 16 -2 61 v45q4 43 2 60v26l2 17l-2 88v59q-4 41 -5 141l-4 146q-8 201 -8 327v58q0 4 1 19.5t1 43v60.5q-2 51 16.5 74.5t84.5 23.5z" glyph-name="f" horiz-adv-x="1118" unicode="f"/><glyph d="M1079 1290q-27 -59 -80 -59q-20 0 -45 20q-2 0 -8 5.5t-10 7.5l-25 14l-28 16l-54 21l-16 4q-47 16 -104 16q-27 0 -45 -4q-117 -23 -203 -117q-2 -4 -39 -49l-14 -22q-68 -94 -82 -152q-25 -123 -33 -241q-10 -166 57 -308l21 -39l20 -30h-2l14 -15q63 -63 91 -84 q92 -49 133 -61l20 -8q14 -4 88 -4q76 0 154 47l14 10l12 8l5 4v148q0 49 -2 51l-3 70v34q0 12 1.5 33t1.5 33q4 59 0 117v37q0 63 16 80.5t88 15.5q51 -2 66.5 -20.5t21.5 -63.5q2 -14 2 -113v-117q4 -94 4 -141q0 -31 -4 -72q0 -16 2 -61t2 -63q0 -31 -4 -48 q-14 -45 -84 -94l-14 -14q-139 -96 -293 -92h-43q-29 0 -43 6q-78 10 -117 29l-10 2q-25 6 -43 14q-41 16 -75 36.5t-49 34t-58 50.5q-94 102 -117 184q-25 35 -33 72l-18 49q-25 113 -25 244q0 113 10 176v20l6 60q12 86 41 137q33 76 88.5 162t98.5 123l14 10l17 14 q6 4 38.5 27.5t47.5 32.5q139 74 254 71q145 -2 233 -49q119 -72 141 -100q33 -48 0 -105z" glyph-name="g" horiz-adv-x="1333" unicode="g"/><glyph d="M295 1534h20q41 -6 53.5 -9t25 -19.5t12.5 -51.5v-39q0 -2 1 -10t1 -10v-17q0 -4 -1 -13t-1 -15l-3 -47v-80q-2 -63 -2 -148q0 -61 -2 -102q0 -2 -1 -12.5t-1 -14.5v-59h256q20 0 59.5 1t51.5 1q25 -2 55 -2q33 0 60 4h20l19 2q0 72 -3 74q0 61 7 141q0 147 -2 149l-2 60 l4 137q4 53 24.5 68.5t89.5 13.5q53 -2 68.5 -19.5t15.5 -58.5v-186q0 -90 2 -133v-131l2 -15q0 -295 2 -411v-195q0 -76 7 -164v-149q2 -35 -12.5 -52.5t-69.5 -21.5l-37 -2q-84 0 -86 53v113l-2 65l-4 177q0 131 -7 264v12q-8 0 -28 4q-51 4 -66 2h-6q-4 -2 -8 -2h-23 q-125 -6 -147 -2q-63 0 -92 2h-35q-4 0 -12.5 -1t-10.5 -1q-20 -4 -34 -4h-58q-2 -27 2 -57v-97l2 -100q-2 -23 -2 -74q0 -57 2 -104q0 -133 2 -164q2 -45 -15 -66.5t-42 -20.5t-47 1h-16q-84 0 -86 65v87l-5 53q0 80 -2 125q-2 23 -2 123q-4 33 0 67q0 55 2 64v338 q0 41 2 57v65q-2 14 -2 43q0 59 2 89q2 18 3 49l2 49q2 16 2 39q2 18 2 86v33q0 66 14 85t82 19z" glyph-name="h" horiz-adv-x="1404" unicode="h"/><glyph d="M375 1446v-6q2 -45 -2 -117q-2 -14 -2 -53q0 -41 -2 -62v-20q0 -2 2 -60q4 -106 4 -344v-385q0 -6 2 -16v-12q6 -37 2 -58q0 -31 -2 -39v-18q4 -18 4 -55l2 -19q2 -12 2 -37v-28q2 -33 1 -55.5t-10 -37t-30.5 -20.5t-60.5 -6t-60.5 6t-31 25.5t-11.5 37t-2 60.5l-2 8v60 q-4 51 -4 170v75q2 39 2 119q0 98 -2 148v90q0 14 -1 44.5t-1 47.5v24q0 10 1 30t1 26v96q-2 14 -2 51q0 57 -2 90v54q0 27 2 38q0 6 1 15.5t1 11.5v127q0 55 23.5 71.5t78.5 12.5q68 -6 83.5 -18.5t15.5 -71.5z" glyph-name="i" horiz-adv-x="583" unicode="i"/><glyph d="M539 1417q-2 -18 2 -65q2 -16 2 -47v-35q0 -37 2 -64l2 -22v-45q2 -18 2 -66l2 -18v-140l2 -79q0 -154 4 -201q2 -27 2 -92v-84q0 -59 -4 -82v-6q0 -14 -2 -23q-2 -4 -2 -33q0 -27 -2 -39q0 -47 -2 -53q-2 -31 -12 -55q-10 -70 -74 -129q-23 -20 -103 -43q-33 -8 -90 -8 q-100 0 -153 32q-68 55 -99 115l-10 25q-18 51 -20 98q-4 74 13 97.5t85 23.5q57 0 71.5 -13.5t22.5 -74.5l2 -27q12 -57 58 -80q18 -6 28 -6h27q37 12 54.5 56.5t12.5 95.5v39l2 20v8l-2 41q4 49 5 78v189q-4 49 -5 73l-4 96l-2 181q-2 23 -4 59.5t0 46.5v86q-2 16 -2 51 v142q0 35 6 55.5t24.5 28.5t30 9t44.5 1q51 0 66.5 -19.5t19.5 -97.5z" glyph-name="j" horiz-adv-x="753" unicode="j"/><glyph d="M393 948l101 105l24 30l53 56l72 69q4 6 14.5 18.5t14.5 18.5l6 10l31 37q37 33 59 62q6 8 31 28q39 35 49 52l74 65q20 18 33.5 26.5t17.5 8.5t28 2q43 4 72 0q90 -4 37 -76l-33 -39l-35 -43l-43 -51l-55 -63l-57 -60l-99 -110l-116 -121q-39 -45 -84 -90l-64 -64 l-30 -35l-7 -6l5 -2l79 -84l295 -311l80 -88l53 -60l25 -26l45 -49q68 -72 84 -99q39 -59 -23 -59h-102q-47 0 -67.5 9t-51.5 42l-24 23l-27 24l-37 35l-22 25q-31 25 -56 55l-47 51l-53 58l-20 26l-101 92l-18 23l-27 31l-10 10l-27 24q-12 12 -32 41q-10 10 -13 15 q0 -268 -6 -516q-2 -47 -21.5 -58.5t-80.5 -11.5q-53 0 -76 17.5t-23 74.5v295q2 10 2 51v80l3 45v53v70v47v64.5t1 41t1 17.5v8l-7 178q0 29 2 37v185q0 10 1.5 45.5t1.5 48.5v16l-5 70q0 63 16.5 78.5t84.5 15.5q41 0 56 -3t26.5 -17.5t15.5 -47t4 -125.5l4 -112 q-6 -119 -2 -158v-63v-62z" glyph-name="k" horiz-adv-x="1234" unicode="k"/><glyph d="M397 1417l-2 -231v-49q-6 -43 -6 -60v-471l2 -102q-2 -29 -2 -80q0 -41 2 -62l-2 -81v-37v-2v-3t1 -8.5t1 -14.5v-21q23 2 90 2h41q45 0 76 -2h12q57 -4 62 -5l219 7q51 0 74.5 -13.5t23.5 -60.5l-2 -57q0 -41 -12 -52.5t-43 -11.5h-90q-20 -2 -62 -2q-49 0 -73 2h-56 q-33 6 -94 -2q-23 -2 -72 -2l-79 2h-19q-16 -2 -100 -2q-61 -2 -81 21.5t-24 82.5q-2 51 -2 211l6 168q2 57 -2 187v84q0 4 -1 15t-1 17q-4 49 -4 68q0 47 2 70q-2 20 -2 65q0 29 2 45q0 23 2 27q0 4 2 10v4l2 313l2 68q0 37 11.5 52.5t48.5 23.5q25 4 63 4q55 0 70.5 -24.5 t15.5 -92.5z" glyph-name="l" horiz-adv-x="1103" unicode="l"/><glyph d="M180 1217l4 215q-2 59 14.5 82.5t69.5 23.5q23 0 39.5 -10t46.5 -47l60 -72l18 -27l57 -73l27 -39l27 -41l28 -45q23 -37 56 -76l53 -74l16 -20l29 -35l37 -57l16 -31l47 -60l15 19l14 14l16 29l31 49l64 84q4 6 14 22.5t14 22.5l15 16q14 20 34.5 47t31.5 43.5t18 28.5 q45 68 47 74q37 43 78 111l73 94q16 25 47 40t62 13q25 -2 39 -5t27.5 -18.5t13.5 -41.5q0 -76 2 -101q4 -39 0 -72v-10l-2 -20v-65.5v-117.5q4 -20 -2 -100v-156q0 -150 -2 -221q-2 -27 -2 -104v-127q0 -10 -1.5 -32.5t-1.5 -37.5q0 -63 3 -100l2 -29v-100q0 -59 -29 -72.5 t-100 -7.5q-47 6 -60.5 29.5t-17.5 89.5v61q-2 20 -2 66l-2 53v336l4 55q2 16 0 39v127q2 45 2 154l-2 102l-54 -76l-51 -80q-45 -78 -55 -90l-31 -35q-12 -20 -38.5 -57t-34.5 -49q-6 -6 -39 -53l-4 -4l-15 -23l-26 -33l-19 -20q-57 -66 -77.5 -64t-45 26t-39.5 46l-16 25 l-21 20l-28 45l-33 41q-25 39 -27 41q-137 182 -163 219q-12 18 -35 56t-29 49l-10 20v-6q0 -29 4 -89t6 -91q4 -102 4 -160v-68q0 -80 2 -104v-139q0 -92 -2 -111v-82q0 -143 6 -209q0 -57 -57 -57h-43q-43 0 -57.5 2t-26.5 21.5t-14 64.5q-4 102 -4 209v84q4 35 4 180 q0 47 -4 121q0 18 -2 43l-3 41q-6 74 -2 90v64q0 84 -4 190q0 25 -4 107z" glyph-name="m" horiz-adv-x="1759" unicode="m"/><glyph d="M442 1368l25 -43q4 -6 19.5 -26.5t21.5 -32.5l57 -92l49 -87l35 -59l8 -12l27 -45l8 -17q39 -72 88 -143l62 -109l26 -36l74 -142l53 -114q-2 66 -10 176l2 131v153q-2 55 -2 164q0 49 -2 78q-4 104 -2 166l6 147q6 68 23.5 86.5t72.5 22.5q74 0 90.5 -18.5t16.5 -65.5 v-8l2 -82q0 -72 -2 -96l-4 -308l2 -51v2q2 -10 2 -55v-262q-2 -23 2 -41v-361q2 -16 2 -53v-55q0 -80 -82 -80q-59 0 -102 61l-64 93l-18 26l-74 109l-98 147l-17 31q-8 16 -47 80l-12 20l-43 78l-21 37l-57 78l-41 80l-16 26l-94 183l-39 81l8 -116q0 -14 4 -52t4 -49 l2 -69l2 -15l-4 -127q0 -20 2 -32v-13l2 -20q2 -29 2 -86v-27l-2 -143q-4 -41 -2 -55l6 -35l4 -53v-48q0 -16 2 -36l2 -11l-2 -59q2 -53 -13 -66.5t-60 -17.5q-2 0 -7.5 -1t-7.5 -1h-28q-43 8 -59.5 24.5t-20.5 53.5q-4 41 -4 96q-2 14 -2 70q-4 53 -4 77l-3 127l-2 158v27 l-4 110q-4 31 0 58v131l-2 53v23q2 29 -2 81q0 8 -1 22.5t-1 18.5v62l2 94l-2 178q0 72 70 72q51 0 79.5 -16.5t53.5 -57.5z" glyph-name="n" horiz-adv-x="1462" unicode="n"/><glyph d="M276 1395q74 70 143.5 106.5t172.5 42.5l55 2h23q6 0 10 -2h10q156 -10 314 -141q127 -123 151 -297q0 -14 4 -31v-20q0 -6 2 -19v-47q4 -25 4 -43l2 -78v-231q0 -49 -4 -70q-2 -8 -2 -20q0 -70 -6 -113q-2 -4 -2 -6q-2 -4 -2 -8q-27 -117 -57 -168q-82 -133 -146 -174 l-108 -49l-43 -17q-55 -16 -160 -24h-41q-86 4 -129 24q-178 82 -272 232q-59 111 -70 276q-2 27 -2 88v74q0 96 -2 147v115q2 14 4 21v28q0 6 2 17v26q2 12 2 25q4 25 4 43q24 172 143 291zM446 270q41 -39 74 -52t90 -19q27 0 37 -2q84 8 115 30l57 29q4 2 10.5 6t8.5 4 l20 21q43 49 80 139q2 4 2 16l6 39q4 41 8 54v2l2 4q8 20 9 55v115q-2 16 -2 49q0 129 -13 272q-10 145 -102 217q-88 84 -191 88h-41q-18 0 -24 -2l-27 -2q-80 -31 -121 -69q-102 -61 -116 -351q-6 -63 -6 -112v-176q-2 -20 -3 -50q4 -47 21 -122q2 -33 6 -39 q51 -97 100 -144z" glyph-name="o" horiz-adv-x="1370" unicode="o"/><glyph d="M397 633v-41q0 -80 11 -182l6 -56q4 -43 4 -145v-137q0 -39 -20.5 -56.5t-92.5 -17.5q-59 2 -80.5 20.5t-21.5 94.5q2 35 2 116q0 94 -6 150q-4 53 -4 182v152v121v210v33v25q-4 37 -5 59v101q0 127 -4 137v37q0 43 3.5 59t21.5 27.5t61 11.5l148 2q25 -2 29 0 q170 0 256 -16q84 -12 180 -82l30 -25q4 -2 12.5 -9t11.5 -9t10 -8.5t10.5 -9.5t9.5 -9t9 -11t8 -11.5t9 -14.5t9 -16q47 -63 59 -191q4 -29 4 -57q0 -35 -4 -63l-4 -17q-29 -123 -129 -223q-45 -47 -126 -86t-145 -39q-59 0 -92 -2q-61 -4 -96 -4h-74zM629 842h26l33 8 q66 33 82 49l21 14l22 27l18 39q4 4 15 47q6 25 6 47q0 49 -21.5 98.5t-44.5 69.5q-55 55 -122 74q-68 16 -222 16h-10h-35q0 -4 1 -10t1 -8v-25q2 -20 2 -78q0 -49 2 -67v-23q4 -53 5 -80q0 -10 -2 -16v-8v-94q-2 -29 -3 -80v-4h113q78 0 113 4z" glyph-name="p" horiz-adv-x="1222" unicode="p"/><glyph d="M592 1544l53 2h23l22 -2q104 -6 171 -41t134 -98q133 -121 158 -299q0 -14 4 -31v-20l4 -25q0 -18 2 -29v-133q4 -14 4 -34l-2 -105q6 -41 6 -92q0 -49 -4 -70q-2 -8 -2 -20v-23q0 -4 -1 -10t-1 -8q-4 -41 -4 -66q-31 -135 -67 -180l-7 -8l-26 -39h2q-16 -31 -49 -63 l14 -15l35 -35q20 -23 -1.5 -63.5t-59 -65t-56.5 -8.5l-76 76l-55 -19q-57 -33 -178 -32h-39q-86 4 -131 24q-188 84 -262 213q-68 133 -78 295q-2 27 -2 88v74q0 100 -2 152v53q0 33 2 43q2 8 2 22q0 2 2 6v58q2 10 2 16v43q4 16 4 29q25 182 146 297q78 68 146.5 102.5 t166.5 40.5zM446 264q39 -35 68 -46t92 -21q20 0 33 -2q72 8 94 16q-6 8 -25.5 30.5t-25.5 30.5l-8 9q-20 41 38 94t89 20l82 -84q23 29 30 47l11 25q4 20 8 31l8 22q20 92 23 131v13q0 2 1 6t1 6v106q-4 33 -4 54q0 131 -9 274q-16 152 -102 219q-92 88 -193 92h-41 q-16 0 -24 -2q-80 -20 -135 -67l-45 -35q-39 -35 -58.5 -88t-21.5 -164v-16q0 -51 -6 -74v-27q0 -2 -1 -5t-1 -5v-8q-2 -12 -2 -45v-176q-2 -20 -3 -50q8 -100 11 -110l16 -51q59 -115 100 -150z" glyph-name="q" horiz-adv-x="1372" unicode="q"/><glyph d="M969 752q-45 -49 -111 -78l12 -25q20 -59 41 -82l21 -41q6 -14 24 -51l21 -37l6 -12l6 -10l33 -76q20 -35 29 -55l26 -45l21 -41l14 -27q6 -6 16 -33q27 -49 37 -78q12 -41 -7 -51t-79 -10h-39q-76 0 -92 35l-8 14q-6 12 -6 14l-33 58l-4 12l-12 19l-13 20q-12 18 -16 29 l-10 26l-17 31l-4 18q-12 16 -12 25l-18 31l-74 143l-21 43l-32 70q-23 35 -29 51q-33 0 -45 -4q-12 -2 -41 -2q-23 -2 -74 -2l-69 6h-2q0 -8 -1 -23.5t-1 -21.5q-2 -31 -3 -103q0 -76 7 -127q2 -51 2 -161l2 -80l-2 -45q0 -53 -21.5 -65.5t-89.5 -12.5q-37 -2 -54.5 1 t-29.5 21.5t-12 55.5v125q0 35 -2 55q0 2 -1 7t-1 7v84q-4 49 -4 172v201q-2 4 -2 127l-2 33v8q-6 104 -5 115q4 51 0 94q-2 33 -2 115l2 229q-4 84 62 84h143q53 4 82 4q25 0 62 -4h30l31 -2h51q98 -8 162 -39q57 -14 121 -57q98 -86 151 -234q14 -43 15 -104v-17 q0 -51 -2 -75l-9 -33q-4 -33 -28 -88q-55 -102 -90 -131zM406 836h96q233 0 317 55l23 27l6 14l14 24l6 15q20 43 21 100v31q-4 23 -17 53q-31 53 -79 107q-94 68 -279 67h-117v-10l-2 -6v-10q-4 -119 -2 -152q0 -27 4 -76v-26q0 -18 4 -23q6 -82 5 -145v-20.5v-16.5v-8z " glyph-name="r" horiz-adv-x="1304" unicode="r"/><glyph d="M920 1204l-15 -16q-51 -66 -102 -23l-17 15l-20 26l-29 33q-23 20 -47 47q-33 25 -51 31l-29 8q-8 4 -61 4q-55 0 -121 -35q-35 -23 -67.5 -62.5t-41.5 -72.5q-8 -16 4.5 -52t28.5 -60q129 -111 234 -142q18 -10 93 -54t107 -65l37 -28q92 -78 129 -201q18 -72 21 -133 q10 -178 -86 -281q-47 -47 -79 -72.5t-93.5 -52t-136.5 -32.5q-37 -2 -120 15t-112 40q-14 4 -92 55q-4 0 -10 6l-82 72l-43 49q-45 57 12 121q63 72 115 29l45 -33l28 -27l33 -26q6 -4 20.5 -15.5t20.5 -17.5l29 -16l14 -5q41 -20 66 -20q41 -12 104 6l23 8q2 0 8 2l20 4 q43 23 56 35q47 41 53 92v74q-6 57 -53 123q-12 18 -49 39l-35 25l-21 16l-33 25l3 -3q-2 0 -6.5 4.5l-6.5 6.5q-23 20 -37 24l-34 17l-39 18q-25 10 -39 21q-47 18 -62 30q-156 84 -211 203q-25 49 -32 107q-8 141 41 217q25 45 89 103t130 97q84 41 209 37q90 -2 192 -65 l19 -13q88 -90 112 -127q37 -51 37 -77q0 -17 -20 -58z" glyph-name="s" horiz-adv-x="1171" unicode="s"/><glyph d="M897 1536l39 -2q35 -2 46 -24.5t15 -84.5q0 -90 -65 -90h-129q-57 0 -88 -2q-16 -2 -68 -2v-53q2 -14 2 -45v-57q-4 -29 0 -50q0 -80 -2 -114q0 -61 -4 -94v-48q-2 -33 -2 -67q0 -14 4 -68v-51q4 -41 2 -47q-2 -53 2 -170l2 -49v-105q0 -88 2 -123v-28l2 -8l2 -68 q0 -55 -17 -71.5t-87 -14.5q-37 2 -55.5 5t-32.5 18.5t-14 46.5l-2 112q-2 14 -3 70q0 106 3 137q-2 14 -3 45v58q0 90 -2 124v54q0 37 -4 65l-2 201v20q0 14 2 19v20q4 20 4 49q0 23 -2 41q-2 33 -2 107v29l-2 108q-18 0 -22 2q-4 0 -11.5 1t-9.5 1h-8l-63 -4h-170 q-57 0 -75 16.5t-18 81.5q0 63 13.5 83t70.5 22h179q12 0 42.5 1t51.5 1q61 0 96 2q53 4 84 0q49 -4 111 -4q84 0 120 4h68z" glyph-name="t" horiz-adv-x="1132" unicode="t"/><glyph d="M369 1448v-121q0 -96 -4 -184v-129l4 -213v-123q-4 -74 -4 -125q0 -80 12 -150q33 -102 80 -127q37 -35 93 -57t99 -22q10 0 78 10l16 4l13 2l35 10q23 6 59 27q31 25 41 43q35 57 39 74l10 34l6 21q18 76 19 170v57q0 53 2 86v19q4 33 4 49v35q0 102 -4 149q-2 27 -2 78 v207q0 25 4 45v17.5v23.5v16q0 8 1 29.5t1 28.5q0 68 21.5 85t78.5 17q59 0 79.5 -15.5t20.5 -82.5v-103q0 -2 -1 -8t-1 -10v-62v-30q-2 -29 -2 -78q0 -55 2 -80l2 -213v-104q-2 -37 -2 -125v-97q0 -55 -8 -120q0 -2 -2 -9v-8l-16 -49q-47 -150 -103 -205 q-154 -145 -374 -147q-98 0 -172 22q-123 39 -207 136.5t-119 228.5q-18 74 -18 184q0 2 1 6t1 8v127q0 78 6 136q0 35 -2 36q-4 41 -4 95v51q-4 45 0 90v18q0 10 2 17v139q4 86 2 141q-2 72 22.5 91.5t83.5 19.5q70 0 88.5 -16.5t18.5 -69.5z" glyph-name="u" horiz-adv-x="1411" unicode="u"/><glyph d="M1288 1386l-24 -47l-9 -16q-23 -43 -55 -129l-10 -23q-6 -12 -8 -20l-29 -82l-18 -37l-19 -37q-8 -33 -16 -49l-6 -14l-23 -49l-16 -35l-41 -96l-27 -60l-18 -37l-13 -32l-16 -45l-39 -103l-2 -8q-2 -8 -6 -14q0 -2 -4 -15l-6 -10q-6 -23 -23 -61l-14 -27l-25 -64l-4 -14 q-4 -8 -4 -12l-14 -39l-25 -59l-33 -74q-2 -2 -4 -8l-22 -41q-23 -37 -66 -35q-18 -2 -29.5 10t-35.5 57l-43 93l-25 53l-4 14q-8 20 -8 23l-17 32l-12 39l-10 33q-6 6 -6 10l-4 11l-21 43l-28 69l-5 15l-6 14q-27 55 -94 231l-4 17q-45 127 -64 166l-14 43l-18 51 q-27 39 -47 108l-13 37l-32 72l-11 25q-4 8 -8 19t-8 23.5t-6 14.5q-2 4 -2 6l-11 29l-6 20l-12 27l-27 59q-18 33 -0.5 55.5t86.5 22.5q57 0 85 -12.5t44 -55.5q20 -35 23 -38l6 -15l33 -59l35 -94l16 -66l12 -27l19 -51q4 -14 12 -22l37 -76l78 -195l41 -116l6 -19l18 -41 l15 -37l10 -20l22 -74l9 -20l32 -92l2 -11q0 4 1.5 9.5t1.5 7.5l16 53l20 63l25 74l14 41l8 16q12 23 17 37l51 123l18 53l31 72l21 49q53 106 65 156l53 119q2 6 9.5 23.5t9.5 19.5q23 35 37 75l20 50l25 43q12 29 28.5 41t53.5 16h45h33t29.5 -2t22.5 -9t10 -19.5 t-3 -32.5q-10 -42 -33 -87z" glyph-name="v" horiz-adv-x="1413" unicode="v"/><glyph d="M2087 1386l-21 -49l-18 -59l-20 -47l-21 -45l-25 -62l-45 -100l-22 -72l-33 -67l-29 -84q-2 -4 -8 -23q-10 -37 -24 -61l-19 -41l-6 -17l-70 -178l-10 -35l-6 -22l-8 -18l-29 -72l-31 -92l-57 -158q-23 -49 -22 -51q-14 -29 -23.5 -36t-30.5 -7q-41 0 -63 45l-35 69 l-6 15q-4 10 -12.5 29.5t-12.5 27.5l-26 74l-11 29q-4 8 -10 25.5t-6 19.5q-4 12 -14 34q-27 55 -45 107l-17 35q-68 152 -96 241l-4 17l-25 69l-10 19q-18 43 -26 65l-21 54l-6 18l-6 -22l-23 -76l-33 -84l-10 -27l-30 -76q-12 -25 -17 -45l-63 -186q-4 -12 -52 -131 l-28 -88q-8 -29 -17 -45q-8 -14 -14 -39l-33 -74l-18 -35q-29 -53 -43 -59q-6 -2 -17 -4q-35 -6 -63 51q-2 6 -51 104q-6 12 -37 86q-20 41 -27 58l-12 35l-10 20l-29 68l-16 53l-31 80q-31 59 -66 158l-12 34l-29 74l-10 25q-2 4 -5 11t-3 9l-18 49l-11 33l-18 51l-29 72 l-4 20l-10 45l-43 97l-10 32l-17 50q-8 8 -10 26l-14 35l-8 21l-17 47l-2 10v-2q-20 35 -0.5 62.5t100.5 27.5h23q33 2 51.5 -5t28.5 -40l33 -72l4 -16l10 -29l14 -35q8 -31 13 -34l10 -27l14 -43q8 -45 29 -88l37 -92l16 -49l31 -84l20 -46l60 -149q4 -10 8 -23.5t7 -25.5 t5 -17l6 -20l15 -39l6 -12q18 -47 28 -76l25 -72l10 -37l35 140l31 84l6 14l12 31q0 2 2 8l2 6l9 21l34 98q0 2 7.5 18.5t9.5 20.5l6 14l10 21l8 28q8 14 11 27l8 33l24 57l15 45l16 47l49 117q8 8 12 33l-14 43l-8 24l-8 25l-19 53l-12 41q-18 51 3.5 69.5t88.5 14.5 q35 -2 51.5 -5t31.5 -14.5t24 -33.5l41 -82l28 -82q8 -20 23 -49q2 -4 6 -17.5t6 -17.5q0 -14 6 -21l6 -18q6 -25 25 -72l4 -18l8 -21l121 -290l14 -37l5 -21l4 -12l4 -14q10 -49 28 -82l13 -23l10 -28q0 -6 6 -13l6 -16l37 -123l6 16l25 86l45 134l53 147q0 2 7 18.5 t9 20.5l9 14q2 2 6 12.5t7 17.5t3 11l19 41l10 37l35 86l12 29l8 22l18 47l41 103l54 125l41 82q25 61 118 61q68 0 85.5 -16.5t9.5 -46.5q-2 -6 -14.5 -40.5t-16.5 -46.5z" glyph-name="w" horiz-adv-x="2291" unicode="w"/><glyph d="M604 522l-35 62l-37 -70q-10 -16 -20 -43l-18 -27l-7 -8l-16 -30l-10 -21l-17 -27l-41 -59l-36 -59l-76 -123l-19 -35q-2 -4 -12 -16.5t-14 -20.5q-33 -45 -99 -45h-75q-35 0 -51.5 11.5t-6.5 43.5l27 43l2 4q2 4 2 7q18 33 25 41q16 33 24 47l2 4q2 4 2 6l21 31l67 116 l13 21l51 78l43 75l39 60l41 53q0 6 6 12l6 17l21 37l43 71l-46 82l-24 43l-29 53l-33 66l-47 68l-53 104l-22 37l-25 51q-6 8 -20.5 41t-24.5 51l-10 25l-6 14q-2 4 -15.5 28.5t-17.5 37.5q-12 31 6 44t61 13l72 -2q63 0 94 -76l35 -59l25 -45l100 -189q0 -4 35 -71l43 -74 l24 -47l52 106q55 111 63 119l4 8q4 4 4 8l27 56l22 37q49 88 64 120l2 5l4 8t2 6l10 18l23 31q25 37 70 39q27 2 53 1t46.5 -5t31 -17.5t2.5 -35.5l-41 -91l-11 -18l-12 -27q-12 -25 -26 -57q-4 -12 -14.5 -31.5t-12.5 -25.5q-6 -14 -20.5 -38t-18.5 -34l-29 -51l-26 -47 l-25 -47l-37 -66q-2 -6 -15 -28.5t-18 -32.5l-18 -29l-18 -33l-25 -43l35 -51l57 -92l23 -33q8 -12 35.5 -55t42.5 -66l69 -119q4 -2 51 -86q2 -4 10.5 -18t12.5 -18l24 -43q35 -51 70 -119l10 -25q27 -47 -51 -53q-20 -2 -82 -2q-70 4 -92 41l-45 80l-23 26l-32 56l-23 35 l-26 43l-25 36l-29 56l-10 16l2 -2l-12 18q-4 4 -12.5 17.5t-12.5 17.5l-16 29l-8 10z" glyph-name="x" horiz-adv-x="1220" unicode="x"/><glyph d="M209 1487l53 -84l35 -55l4 -9l8 -12l41 -65l21 -35l57 -109l14 -24l29 -41l25 -35l43 -78q2 -2 20 -35l12 -22l15 -31l16 -18l19 -31q6 12 18 34.5t18 32.5l15 27l20 35l51 76l78 118l31 60l18 28l29 37q4 6 12.5 20.5t12.5 20.5l51 92l37 66l30 51q12 31 93 35 q84 2 101 -18.5t-7 -67.5l-74 -154q-29 -45 -35 -61l-14 -25l-21 -39l-12 -24l-20 -35q-59 -88 -80 -115q-6 -10 -23.5 -37.5t-25.5 -39.5l-41 -72q-33 -59 -43 -82l-60 -92l-55 -76v-88q0 -18 2 -43v-31l2 -102l2 -17v-69q-2 -39 -2 -168q2 -49 -20.5 -64.5t-73.5 -15.5 q-66 0 -86.5 20.5t-20.5 71.5v131q-4 70 -4 113v16q-2 6 -2 15q-4 43 0 71q4 14 0 49q-4 25 -4 45v58q-12 18 -26.5 37.5t-20.5 29.5l-8 11l-33 57l-14 29l-54 80l-12 20l-53 98q-51 94 -98 152l-97 178l-16 27l-35 73q-31 45 -47 107q-8 31 18.5 40t90.5 7q41 0 60.5 -11 t35.5 -38z" glyph-name="y" horiz-adv-x="1329" unicode="y"/><glyph d="M887 1526h63q12 -2 29.5 -3t26 -2t20.5 -3t17.5 -5.5t11.5 -8.5t8 -12t2 -17q0 -41 -10 -66l-47 -106l-17 -33l-20 -37l-27 -41l-47 -70q-18 -37 -72 -121l-20 -34l-31 -43l-29 -45l-10 -17l-96 -162l-25 -53l-20 -33l-27 -43l-51 -92l-10 -16l-37 -68l-16 -24l-29 -41 l-43 -66l-47 -65h69l50 -4q70 6 100 2h18.5t34 1t27.5 1h112q4 0 7.5 1t5.5 1l98 -2q2 0 9 -1t19.5 -1h22.5h56q25 -2 41 -13q23 -16 22 -67q0 -39 -13.5 -74t-35.5 -37q-20 -2 -115 -2q-49 2 -104 2q-57 0 -73.5 -4t-84.5 -4q-106 0 -160 4q-18 -2 -51 -2l-82 2 q-55 0 -57 -2h-29q-20 -2 -55 0t-45 2h-8q-74 0 -86 14q-10 10 -11 27q0 31 35 86l58 96l30 56q147 223 148 233l28 43l27 43l59 102l70 113l59 92q4 10 20.5 42t22.5 42l72 111l43 55l10 21l39 67q6 6 13 19l10 22l10 17l23 26l-218 -6q-14 2 -26 2q-20 2 -41 2 q-74 2 -156 2h-108l-92 -2q-29 -2 -41.5 23.5t-14.5 62.5v37q0 35 13.5 52.5t60.5 23.5l25 4q66 4 108 4h162q61 -4 65 -4h99l39 -2h155q29 0 64 -2z" glyph-name="z" horiz-adv-x="1206" unicode="z"/><glyph d="M383 797q-12 -16 -66 -54l-6 -4q6 -6 23 -14l35 -29q25 -27 42 -53.5t21 -38.5l4 -12q4 -27 4 -84v-12q0 -49 -14 -107l-12 -63l-8 -27q-8 -31 -11 -55q-2 -23 -2 -37v-27q2 -61 52.5 -110.5t111.5 -77.5l41 -19q2 -2 20.5 -12t20.5 -10q41 -23 49 -46.5t-12 -62.5 q-20 -45 -42 -57t-65 -2l-88 35l-30 16q-47 25 -81 48.5t-80 68.5t-70.5 112.5t-24.5 151.5q0 63 12 98q10 35 10 54l6 28q18 86 19 97v24q2 27 -25 60.5t-67 56.5l-19 16l-6 4q-66 43 -66 84q0 29 50 64l22 14q31 20 33 27l31 26q51 76 51 172q0 25 -10 62l-5 33 q-23 90 -22 161q0 154 131 283q94 96 223 119q25 4 47.5 3t41 -22.5t28.5 -62.5q6 -41 0 -52.5t-39 -27.5l-16 -10l-31 -17q-49 -25 -102.5 -70.5t-71.5 -82.5q-14 -29 -14 -49q6 -49 20 -123q16 -80 20 -156q3 -133 -63 -231z" glyph-name="braceleft" horiz-adv-x="665" unicode="{"/><glyph d="M354 1673l13 -2q45 0 62 -15.5t20 -49.5l4 -140q-2 -18 -2 -53l-2 -174q4 -33 4 -78q2 -41 2 -117v-419q4 -70 4 -234q0 -174 -4 -231q0 -37 -2 -41q0 -84 2 -178q-2 -57 -16.5 -70.5t-80.5 -13.5q-57 0 -73.5 19.5t-16.5 90.5v226q-8 453 -6 473l8 370v54l-2 59 q0 57 -2 88q-4 66 -4 221v88l4 31q0 35 4 52.5t23.5 30.5t60.5 13z" glyph-name="bar" horiz-adv-x="647" unicode="|"/><glyph d="M252 797q-63 102 -62 231q4 82 21 156q16 82 20 123q0 20 -14 49q-18 39 -74.5 87t-105.5 68l-27 15l-14 10q-35 16 -40 27.5t1 58.5q27 68 53.5 79t61.5 -3q133 -23 223 -119q133 -127 133 -283q0 -72 -22 -161q0 -6 -2.5 -17.5t-2.5 -15.5q-10 -37 -10 -62 q0 -96 51 -172l27 -28q4 -4 35 -25l22 -14q51 -35 52 -64q0 -41 -62 -80l-10 -6l-29 -20q-86 -47 -82 -115v-24q0 -10 19 -97l6 -28q0 -18 10 -54q12 -35 12 -98q0 -68 -19.5 -127t-44 -97t-64.5 -72t-65.5 -50t-62.5 -35l-30 -16l-90 -35q-41 -10 -62.5 2t-42.5 57 q-20 39 -12 62.5t49 46.5q2 0 19.5 10t19.5 12l41 19q160 74 166 188v27q0 14 -2 37q-2 25 -11 55l-8 27l-12 63q-14 57 -14 107v12q0 57 4 84q12 51 67 113q4 4 33 20l21 14q-54 35 -70 58z" glyph-name="braceright" horiz-adv-x="665" unicode="}"/><glyph d="M297 1499q-43 0 -121 -49q-20 -12 -47 13.5t-36 58t7 55.5q43 35 104.5 59.5t98.5 24.5q63 0 113 -29h-4q20 -6 82 -55q45 -25 71 -25q27 2 62 33l22 19q27 25 86.5 -18.5t34.5 -88.5q-27 -43 -80 -74.5t-119 -36.5q-41 -4 -114 35l-23 11l-65 45l2 -2l-35 16 q-12 8 -39 8z" glyph-name="asciitilde" horiz-adv-x="913" unicode="~"/><glyph d="M285 1300q-39 0 -71 30t-38 67q-6 39 25.5 81t62.5 58q88 35 125 -39l-2 2q23 -33 23 -74q0 -39 -25 -72.5t-61 -45.5q-25 -7 -39 -7zM268 0q-31 -2 -47 19.5t-18 54.5q-6 121 -2 145q2 10 2 45v135l-2 37q-6 41 0 99q4 39 0 127l-6 137q0 41 2 57q0 39 2 45q0 8 -1 30.5 t-1 33.5v88q0 29 2 41t11 26.5t27.5 19.5t53.5 5q41 0 57.5 -2t31.5 -18.5t15 -51.5q0 -106 -2 -153q-4 -131 -4 -203q0 -47 4 -105v-16q-2 -37 0 -68v-2v-6t1 -8t1 -12v-17v-77q4 -86 4 -183v-147q6 -74 -63 -76q-33 -4 -68 0z" glyph-name="exclamdown" horiz-adv-x="368" unicode=""/><glyph d="M616 1673h39q33 0 49.5 -10t18.5 -22.5t4 -43.5v-53q90 -2 168 -41q55 -20 106 -59q35 -31 52.5 -51.5t23.5 -51t-22 -55.5l-15 -16q-20 -25 -29.5 -32t-27.5 -8t-45 13l-31 21l-14 12l-51 24l-39 19q-47 14 -74 14v-151q2 -16 2 -78q2 -39 2 -117v-381q4 -70 4 -233v-35 q0 -20 -1 -70.5t-1 -72.5h25l18 2q4 2 11.5 4t11.5 4l20 4q23 6 60 27l24 14q12 12 25 18l2 2h4l14 9q29 20 58.5 7.5t50.5 -48.5q37 -66 -6 -111l-33 -29q-35 -35 -109 -71l-12 -4q-55 -33 -129 -33h-39q0 -14 -2 -43t-2 -41q0 -43 -18.5 -55.5t-79.5 -12.5q-16 0 -31.5 3 t-31 19.5t-13.5 45.5q0 16 -1 49t-1 51q-88 20 -148 57q-94 63 -194 216q-78 172 -98 311q-6 23 -7 108q0 129 9 170q16 111 58 231t93 189l37 47l14 19q27 41 62 61l49 43l27 19q61 35 90 43v28l2 47q0 45 15 62.5t56 15.5zM492 1245q-41 -45 -82 -137l-15 -29 q-61 -137 -73 -303v-80q0 -63 26 -188q23 -72 64 -143l18 -27l16 -25l5 -8l30 -39l11 -10q8 -10 19 -17.5t17 -9.5l7 -4l12 -4l2 758l2 43q-2 8 -2 37v31q0 57 -2 90q-2 8 -2 53q0 8 -1 22.5t-1 24.5q-10 -6 -51 -35z" glyph-name="cent" horiz-adv-x="1259" unicode=""/><glyph d="M498 901v-29q23 0 42 -1t21 -1h41l14 2l93 -4q41 -2 55 -23.5t14 -68.5q0 -68 -22.5 -85t-81.5 -15h-45l-66 -2h-55l8 -189q0 -72 -2 -104l-6 -55l29 -19l10 -8l47 -37l10 -8l29 -23q29 -29 84 -28q49 0 80.5 22.5t64.5 71.5l-2 -2q0 2 3 6t7 10t7 11q12 16 16 28 q16 29 59 29t82 -24.5t33 -53.5q-25 -92 -94 -184q-90 -123 -254 -123q-119 0 -236 88q-4 4 -16 15.5t-18 15.5q-80 -125 -209 -125q-92 0 -143.5 52t-51.5 150q6 82 75.5 151t182.5 69h6l6 172q0 47 -4 73v17h-84q-57 0 -78.5 15t-21.5 81q0 39 5 60.5t21.5 30.5t28 10 t45.5 1h52h14v7v30q0 68 -2 107v57q0 268 158 404l32 26q18 14 45 25q55 20 127 20q193 0 279 -231l4 -15v3l8 -27q6 -18 6 -31q0 -10 2 -18q8 -47 -15.5 -67.5t-74.5 -31.5q-33 -12 -55.5 -0.5t-42.5 60.5q0 16 -23 61q-12 31 -21 46.5t-29.5 28.5t-53.5 13q-51 0 -78 -44 t-49 -124l-8 -26q-6 -6 -6 -29q0 -51 -4 -72q-2 -2 2 -20v-23q-2 -10 2 -79zM252 225q-29 -8 -33 -37q-2 -6 9.5 -13t15.5 -7q35 0 51 61q-31 0 -43 -4z" glyph-name="sterling" horiz-adv-x="1224" unicode=""/><glyph d="M209 1487l53 -84l35 -55l4 -9l8 -12l41 -65l21 -35l57 -109l14 -24l29 -41l25 -35l43 -78q2 -2 20 -35l12 -22l15 -31l16 -18l19 -31q6 12 18 34.5t18 32.5l15 27l20 35l51 76l78 118l31 60l18 28l29 37q4 6 12.5 20.5t12.5 20.5l51 92l37 66l30 51q12 31 93 35 q84 2 101 -18.5t-7 -67.5l-74 -154q-29 -45 -35 -61l-14 -25l-21 -39l-12 -24l-20 -35q-59 -88 -80 -115q-6 -10 -23.5 -37.5t-25.5 -39.5l-41 -72q-33 -59 -43 -82l-60 -92l-6 -8l162 -4q35 -4 45 -27t6 -72q-2 -35 -14 -51t-25.5 -19.5t-40.5 -0.5h-55q-14 2 -98 -3h-29 q0 -14 2 -22v-18h195q35 -4 48 -21.5t13 -69.5q0 -57 -13.5 -67t-72.5 -10h-29q-57 2 -137 4v-37q-2 -39 -2 -168q2 -49 -20.5 -64.5t-73.5 -15.5q-66 0 -86.5 20.5t-20.5 71.5v131l-4 60h-22q-25 -2 -62 -2q-43 0 -51 2q-94 0 -113.5 15t-15.5 71q4 59 26.5 72.5t78.5 13.5 h45h8l6 -2q4 -2 31 -2q8 2 65 2h2v34q-2 0 -2 2h-151q-68 -4 -89.5 9.5t-21.5 68.5q0 66 21.5 79t97.5 13h16h76l-6 9l-33 57l-14 29l-54 80l-12 20l-53 98q-51 94 -98 152l-97 178l-16 27l-35 73q-31 45 -47 107q-8 31 18.5 40t90.5 7q41 0 60.5 -11t35.5 -38z" glyph-name="yen" horiz-adv-x="1464" unicode=""/><glyph d="M928 1200l-15 -16q-51 -66 -102 -23l-16 17l-21 26l-29 33q-20 20 -45 47q-33 25 -51 31l-28 10q-8 4 -62 4q-57 0 -121 -33q-35 -25 -68.5 -63.5t-41.5 -69.5q-8 -18 3 -55t27 -59q133 -115 232 -144q33 -20 101.5 -61t96.5 -60l37 -30q90 -76 127 -203q16 -61 19 -133 q4 -141 -51 -230q14 -29 26 -69q18 -74 19 -133q10 -178 -88 -279q-47 -47 -80 -72.5t-94.5 -50t-137.5 -30.5q-37 -2 -120 16t-111 41q-8 4 -92 57q-4 0 -11 6l-79 74l-43 49q-25 29 -22 56.5t36 64.5q61 70 115 27l45 -33l28 -27l33 -28q6 -6 19.5 -16.5t19.5 -16.5 l29 -17l14 -4q39 -20 66 -22q41 -12 104 6l22 8q2 0 9 2l20 2q43 23 55 35q47 39 56 92v74q-2 57 -51 123q-12 18 -48 39l-34 26l-21 17l-33 24l2 -2q-2 2 -6 6.5t-6 4.5q-23 20 -37 24l-35 17l-38 20q-20 8 -37 20q-45 18 -62 31q-158 88 -209 207q-25 51 -30 107 q-8 137 43 217q12 20 30 43q-25 33 -36 65q-25 49 -33 107q-6 139 45 217q25 43 90 101.5t131 94.5q80 39 209 35q90 -4 192 -67l19 -15q86 -90 110 -127q37 -51 37 -78q-2 -16 -22 -57zM764 365v67q-6 61 -51 123q-12 18 -49 39l-35 27l-51 41l2 -3q-2 0 -6.5 4.5l-6.5 6.5 q-23 20 -37 24l-34 17l-39 20q-25 10 -39 21q-47 18 -62 30h-2q-2 2 -4 2q-23 -29 -28 -53q-6 -16 4 -53t26 -62q133 -115 234 -143q35 -23 95 -58.5t83 -49.5z" glyph-name="section" horiz-adv-x="1081" unicode=""/><glyph d="M256 1880q45 0 70.5 -26.5t31.5 -59.5q4 -47 -27.5 -86t-66.5 -49q-35 -8 -68.5 4t-48.5 43q-10 27 -10 53q0 39 24.5 74t59.5 45q10 0 21 2h8h6zM573 1880q43 0 74 -26.5t33 -57.5q6 -39 -31 -80t-71 -55q-25 -8 -54.5 3t-46.5 40q-23 45 -7.5 90t54.5 70q22 16 49 16z " glyph-name="dieresis" horiz-adv-x="892" unicode=""/><glyph d="M545 901l-41 -29l-53 -49l-37 -24l-17 -8l-59 -43l-45 -35l-35 -27l23 -14l88 -64l51 -33l18 -14l51 -33l50 -39l18 -12q6 -6 14 -10l29 -23q45 -39 45 -61q0 -29 -20 -64q-37 -63 -80 -51q-47 14 -78 39l-21 15l-100 65q-29 27 -47 37q-29 14 -55 43l-11 6q-8 8 -47 40 t-41 32l-63 49q-59 45 -59 84q0 29 8 47t16 27.5t33 29.5l135 113l201 154l18 12l45 29q51 35 86 34q29 0 66 -51q43 -66 -6 -106l-70 -58zM973 901l-41 -29l-53 -49l-37 -24l-17 -8l-59 -43l-45 -35l-35 -27l23 -14l88 -64l51 -33l18 -14l52 -33l49 -39l18 -12q6 -6 14 -10 l29 -23q45 -39 45 -61q0 -29 -20 -64q-37 -63 -80 -51q-47 14 -78 39l-21 15l-100 65q-29 27 -47 37q-27 14 -55 43l-10 6q-8 8 -47.5 40t-41.5 32l-63 49q-59 45 -59 84q0 29 8 47t16 27.5t33 29.5l135 113l201 154l18 12l45 29q51 35 86 34q29 0 66 -51q43 -66 -6 -106 l-70 -58z" glyph-name="guillemotleft" horiz-adv-x="1193" unicode=""/><glyph d="M516 1552l-176 4q-47 -6 -47 70v10q0 43 13 59.5t54 14.5h35q35 2 97 2h81l23 -2l29 -2q2 0 19.5 1t29.5 1l47 -6q25 0 34 -1t18 -16.5t7 -50.5q-2 -37 -14 -60.5t-39 -21.5h-68l-32 2h-23z" glyph-name="macron" horiz-adv-x="1148" unicode=""/><glyph d="M311 1528l11 -2q111 -72 114 -207q-2 -119 -117 -197q-37 -27 -96 -26q-63 0 -120.5 26.5t-86.5 65.5q-29 45 -28 123q0 158 153 215q47 14 82 14q51 0 88 -12zM158 1370l-11 -14q-8 -8 -2 -58q4 -27 26 -43t46 -10q53 4 59 64l7 20q0 31 -7 39q-10 23 -59 23 q-47 -1 -59 -21z" glyph-name="degree" horiz-adv-x="460" unicode=""/><glyph d="M360 958q2 68 21.5 89.5t75.5 17.5q61 -2 79.5 -20.5t18.5 -55.5v-8l2 -121q0 -6 4 -55v-33q2 -10 2 -41h53q4 0 14.5 -1t16.5 -1h68q51 0 65.5 -1t37 -8t28.5 -24.5t10 -50.5q0 -72 -18.5 -87t-94.5 -15h-14q-16 -2 -106 -2q-45 0 -64 2q0 -100 -2 -123q0 -2 1 -7t1 -7 l2 -23v-39q0 -53 -20.5 -78.5t-83.5 -25.5q-41 0 -62.5 13t-27 30.5t-5.5 52.5l-4 205h-88l-151 6q-47 4 -47 76v8q0 59 18.5 77.5t52.5 20.5q61 4 207 4l12 -2v19zM205 -14q-106 -2 -132 20.5t-20 95.5q6 37 29.5 55.5t44 21.5t53.5 3h23q25 -2 114 2q25 2 82 2l62 -2 l303 -6q35 0 57.5 -5t41 -27.5t18.5 -63.5q-4 -68 -28 -83t-101 -15q-106 4 -207 4q-117 0 -168 -4q-20 -2 -72 -2z" glyph-name="plusminus" horiz-adv-x="993" unicode=""/><glyph d="M362 1909l33 18l45 21q57 23 84 -19q20 -27 27 -45q14 -47 -25 -74l-104 -61q-4 -4 -21 -10l-49 -27l-24 -12l-21 -8l-6 -4l-25 -15l-20 -8h-2q-6 -4 -18 -8q-6 -4 -39 -21l-27 -8q-74 -31 -98 37q-25 74 20 100l62 37q18 4 82 41l36 17l21 12l6 4q16 12 35 20z" glyph-name="acute" horiz-adv-x="630" unicode=""/><glyph d="M334 961q41 0 72.5 -35t35.5 -74q6 -41 -30.5 -87t-67.5 -56q-82 -25 -125 45q-27 49 -4 113.5t74 84.5q8 0 16 4q17 5 29 5z" glyph-name="periodcentered" horiz-adv-x="718" unicode=""/><glyph d="M82 188l184 -16l2 -201h13q70 -6 77 -8q10 0 37 -12q123 -57 125 -182q2 -70 -14 -113q-47 -102 -125 -141q-51 -23 -53 -23l-39 -4q-37 0 -53 2q-51 4 -70 14q-6 4 -19 9q-41 16 -79 55q-31 31 6 92q25 45 45 53t47 -10l45 -18q27 -14 50.5 -15.5t33.5 4.5l10 7 q20 10 29 32l6 25q10 39 -31 65q-16 10 -37 11l-8 2h-12q-25 4 -43 4l-80 -2q-18 0 -32.5 12t-14.5 37v321z" glyph-name="cedilla" horiz-adv-x="712" unicode=""/><glyph d="M616 872l-41 29l-10 8l-69 58q-49 41 -7 106q37 51 66 51q35 0 86 -34l45 -29l19 -12q139 -106 200 -154l135 -113q25 -20 33 -29.5t16.5 -27.5t8.5 -47q0 -39 -60 -84l-63 -49q-2 0 -41 -32t-47 -40l-10 -6q-29 -29 -56 -43l-47 -37l-100 -65l-21 -15q-31 -25 -78 -39 q-43 -12 -79 51q-20 35 -21 64q0 23 45 61l29 23q8 4 14 10l19 12l49 39l51 33l18 14l52 33q59 39 88 64l22 14l-35 27l-45 35l-59 43l-16 8l-37 24zM188 872l-41 29l-10 8l-69 58q-49 41 -7 106q37 51 66 51q35 0 86 -34l45 -29l18 -12q139 -106 201 -154l135 -113 q25 -20 33 -29.5t16.5 -27.5t8.5 -47q0 -39 -60 -84l-63 -49q-2 0 -41 -32t-47 -40l-10 -6q-27 -29 -56 -43l-47 -37l-100 -65l-21 -15q-31 -25 -78 -39q-43 -12 -79 51q-20 35 -21 64q0 23 45 61l29 23q8 4 14 10l19 12l49 39l51 33l18 14l52 33q59 39 88 64l22 14l-35 27 l-45 35l-59 43l-16 8l-37 24z" glyph-name="guillemotright" horiz-adv-x="1193" unicode=""/><glyph d="M377 -2q-25 0 -46.5 4t-31.5 8l-8 4q-66 18 -115 52l-49 36q-39 29 -82 150q-25 86 -20 145q2 68 56 163t112 157l53 59l8 12l18 29q31 39 37 96q12 33 15 74q0 27 2 35v8q0 2 2 6v4v31q0 39 17 58.5t75 25.5q41 4 72.5 -12.5t35.5 -38.5l4 -37v-12q2 -70 -8 -109l-6 -33 q-10 -59 -37.5 -128.5t-54.5 -102.5l-23 -39l-26 -31l-41 -47l-35 -41l-14 -12q-29 -29 -39 -43q-29 -68 -17 -111q-4 -35 17 -65q61 -92 162 -86q6 0 104 35l35 26l14 19q10 10 23 28q20 25 32 76l13 43q10 76 82 76q80 4 100.5 -22.5t9.5 -116.5q-16 -147 -123 -244 q-141 -123 -323 -129zM414 1317q-41 0 -68 27.5t-33 60.5q-6 39 31 84t72 63q66 18 94 -24q29 -35 29 -86q0 -39 -21.5 -73t-56.5 -42q-37 -10 -47 -10z" glyph-name="questiondown" horiz-adv-x="1013" unicode=""/><glyph d="M551 1386l8 23l27 45q43 82 88 82q35 0 65.5 -49t89.5 -201l72 -199l6 -12l21 -69l24 -74l13 -31l14 -41l86 -256l20 -65l17 -47l14 -46q0 -2 6 -17t17.5 -43t17.5 -44q37 -92 39 -98l6 -29l2 -12l17 -33l6 -18l16 -54q20 -51 5 -76.5t-74 -23.5q-6 0 -18.5 1t-18.5 1 l-9 2q-80 0 -92 72q-4 23 -22 45l-6 14q-2 4 -2 6l-15 39q-18 37 -20 43q-6 12 -6 19l-7 14l-10 41q0 2 -2 6l-22 55q-4 4 -4 9q-27 68 -37 110q0 2 -15 31l-8 12h-313q-72 0 -90 -2h2l-25 -2l-2 -4l-6 -16q-2 -2 -2 -9q-18 -61 -47 -110v2q-4 -14 -8 -19q-8 -10 -25 -51 l-12 -31q-2 -4 -16.5 -35.5t-18.5 -45.5l-12 -27q-4 -4 -4 -8l-11 -29l-41 -74q-20 -35 -40.5 -46t-61.5 -11l-66 2q-39 6 -49 22.5t6 65.5l13 31l6 14l12 27l6 12l6 16q0 2 2.5 7.5t2.5 7.5l18 35v-2q16 33 20 47q4 6 17 34l4 15l33 78l22 45l29 69l31 78l28 76l6 14 q25 74 37 99l17 43l43 90l12 28q2 2 6 17.5t10.5 33t12.5 27.5q8 23 22 43q2 4 5 14.5t5 14.5l9 20l14 39l8 21q0 14 29 86l6 20q6 14 6 17l19 43q2 6 8 18t8 18zM678 1124l-12 43l-7 -28l-10 -31q0 -16 -8 -29l-23 -67l-18 -56l-18 -47l-17 -32q-20 -47 -26 -74 q-2 -4 -2 -8l-27 -64h127q82 0 160 2l-21 60q-4 4 -4 14l-22 72l-19 53l-10 33l-6 18zM551 1923l10 -6l33 -19l29 -18l6 -4l10 -6q6 -6 12 -6q29 -18 43 -25q61 -29 82 -39q8 -4 31.5 -19.5t38.5 -23.5q33 -20 8 -90q-23 -66 -96 -37l-31 10q-2 0 -13.5 5.5t-19.5 9.5 q-6 4 -19 10t-16 6l-12 6l-24 13l-13 8l-16 6l-23 12l-49 31q-14 6 -20 10q-16 8 -49 30.5t-52 33.5q-37 29 -26 65q6 12 26 45q33 45 76 29l51 -23z" glyph-name="Agrave" unicode=""/><glyph d="M551 1386l8 23l27 45q43 82 88 82q35 0 65.5 -49t89.5 -201l72 -199l6 -12l21 -69l24 -74l13 -31l14 -41l86 -256l20 -65l17 -47l14 -46q0 -2 6 -17t17.5 -43t17.5 -44q37 -92 39 -98l6 -29l2 -12l17 -33l6 -18l16 -54q20 -51 5 -76.5t-74 -23.5q-6 0 -18.5 1t-18.5 1 l-9 2q-80 0 -92 72q-4 23 -22 45l-6 14q-2 4 -2 6l-15 39q-18 37 -20 43q-6 12 -6 19l-7 14l-10 41q0 2 -2 6l-22 55q-4 4 -4 9q-27 68 -37 110q0 2 -15 31l-8 12h-313q-72 0 -90 -2h2l-25 -2l-2 -4l-6 -16q-2 -2 -2 -9q-18 -61 -47 -110v2q-4 -14 -8 -19q-8 -10 -25 -51 l-12 -31q-2 -4 -16.5 -35.5t-18.5 -45.5l-12 -27q-4 -4 -4 -8l-11 -29l-41 -74q-20 -35 -40.5 -46t-61.5 -11l-66 2q-39 6 -49 22.5t6 65.5l13 31l6 14l12 27l6 12l6 16q0 2 2.5 7.5t2.5 7.5l18 35v-2q16 33 20 47q4 6 17 34l4 15l33 78l22 45l29 69l31 78l28 76l6 14 q25 74 37 99l17 43l43 90l12 28q2 2 6 17.5t10.5 33t12.5 27.5q8 23 22 43q2 4 5 14.5t5 14.5l9 20l14 39l8 21q0 14 29 86l6 20q6 14 6 17l19 43q2 6 8 18t8 18zM678 1124l-12 43l-7 -28l-10 -31q0 -16 -8 -29l-23 -67l-18 -56l-18 -47l-17 -32q-20 -47 -26 -74 q-2 -4 -2 -8l-27 -64h127q82 0 160 2l-21 60q-4 4 -4 14l-22 72l-19 53l-10 33l-6 18zM764 1909l33 18l45 21q57 23 84 -19q20 -27 26 -45q14 -47 -24 -74l-105 -61q-4 -4 -20 -10l-49 -27l-25 -12l-20 -8l-7 -4l-24 -15l-21 -8h-2q-6 -4 -18 -8q-6 -4 -39 -21l-27 -8 q-74 -31 -98 37q-25 74 21 100l61 37q18 4 82 41l37 17l20 12l6 4q16 12 35 20z" glyph-name="Aacute" unicode=""/><glyph d="M551 1386l8 23l27 45q43 82 88 82q35 0 65.5 -49t89.5 -201l72 -199l6 -12l21 -69l24 -74l13 -31l14 -41l86 -256l20 -65l17 -47l14 -46q0 -2 6 -17t17.5 -43t17.5 -44q37 -92 39 -98l6 -29l2 -12l17 -33l6 -18l16 -54q20 -51 5 -76.5t-74 -23.5q-6 0 -18.5 1t-18.5 1 l-9 2q-80 0 -92 72q-4 23 -22 45l-6 14q-2 4 -2 6l-15 39q-18 37 -20 43q-6 12 -6 19l-7 14l-10 41q0 2 -2 6l-22 55q-4 4 -4 9q-27 68 -37 110q0 2 -15 31l-8 12h-313q-72 0 -90 -2h2l-25 -2l-2 -4l-6 -16q-2 -2 -2 -9q-18 -61 -47 -110v2q-4 -14 -8 -19q-8 -10 -25 -51 l-12 -31q-2 -4 -16.5 -35.5t-18.5 -45.5l-12 -27q-4 -4 -4 -8l-11 -29l-41 -74q-20 -35 -40.5 -46t-61.5 -11l-66 2q-39 6 -49 22.5t6 65.5l13 31l6 14l12 27l6 12l6 16q0 2 2.5 7.5t2.5 7.5l18 35v-2q16 33 20 47q4 6 17 34l4 15l33 78l22 45l29 69l31 78l28 76l6 14 q25 74 37 99l17 43l43 90l12 28q2 2 6 17.5t10.5 33t12.5 27.5q8 23 22 43q2 4 5 14.5t5 14.5l9 20l14 39l8 21q0 14 29 86l6 20q6 14 6 17l19 43q2 6 8 18t8 18zM678 1124l-12 43l-7 -28l-10 -31q0 -16 -8 -29l-23 -67l-18 -56l-18 -47l-17 -32q-20 -47 -26 -74 q-2 -4 -2 -8l-27 -64h127q82 0 160 2l-21 60q-4 4 -4 14l-22 72l-19 53l-10 33l-6 18zM688 1722l-37 37q-4 -4 -23.5 -26.5t-29.5 -34.5l-12 -12q-4 -4 -23 -25l-16 -21l-21 -22l-10 -8q-23 -23 -41 -23q-25 0 -65 41q-45 49 -13 86l43 49l25 25q23 23 31 33l59 63l35 33 q37 37 61 37q29 0 64 -35l30 -31q23 -23 29 -30q14 -16 31 -31l39 -45l30 -35l15 -14l20 -23q20 -20 13 -53q-4 -14 -41 -51q-41 -41 -84 4l-80 78z" glyph-name="Acircumflex" unicode=""/><glyph d="M551 1386l8 23l27 45q43 82 88 82q35 0 65.5 -49t89.5 -201l72 -199l6 -12l21 -69l24 -74l13 -31l14 -41l86 -256l20 -65l17 -47l14 -46q0 -2 6 -17t17.5 -43t17.5 -44q37 -92 39 -98l6 -29l2 -12l17 -33l6 -18l16 -54q20 -51 5 -76.5t-74 -23.5q-6 0 -18.5 1t-18.5 1 l-9 2q-80 0 -92 72q-4 23 -22 45l-6 14q-2 4 -2 6l-15 39q-18 37 -20 43q-6 12 -6 19l-7 14l-10 41q0 2 -2 6l-22 55q-4 4 -4 9q-27 68 -37 110q0 2 -15 31l-8 12h-313q-72 0 -90 -2h2l-25 -2l-2 -4l-6 -16q-2 -2 -2 -9q-18 -61 -47 -110v2q-4 -14 -8 -19q-8 -10 -25 -51 l-12 -31q-2 -4 -16.5 -35.5t-18.5 -45.5l-12 -27q-4 -4 -4 -8l-11 -29l-41 -74q-20 -35 -40.5 -46t-61.5 -11l-66 2q-39 6 -49 22.5t6 65.5l13 31l6 14l12 27l6 12l6 16q0 2 2.5 7.5t2.5 7.5l18 35v-2q16 33 20 47q4 6 17 34l4 15l33 78l22 45l29 69l31 78l28 76l6 14 q25 74 37 99l17 43l43 90l12 28q2 2 6 17.5t10.5 33t12.5 27.5q8 23 22 43q2 4 5 14.5t5 14.5l9 20l14 39l8 21q0 14 29 86l6 20q6 14 6 17l19 43q2 6 8 18t8 18zM678 1124l-12 43l-7 -28l-10 -31q0 -16 -8 -29l-23 -67l-18 -56l-18 -47l-17 -32q-20 -47 -26 -74 q-2 -4 -2 -8l-27 -64h127q82 0 160 2l-21 60q-4 4 -4 14l-22 72l-19 53l-10 33l-6 18zM547 1720q-29 0 -109 -63q-18 -14 -48 6t-46 54t0 55q37 41 99.5 75.5t97.5 34.5q68 0 108 -29q14 -4 76 -53q45 -25 72 -24q37 0 88 59q25 29 86 -7t43 -83q-23 -45 -82.5 -89 t-122.5 -48q-41 -4 -115 34l-76 54l-32 16q-12 8 -39 8z" glyph-name="Atilde" unicode=""/><glyph d="M551 1386l8 23l27 45q43 82 88 82q35 0 65.5 -49t89.5 -201l72 -199l6 -12l21 -69l24 -74l13 -31l14 -41l86 -256l20 -65l17 -47l14 -46q0 -2 6 -17t17.5 -43t17.5 -44q37 -92 39 -98l6 -29l2 -12l17 -33l6 -18l16 -54q20 -51 5 -76.5t-74 -23.5q-6 0 -18.5 1t-18.5 1 l-9 2q-80 0 -92 72q-4 23 -22 45l-6 14q-2 4 -2 6l-15 39q-18 37 -20 43q-6 12 -6 19l-7 14l-10 41q0 2 -2 6l-22 55q-4 4 -4 9q-27 68 -37 110q0 2 -15 31l-8 12h-313q-72 0 -90 -2h2l-25 -2l-2 -4l-6 -16q-2 -2 -2 -9q-18 -61 -47 -110v2q-4 -14 -8 -19q-8 -10 -25 -51 l-12 -31q-2 -4 -16.5 -35.5t-18.5 -45.5l-12 -27q-4 -4 -4 -8l-11 -29l-41 -74q-20 -35 -40.5 -46t-61.5 -11l-66 2q-39 6 -49 22.5t6 65.5l13 31l6 14l12 27l6 12l6 16q0 2 2.5 7.5t2.5 7.5l18 35v-2q16 33 20 47q4 6 17 34l4 15l33 78l22 45l29 69l31 78l28 76l6 14 q25 74 37 99l17 43l43 90l12 28q2 2 6 17.5t10.5 33t12.5 27.5q8 23 22 43q2 4 5 14.5t5 14.5l9 20l14 39l8 21q0 14 29 86l6 20q6 14 6 17l19 43q2 6 8 18t8 18zM678 1124l-12 43l-7 -28l-10 -31q0 -16 -8 -29l-23 -67l-18 -56l-18 -47l-17 -32q-20 -47 -26 -74 q-2 -4 -2 -8l-27 -64h127q82 0 160 2l-21 60q-4 4 -4 14l-22 72l-19 53l-10 33l-6 18zM520 1868q45 0 70.5 -26.5t32.5 -59.5q4 -47 -28 -86t-67 -49q-35 -8 -68.5 4t-47.5 43q-10 27 -11 53q0 39 25 73.5t59 45.5q10 0 19 2h10h6zM838 1868q43 0 73.5 -26.5t32.5 -57.5 q6 -39 -30.5 -80t-71.5 -55q-25 -8 -54.5 3t-46.5 40q-23 45 -7 90t54 69q23 17 50 17z" glyph-name="Adieresis" unicode=""/><glyph d="M551 1386l8 23l27 45q43 82 88 82q35 0 65.5 -49t89.5 -201l72 -199l6 -12l21 -69l24 -74l13 -31l14 -41l86 -256l20 -65l17 -47l14 -46q0 -2 6 -17t17.5 -43t17.5 -44q37 -92 39 -98l6 -29l2 -12l17 -33l6 -18l16 -54q20 -51 5 -76.5t-74 -23.5q-6 0 -18.5 1t-18.5 1 l-9 2q-80 0 -92 72q-4 23 -22 45l-6 14q-2 4 -2 6l-15 39q-18 37 -20 43q-6 12 -6 19l-7 14l-10 41q0 2 -2 6l-22 55q-4 4 -4 9q-27 68 -37 110q0 2 -15 31l-8 12h-313q-72 0 -90 -2h2l-25 -2l-2 -4l-6 -16q-2 -2 -2 -9q-18 -61 -47 -110v2q-4 -14 -8 -19q-8 -10 -25 -51 l-12 -31q-2 -4 -16.5 -35.5t-18.5 -45.5l-12 -27q-4 -4 -4 -8l-11 -29l-41 -74q-20 -35 -40.5 -46t-61.5 -11l-66 2q-39 6 -49 22.5t6 65.5l13 31l6 14l12 27l6 12l6 16q0 2 2.5 7.5t2.5 7.5l18 35v-2q16 33 20 47q4 6 17 34l4 15l33 78l22 45l29 69l31 78l28 76l6 14 q25 74 37 99l17 43l43 90l12 28q2 2 6 17.5t10.5 33t12.5 27.5q8 23 22 43q2 4 5 14.5t5 14.5l9 20l14 39l8 21q0 14 29 86l6 20q6 14 6 17l19 43q2 6 8 18t8 18zM678 1124l-12 43l-7 -28l-10 -31q0 -16 -8 -29l-23 -67l-18 -56l-18 -47l-17 -32q-20 -47 -26 -74 q-2 -4 -2 -8l-27 -64h127q82 0 160 2l-21 60q-4 4 -4 14l-22 72l-19 53l-10 33l-6 18zM774 1942q86 -47 90 -170q-2 -68 -26.5 -105t-73.5 -72q-41 -23 -88 -22q-137 0 -182 80q-29 45 -29 108q0 152 143 197q33 12 68 12q59 1 98 -28zM621 1821q-8 -6 -17 -25q-8 -10 2 -45 q2 -16 27.5 -27.5t48.5 -11.5q29 2 47 49q8 18 -12 54q-2 4 -33 14q-38 6 -63 -8z" glyph-name="Aring" unicode=""/><glyph d="M1415 1534q41 0 55.5 -17.5t14.5 -68.5l-2 -33q0 -31 -12.5 -49t-31 -22.5t-39 -6.5t-34.5 0h-8q-68 0 -109 -2q-25 -2 -82 -2q-29 0 -47 -2h-88l-127 -2h-26q0 -59 4 -96q4 -74 4 -113q0 -37 -4 -82l-2 -4v-8v-108q-4 -14 -2 -35h147q29 -4 37 -4q33 0 70 4l141 -4 q41 0 52 -21.5t11 -62.5q2 -35 -1 -55.5t-15 -29t-22.5 -9.5t-36.5 -1h-29q-84 -8 -133 -4h-76q-23 -2 -70 -2l-65 2h-8v-94q2 -16 -2 -65v-23l-2 -49q-2 -23 4 -84q2 -35 2 -115l-2 -55v-4q45 -4 123 -4q8 0 25.5 -1t27.5 -1q49 -4 100 0h125l74 -4q6 0 15 -1t13 -1 q55 -4 67.5 -14.5t18.5 -63.5q2 -68 -5 -84.5t-42 -28.5q-6 0 -10 -2q-16 -2 -172 2h-194q-102 0 -191 -4h-100q-55 0 -70.5 23.5t-15.5 80.5v35q2 63 2 187v192h-72q-129 0 -160 -2q-2 -2 -24 -2l-2 -4l-6 -16q-2 -2 -2 -9q-18 -61 -48 -110q-4 -12 -8 -17q-8 -10 -24 -51 l-13 -31l-47 -108q-4 -4 -4 -8l-10 -29l-49 -88q-16 -31 -30.5 -37t-51.5 -6h-12l-66 2q-39 6 -48 22.5t7 65.5l16 45l13 27l6 12l6 16q0 2 5 13.5t5 13.5l13 23l4 6q2 6 6 15t6 13q12 20 20 48q0 2 2 6t2 6l33 78l23 45l31 69l30 78l27 76l6 14q25 74 37 99l59 133l13 28 q2 2 6 17.5t10 33t12 27.5q8 23 23 43l12 29l8 20l15 39l8 21q0 14 28 86l5 20q6 14 6 17l18 43q2 6 8 18t8 18l9 23l26 45q43 82 88 82h105q123 0 172 -2q119 -4 135 -2q61 4 174 4zM670 1018l4 229l-37 -108l-10 -31q0 -16 -9 -29l-22 -67l-18 -56l-15 -47l-16 -32 q-20 -45 -27 -72v-6l-2 -4l-29 -68h54q16 0 40.5 -1t34.5 -1h52v18l2 131q0 95 -2 144z" glyph-name="AE" horiz-adv-x="1570" unicode=""/><glyph d="M1108 1282l-14 -12q-23 -29 -36.5 -33t-62.5 10l-37 19q-8 8 -22 14l-43 29l-43 16q-53 14 -94 14l-37 -2q-25 -4 -45 -4q-88 -20 -176 -80q-51 -53 -131 -170l2 2q-70 -143 -82 -305v-26q-4 -43 -2 -52q4 -78 30 -190q47 -115 64 -143l24 -25q37 -43 64 -68l29 -20 q8 -8 19 -14t20 -9l8 -2l45 -12q8 -4 26 -4l25 -2q35 -14 162 -14h16l55 14q8 4 27 14.5t23 12.5l26 12q8 6 41 29l19 10q66 37 114 -45q41 -74 13 -94l-60 -52q-47 -41 -108 -71l-11 -4h2q-80 -31 -145 -31q-31 0 -49 -2q-45 -4 -78 -2l-20 4v-33h12q70 -6 78 -8 q10 0 37 -12q123 -57 125 -183q2 -70 -15 -112q-47 -102 -125 -142q-51 -23 -53 -22l-39 -4q-37 0 -53 2q-51 4 -70 14q-6 4 -18 8q-41 16 -80 56q-31 31 6 92q25 45 45.5 53t46.5 -10l45 -19q27 -14 50.5 -15t33.5 5l10 6q20 10 29 33l6 25q10 39 -30 65q-16 10 -37 10h-8 q-8 2 -13 2q-25 4 -43 5l-80 -3q-18 0 -32.5 12.5t-14.5 37.5v180q-61 20 -106 43q-68 41 -197 213q-57 96 -86 301v-2q-8 33 -8 110q0 121 10 172v-2q39 281 144 412l30 33l6 6l11 14q6 6 18 25q39 43 68 59h-2l14 10.5t10 6.5t6 4l41 33l25 14q104 53 211 57q4 0 12 2 l74 2q111 -2 188 -41l101 -53q51 -37 86 -76q26 -28 -27 -98z" glyph-name="Ccedilla" horiz-adv-x="1290" unicode=""/><glyph d="M893 1534q66 -2 81 -13.5t23 -72.5l-2 -33q0 -84 -116 -78h-9q-68 0 -108 -2q-25 -2 -84 -2q-27 0 -45 -2l-217 -2h-6h-8.5h-10.5q0 -59 4 -96q4 -74 4 -113q0 -37 -4 -82l-2 -4v-8q-6 -92 -2 -119h148q29 -4 36 -4q33 0 70 4l133 -6q33 0 49.5 -13.5t19.5 -27.5t3 -41 q2 -35 -1 -54.5t-16.5 -27.5t-22.5 -9t-38 -1h-18q-92 -8 -142 -4h-75q-23 -2 -72 -2l-64 2h-8v-121q2 -16 -2 -65v-23l-2 -49q-2 -23 4 -84q2 -35 2 -115l-2 -57v-4q41 -4 123 -4q8 0 25.5 -1t27.5 -1q49 -4 99 0h127l73 -4q6 0 15.5 -1t11.5 -1q33 -2 43 -3.5t23.5 -9.5 t15.5 -21.5t6 -41.5q2 -68 -5 -84.5t-44 -28.5q-6 0 -10 -2q-16 -2 -170 2h-195q-104 0 -190 -4h-101q-55 0 -71.5 23.5t-16.5 80.5v35q2 63 2 187v217q0 61 -2 92l-2 113l4 126q0 94 -2 144v90l2 43q0 39 -2 57q-2 29 -2 103q0 98 2 135v8q2 29 5 43t24.5 26.5t62.5 12.5 q123 0 170 -2q121 -4 138 -2q61 4 174 4zM481 1929l11 -6l32 -18l29 -19l6 -4l10 -6q6 -6 13 -6q29 -18 43 -25q61 -29 82 -39q8 -4 31.5 -19t37.5 -24q33 -20 8 -90q-23 -66 -96 -37l-31 11q-2 0 -13 5t-19 9q-6 4 -19.5 10t-15.5 6l-12 6l-25 13l-12 8l-17 6l-22 12 l-49 31q-16 4 -21 10q-16 8 -50 31t-50 33q-37 29 -27 65q6 12 27 45q33 45 76 29l51 -22z" glyph-name="Egrave" horiz-adv-x="1157" unicode=""/><glyph d="M893 1534q66 -2 81 -13.5t23 -72.5l-2 -33q0 -84 -116 -78h-9q-68 0 -108 -2q-25 -2 -84 -2q-27 0 -45 -2l-217 -2h-6h-8.5h-10.5q0 -59 4 -96q4 -74 4 -113q0 -37 -4 -82l-2 -4v-8q-6 -92 -2 -119h148q29 -4 36 -4q33 0 70 4l133 -6q33 0 49.5 -13.5t19.5 -27.5t3 -41 q2 -35 -1 -54.5t-16.5 -27.5t-22.5 -9t-38 -1h-18q-92 -8 -142 -4h-75q-23 -2 -72 -2l-64 2h-8v-121q2 -16 -2 -65v-23l-2 -49q-2 -23 4 -84q2 -35 2 -115l-2 -57v-4q41 -4 123 -4q8 0 25.5 -1t27.5 -1q49 -4 99 0h127l73 -4q6 0 15.5 -1t11.5 -1q33 -2 43 -3.5t23.5 -9.5 t15.5 -21.5t6 -41.5q2 -68 -5 -84.5t-44 -28.5q-6 0 -10 -2q-16 -2 -170 2h-195q-104 0 -190 -4h-101q-55 0 -71.5 23.5t-16.5 80.5v35q2 63 2 187v217q0 61 -2 92l-2 113l4 126q0 94 -2 144v90l2 43q0 39 -2 57q-2 29 -2 103q0 98 2 135v8q2 29 5 43t24.5 26.5t62.5 12.5 q123 0 170 -2q121 -4 138 -2q61 4 174 4zM725 1913l33 18l45 21q57 23 84 -19q20 -27 26 -45q14 -47 -24 -73l-105 -62q-6 -4 -20 -10l-49 -27l-25 -12l-20 -8l-6 -4l-25 -15l-21 -8h-2q-6 -4 -18 -8q-6 -4 -39 -21l-27 -8q-74 -31 -98 37q-25 74 21 100l61 37q18 4 82 41 l37 17l20 12l7 4q16 12 34 21z" glyph-name="Eacute" horiz-adv-x="1157" unicode=""/><glyph d="M893 1534q66 -2 81 -13.5t23 -72.5l-2 -33q0 -84 -116 -78h-9q-68 0 -108 -2q-25 -2 -84 -2q-27 0 -45 -2l-217 -2h-6h-8.5h-10.5q0 -59 4 -96q4 -74 4 -113q0 -37 -4 -82l-2 -4v-8q-6 -92 -2 -119h148q29 -4 36 -4q33 0 70 4l133 -6q33 0 49.5 -13.5t19.5 -27.5t3 -41 q2 -29 -2 -47t-7 -27.5t-17.5 -13.5t-20.5 -4h-31h-18q-92 -8 -142 -4h-75q-23 -2 -72 -2l-64 2h-8v-121q2 -16 -2 -65v-23l-2 -49q-2 -23 4 -84q2 -35 2 -115l-2 -57v-4q41 -4 123 -4q8 0 25.5 -1t27.5 -1q49 -4 99 0h127l73 -4q6 0 15.5 -1t11.5 -1q57 -4 69.5 -13.5 t18.5 -62.5q2 -68 -5 -84.5t-44 -28.5q-6 0 -10 -2q-16 -2 -170 2h-195q-104 0 -190 -4h-101q-55 0 -71.5 23.5t-16.5 80.5v35q2 63 2 187v217q0 61 -2 92l-2 113l4 126q0 94 -2 144v90l2 43q0 39 -2 57q-2 29 -2 103q0 98 2 135v8q2 29 5 43t24.5 26.5t62.5 12.5 q123 0 170 -2q121 -4 138 -2q61 4 174 4q80 0 139 -2zM651 1757l-37 37q-4 -4 -23.5 -26.5t-29.5 -34.5l-12 -13q-4 -4 -23 -24l-16 -21l-21 -22l-10 -8q-23 -23 -41 -23q-25 0 -65 41q-45 49 -13 86l43 49l25 25q23 23 31 32l59 64l35 33q37 37 61 37q29 0 64 -35l31 -31 q23 -23 28 -31q14 -16 31 -30l39 -45l31 -35l14 -15l20 -22q20 -20 13 -53q-4 -16 -41 -52q-41 -39 -84 5l-80 77z" glyph-name="Ecircumflex" horiz-adv-x="1157" unicode=""/><glyph d="M893 1534q66 -2 81 -13.5t23 -72.5l-2 -33q0 -84 -116 -78h-9q-68 0 -108 -2q-25 -2 -84 -2q-27 0 -45 -2l-217 -2h-6h-8.5h-10.5q0 -59 4 -96q4 -74 4 -113q0 -37 -4 -82l-2 -4v-8q-6 -92 -2 -119h148q29 -4 36 -4q33 0 70 4l133 -6q33 0 49.5 -13.5t19.5 -27.5t3 -41 q2 -35 -1 -54.5t-16.5 -27.5t-22.5 -9t-38 -1h-18q-92 -8 -142 -4h-75q-23 -2 -72 -2l-64 2h-8v-121q2 -16 -2 -65v-23l-2 -49q-2 -23 4 -84q2 -35 2 -115l-2 -57v-4q41 -4 123 -4q8 0 25.5 -1t27.5 -1q49 -4 99 0h127l73 -4q6 0 15.5 -1t11.5 -1q33 -2 43 -3.5t23.5 -9.5 t15.5 -21.5t6 -41.5q2 -68 -5 -84.5t-44 -28.5q-6 0 -10 -2q-16 -2 -170 2h-195q-104 0 -190 -4h-101q-55 0 -71.5 23.5t-16.5 80.5v35q2 63 2 187v217q0 61 -2 92l-2 113l4 126q0 94 -2 144v90l2 43q0 39 -2 57q-2 29 -2 103q0 98 2 135v8q2 29 5 43t24.5 26.5t62.5 12.5 q123 0 170 -2q121 -4 138 -2q61 4 174 4zM465 1876q45 0 70.5 -26.5t31.5 -59.5q4 -47 -27.5 -86t-66.5 -49q-35 -8 -68.5 4t-48.5 43q-10 27 -10 53q0 39 24.5 74t59.5 45q10 0 21 2h8h6zM782 1876q43 0 74 -26.5t33 -57.5q6 -39 -31 -80t-72 -55q-25 -8 -54.5 3t-45.5 40 q-23 45 -7.5 90t54.5 70q22 16 49 16z" glyph-name="Edieresis" horiz-adv-x="1157" unicode=""/><glyph d="M375 1446v-6q2 -45 -2 -117q-2 -14 -2 -53q0 -41 -2 -62v-20q0 -2 2 -60q4 -106 4 -344v-385q0 -6 2 -16v-12q6 -37 2 -58q0 -31 -2 -39v-18q4 -18 4 -55l2 -19q2 -12 2 -37v-28q2 -33 1 -55.5t-10 -37t-30.5 -20.5t-60.5 -6t-60.5 6t-31 25.5t-11.5 37t-2 60.5l-2 8v60 q-4 51 -4 170v75q2 39 2 119q0 98 -2 148v90q0 14 -1 44.5t-1 47.5v24q0 10 1 30t1 26v96q-2 14 -2 51q0 57 -2 90v54q0 27 2 38q0 6 1 15.5t1 11.5v127q0 55 23.5 71.5t78.5 12.5q68 -6 83.5 -18.5t15.5 -71.5zM203 1937l10 -6l33 -18l28 -19l7 -4l10 -6q6 -6 12 -6 q29 -18 43 -25q61 -29 82 -38q8 -4 31.5 -19.5t38.5 -23.5q33 -20 8 -91q-23 -66 -96 -36l-31 10q-2 0 -13.5 5t-19.5 9q-6 4 -19.5 10.5t-15.5 6.5l-12 6l-25 12l-12 8l-16 6l-23 13l-49 30q-14 4 -20 11q-16 8 -50 30.5t-51 32.5q-37 29 -26 66q6 12 26 45q33 45 76 28 l51 -22z" glyph-name="Igrave" horiz-adv-x="583" unicode=""/><glyph d="M375 1446v-6q2 -45 -2 -117q-2 -14 -2 -53q0 -41 -2 -62v-20q0 -2 2 -60q4 -106 4 -344v-385q0 -6 2 -16v-12q6 -37 2 -58q0 -31 -2 -39v-18q4 -18 4 -55l2 -19q2 -12 2 -37v-28q2 -33 1 -55.5t-10 -37t-30.5 -20.5t-60.5 -6t-60.5 6t-31 25.5t-11.5 37t-2 60.5l-2 8v60 q-4 51 -4 170v75q2 39 2 119q0 98 -2 148v90q0 14 -1 44.5t-1 47.5v24q0 10 1 30t1 26v96q-2 14 -2 51q0 57 -2 90v54q0 27 2 38q0 6 1 15.5t1 11.5v127q0 55 23.5 71.5t78.5 12.5q68 -6 83.5 -18.5t15.5 -71.5zM344 1915l33 18l45 21q57 23 84 -19q20 -27 26 -45 q14 -47 -24 -73l-105 -62q-6 -6 -20 -10l-49 -27l-25 -12l-20 -8l-6 -4l-25 -15l-20 -8h-2q-6 -4 -19 -8q-6 -4 -39 -21l-26 -8q-74 -31 -99 37q-25 74 21 101l61 36q18 4 82 41l37 17l20 12l7 4q16 12 34 21z" glyph-name="Iacute" horiz-adv-x="583" unicode=""/><glyph d="M375 1440q2 -45 -2 -117q-2 -14 -2 -53q0 -41 -2 -62v-20q0 -2 2 -60q4 -106 4 -344v-385q0 -6 2 -16v-12q6 -37 2 -58q0 -31 -2 -39v-18q4 -18 4 -55l2 -19q2 -12 2 -37v-28q2 -33 1 -55.5t-10 -37t-30.5 -20.5t-60.5 -6t-60.5 6t-31 25.5t-11.5 37t-2 60.5l-2 8v60 q-4 51 -4 170v75q2 39 2 119q0 98 -2 148v90q0 14 -1 44.5t-1 47.5v24q0 10 1 30t1 26v96q-2 14 -2 51q0 57 -2 90v54l2 38q0 6 1 15.5t1 11.5v127q0 55 23.5 71.5t78.5 12.5q68 -6 83.5 -18.5t15.5 -71.5v-6zM272 1776l-36 36q-4 -4 -23.5 -26.5t-30.5 -34.5l-12 -12 q-4 -4 -23 -25l-16 -20l-20 -23l-11 -8q-23 -23 -41 -23q-25 0 -65 41q-45 49 -12 86l43 50l24 24q23 23 31 33l59 63l35 33q37 37 62 37q29 0 63 -35l31 -30q23 -23 28 -31q14 -16 31 -31l39 -45l31 -35l14 -14l21 -23q20 -20 12 -53q-6 -14 -41 -51q-39 -41 -84 4l-80 78z " glyph-name="Icircumflex" horiz-adv-x="583" unicode=""/><glyph d="M375 1446v-6q2 -45 -2 -117q-2 -14 -2 -53q0 -41 -2 -62v-20q0 -2 2 -60q4 -106 4 -344v-385q0 -6 2 -16v-12q6 -37 2 -58q0 -31 -2 -39v-18q4 -18 4 -55l2 -19q2 -12 2 -37v-28q2 -33 1 -55.5t-10 -37t-30.5 -20.5t-60.5 -6t-60.5 6t-31 25.5t-11.5 37t-2 60.5l-2 8v60 q-4 51 -4 170v75q2 39 2 119q0 98 -2 148v90q0 14 -1 44.5t-1 47.5v24q0 10 1 30t1 26v96q-2 14 -2 51q0 57 -2 90v54q0 27 2 38q0 6 1 15.5t1 11.5v127q0 55 23.5 71.5t78.5 12.5q68 -6 83.5 -18.5t15.5 -71.5zM96 1896q45 0 71 -26.5t32 -59.5q4 -47 -28 -85.5t-67 -49.5 q-35 -8 -68.5 4.5t-47.5 42.5q-10 27 -11 54q0 39 25 73.5t59 44.5q10 0 21 2h8h6zM414 1896q43 0 73.5 -26.5t32.5 -57.5q6 -39 -30.5 -79.5t-71.5 -55.5q-25 -8 -54.5 3.5t-46.5 39.5q-23 45 -7 90t55 70q22 16 49 16z" glyph-name="Idieresis" horiz-adv-x="583" unicode=""/><glyph d="M190 90v119q0 109 5 309v135h-105q-68 4 -86 28t-12 97q10 53 26.5 63.5t75.5 10.5h17q45 4 84 4v252l4 143v88l2 72l2 70q-2 27 15.5 41t53.5 14h78q137 0 271 -18q236 -39 405 -209l18 -25l48 -51q63 -88 104 -240l6 -24l6 -35q16 -61 17 -148q4 -39 -4 -110l-7 -78 l-18 -74q-2 -25 -27 -78l-18 -38l-8 -17l-8 -14l-21 -39l-18 -21l-25 -36l-20 -25q-25 -45 -66 -70q-199 -150 -367 -176q-86 -12 -237 -12q-6 2 -42 2t-52 -2q-66 4 -81.5 17.5t-15.5 74.5zM532 197q90 0 152 41l64 34l81 60l29 22q31 27 62 68l16 20l18 43q31 53 52 152 q10 41 10 96q0 10 2 17v45q0 2 -1 9t-1 13q0 4 -1 12.5t-1 14.5q-27 115 -41 149l-25 54l-28 45l-41 57l-15 18l-20 29q-33 25 -41 35q-18 18 -41 31l-57 26l-52 12l-35 11l-28 10q-14 4 -59.5 7t-51.5 1l-73 -2v-104l-3 -31v-109q-4 -45 -4 -67q0 -57 2 -82v-78 q88 0 111 -2h55q68 2 93.5 -15.5t25.5 -93.5q0 -59 -25.5 -77.5t-89.5 -18.5h-170q-4 -102 -4 -153v-303z" glyph-name="Eth" horiz-adv-x="1388" unicode=""/><glyph d="M467 1325q4 -6 19.5 -26.5t21.5 -32.5l57 -92l49 -87l35 -59l8 -12l27 -45l8 -17q39 -72 88 -143l62 -109l26 -36l74 -142l53 -114q-2 66 -10 176l2 131v153q-2 55 -2 164q0 49 -2 78q-4 104 -2 166l6 147q6 68 23.5 86.5t72.5 22.5q39 0 61.5 -5t32 -18.5t11.5 -24.5 t2 -36v-8l2 -82q0 -72 -2 -96q-4 -115 -4 -308l2 -51v2q2 -10 2 -55v-262q-2 -23 2 -41v-361q2 -16 2 -53v-55q0 -80 -82 -80q-59 0 -102 61q-27 39 -64 93l-18 26l-74 109l-98 147l-17 31q-8 16 -47 80l-12 20l-43 78l-21 37l-57 78l-41 80l-16 26l-94 183l-39 81l8 -116 q0 -14 4 -52t4 -49l2 -69l2 -15l-4 -127q0 -20 2 -32v-13l2 -20q2 -29 2 -86v-27l-2 -143q-4 -41 -2 -55l6 -35l4 -53v-48q0 -16 2 -36l2 -11l-2 -59q0 -29 -3 -45t-14 -24.5t-21.5 -10.5t-34.5 -4q-2 0 -7.5 -1t-7.5 -1h-28q-43 8 -59.5 24.5t-20.5 53.5q-4 41 -4 96 q-2 14 -2 70q-4 53 -4 77l-3 127l-2 158v27l-4 110q-4 31 0 58v131l-2 53v23q2 29 -2 81q0 8 -1 22.5t-1 18.5v62l2 94q-2 39 -2 178q0 72 70 72q51 0 79.5 -16.5t53.5 -57.5l61 -92zM553 1702q-29 0 -109 -64q-18 -14 -47.5 6.5t-46 54.5t-0.5 54q37 41 99.5 76t97.5 35 q68 0 108 -29q14 -4 76 -53q45 -25 72 -25q37 0 88 60q25 29 86 -7t43 -84q-23 -45 -82 -89t-123 -48q-41 -4 -115 35l-75 53l-33 17q-12 8 -39 8z" glyph-name="Ntilde" horiz-adv-x="1462" unicode=""/><glyph d="M276 1395q74 70 143.5 106.5t172.5 42.5l55 2h23q6 0 10 -2h10q156 -10 314 -141q127 -123 151 -297q0 -14 4 -31v-20q0 -6 2 -19v-47q4 -25 4 -43l2 -78v-231q0 -49 -4 -70q-2 -8 -2 -20q0 -70 -6 -113q-2 -4 -2 -6q-2 -4 -2 -8q-27 -117 -57 -168q-82 -133 -146 -174 l-108 -49l-43 -17q-55 -16 -160 -24h-41q-86 4 -129 24q-178 82 -272 232q-59 111 -70 276q-2 27 -2 88v74q0 96 -2 147v115q2 14 4 21v28q0 6 2 17v26q2 12 2 25q4 25 4 43q24 172 143 291zM446 270q41 -39 74 -52t90 -19q27 0 37 -2q84 8 115 30l57 29q4 2 10.5 6t8.5 4 l20 21q43 49 80 139q2 4 2 16l6 39q4 41 8 54v2l2 4q8 20 9 55v115q-2 16 -2 49q0 129 -13 272q-10 145 -102 217q-88 84 -191 88h-41q-18 0 -24 -2l-27 -2q-80 -31 -121 -69q-102 -61 -116 -351q-6 -63 -6 -112v-176q-2 -20 -3 -50q4 -47 21 -122q2 -33 6 -39 q51 -97 100 -144zM530 1946l11 -7l32 -18l29 -18l6 -5l10 -6q6 -6 13 -6q29 -18 43 -24q61 -29 82 -39q8 -4 31.5 -19.5t37.5 -23.5q33 -20 9 -90q-23 -66 -97 -37l-30 10q-2 0 -13.5 5t-19.5 9q-6 4 -19.5 10.5t-15.5 6.5l-12 6l-25 12l-12 8l-17 6l-22 13l-49 30 q-16 4 -21 11q-16 10 -49 32.5t-51 30.5q-37 29 -27 66q6 12 27 45q33 45 76 28l51 -22z" glyph-name="Ograve" horiz-adv-x="1370" unicode=""/><glyph d="M276 1395q74 70 143.5 106.5t172.5 42.5l55 2h23q6 0 10 -2h10q156 -10 314 -141q127 -123 151 -297q0 -14 4 -31v-20q0 -6 2 -19v-47q4 -25 4 -43l2 -78v-231q0 -49 -4 -70q-2 -8 -2 -20q0 -70 -6 -113q-2 -4 -2 -6q-2 -4 -2 -8q-27 -117 -57 -168q-82 -133 -146 -174 l-108 -49l-43 -17q-55 -16 -160 -24h-41q-86 4 -129 24q-178 82 -272 232q-59 111 -70 276q-2 27 -2 88v74q0 96 -2 147v115q2 14 4 21v28q0 6 2 17v26q2 12 2 25q4 25 4 43q24 172 143 291zM446 270q41 -39 74 -52t90 -19q27 0 37 -2q84 8 115 30l57 29q4 2 10.5 6t8.5 4 l20 21q43 49 80 139q2 4 2 16l6 39q4 41 8 54v2l2 4q8 20 9 55v115q-2 16 -2 49q0 129 -13 272q-10 145 -102 217q-88 84 -191 88h-41q-18 0 -24 -2l-27 -2q-80 -31 -121 -69q-102 -61 -116 -351q-6 -63 -6 -112v-176q-2 -20 -3 -50q4 -47 21 -122q2 -33 6 -39 q51 -97 100 -144zM762 1931l33 19l45 20q57 23 84 -18q20 -27 26 -45q14 -47 -24 -74l-105 -61q-6 -6 -20 -11l-49 -26l-25 -13l-20 -8l-7 -4l-24 -14l-21 -8h-2q-6 -4 -18 -9q-6 -4 -39 -20l-27 -8q-74 -31 -98 37q-25 74 21 100l61 37q18 4 82 41l37 16l20 12l6 4 q16 12 35 21z" glyph-name="Oacute" horiz-adv-x="1370" unicode=""/><glyph d="M276 1395q74 70 143.5 106.5t172.5 42.5l55 2h23q6 0 10 -2h10q156 -10 314 -141q127 -123 151 -297q0 -14 4 -31v-20q0 -6 2 -19v-47q4 -25 4 -43l2 -78v-231q0 -49 -4 -70q-2 -8 -2 -20q0 -70 -6 -113q-2 -4 -2 -6q-2 -4 -2 -8q-27 -117 -57 -168q-82 -133 -146 -174 l-108 -49l-43 -17q-55 -16 -160 -24h-41q-86 4 -129 24q-178 82 -272 232q-59 111 -70 276q-2 27 -2 88v74q0 96 -2 147v115q2 14 4 21v28q0 6 2 17v26q2 12 2 25q4 25 4 43q24 172 143 291zM446 270q41 -39 74 -52t90 -19q27 0 37 -2q84 8 115 30l57 29q4 2 10.5 6t8.5 4 l20 21q43 49 80 139q2 4 2 16l6 39q4 41 8 54v2l2 4q8 20 9 55v115q-2 16 -2 49q0 129 -13 272q-10 145 -102 217q-88 84 -191 88h-41q-18 0 -24 -2l-27 -2q-80 -31 -121 -69q-102 -61 -116 -351q-6 -63 -6 -112v-176q-2 -20 -3 -50q4 -47 21 -122q2 -33 6 -39 q51 -97 100 -144zM686 1761l-37 37q-4 -4 -23.5 -26.5t-29.5 -34.5l-12 -13q-4 -4 -23 -24l-16 -21l-21 -22l-10 -8q-23 -23 -41 -23q-25 0 -65 41q-45 49 -13 86l43 49l25 25q23 23 31 33l59 63l35 33q37 37 61 37q29 0 64 -35l30 -31q23 -23 29 -31q14 -16 31 -30l39 -45 l30 -35l15 -14l20 -23q20 -20 13 -53q-6 -14 -41 -51q-39 -39 -84 4l-80 77z" glyph-name="Ocircumflex" horiz-adv-x="1370" unicode=""/><glyph d="M276 1395q74 70 143.5 106.5t172.5 42.5l55 2h23q6 0 10 -2h10q156 -10 314 -141q127 -123 151 -297q0 -14 4 -31v-20q0 -6 2 -19v-47q4 -25 4 -43l2 -78v-231q0 -49 -4 -70q-2 -8 -2 -20q0 -70 -6 -113q-2 -4 -2 -6q-2 -4 -2 -8q-27 -117 -57 -168q-82 -133 -146 -174 l-108 -49l-43 -17q-55 -16 -160 -24h-41q-86 4 -129 24q-178 82 -272 232q-59 111 -70 276q-2 27 -2 88v74q0 96 -2 147v115q2 14 4 21v28q0 6 2 17v26q2 12 2 25q4 25 4 43q24 172 143 291zM446 270q41 -39 74 -52t90 -19q27 0 37 -2q84 8 115 30l57 29q4 2 10.5 6t8.5 4 l20 21q43 49 80 139q2 4 2 16l6 39q4 41 8 54v2l2 4q8 20 9 55v115q-2 16 -2 49q0 129 -13 272q-10 145 -102 217q-88 84 -191 88h-41q-18 0 -24 -2l-27 -2q-80 -31 -121 -69q-102 -61 -116 -351q-6 -63 -6 -112v-176q-2 -20 -3 -50q4 -47 21 -122q2 -33 6 -39 q51 -97 100 -144zM524 1753q-29 0 -108 -63q-18 -14 -48 6t-46.5 54t0.5 54q37 41 99 76t97 35q68 0 109 -29q14 -4 75 -53q45 -25 72 -25q37 0 88 60q25 29 86.5 -7t42.5 -83q-23 -45 -82 -89t-123 -49q-41 -4 -114 35l-76 54l-33 16q-12 8 -39 8z" glyph-name="Otilde" horiz-adv-x="1370" unicode=""/><glyph d="M276 1395q74 70 143.5 106.5t172.5 42.5l55 2h23q6 0 10 -2h10q156 -10 314 -141q127 -123 151 -297q0 -14 4 -31v-20q0 -6 2 -19v-47q4 -25 4 -43l2 -78v-231q0 -49 -4 -70q-2 -8 -2 -20q0 -70 -6 -113q-2 -4 -2 -6q-2 -4 -2 -8q-27 -117 -57 -168q-82 -133 -146 -174 l-108 -49l-43 -17q-55 -16 -160 -24h-41q-86 4 -129 24q-178 82 -272 232q-59 111 -70 276q-2 27 -2 88v74q0 96 -2 147v115q2 14 4 21v28q0 6 2 17v26q2 12 2 25q4 25 4 43q24 172 143 291zM446 270q41 -39 74 -52t90 -19q27 0 37 -2q84 8 115 30l57 29q4 2 10.5 6t8.5 4 l20 21q43 49 80 139q2 4 2 16l6 39q4 41 8 54v2l2 4q8 20 9 55v115q-2 16 -2 49q0 129 -13 272q-10 145 -102 217q-88 84 -191 88h-41q-18 0 -24 -2l-27 -2q-80 -31 -121 -69q-102 -61 -116 -351q-6 -63 -6 -112v-176q-2 -20 -3 -50q4 -47 21 -122q2 -33 6 -39 q51 -97 100 -144zM508 1886q45 0 70.5 -26.5t31.5 -59.5q4 -47 -27.5 -86t-66.5 -49q-35 -8 -68.5 4t-48.5 43q-10 27 -10 53q0 39 24.5 74t59.5 45h19l10 2h6zM825 1886q43 0 74 -26.5t33 -57.5q6 -39 -31 -80t-72 -55q-25 -8 -54.5 3t-45.5 40q-23 45 -7.5 90t54.5 70 q22 16 49 16z" glyph-name="Odieresis" horiz-adv-x="1370" unicode=""/><glyph d="M559 891l25 20q61 57 89.5 57.5t67.5 -38.5t39 -72q0 -27 -41 -67l-67 -66l-41 -45l-25 -23l-26 -32q16 -27 45 -43q10 -14 34 -31l46 -53q59 -59 59 -84q0 -29 -29 -60q-45 -45 -73 -45q-25 0 -82 53l-41 41q-37 18 -99 97l-98 -99l-6 -8l-14 -18l-31 -27 q-39 -47 -74 -47t-78 45q-37 35 -37 68q0 29 39 67l160 162l-37 37l-26 31l-101 112q-33 41 13 103q39 39 69.5 39t77.5 -47l143 -144l13 12z" glyph-name="multiply" horiz-adv-x="966" unicode=""/><glyph d="M1001 1593l13 -6q39 -20 50 -40.5t-3 -53.5l-45 -104q115 -117 139 -283q0 -14 4 -31v-20q0 -6 2 -19v-47q4 -25 4 -43l2 -78v-231q0 -49 -4 -70q-2 -8 -2 -20q0 -70 -6 -113q-2 -4 -2 -6q-2 -4 -2 -8q-27 -117 -57 -168q-82 -133 -146 -174l-108 -49l-43 -17 q-55 -16 -160 -24h-41q-86 4 -129 24q-20 8 -57 29l-29 -68q-27 -51 -45.5 -57t-75.5 21q-53 25 -60 48t21 89l39 86q-41 41 -65 84q-59 111 -70 276q-2 27 -2 88v74q0 96 -2 147v115q2 14 4 21v28q0 6 2 17v26q2 12 2 25q4 25 4 43q25 172 143 291q74 70 143.5 106.5 t172.5 42.5l55 2h23q6 0 10 -2h10q96 -8 168 -43l8 17l17 24q14 33 24.5 44t34.5 19t59 -12zM610 199q27 0 37 -2q84 8 115 30l57 29q4 2 10.5 6t8.5 4l20 21q43 49 80 139q2 4 2 16l6 39q4 41 8 54v2l2 4q8 20 9 55v115q-2 16 -2 49q0 129 -13 272q-6 76 -37 135l-4 -8 q0 -2 -26 -72q-6 -16 -18.5 -42.5t-20.5 -44t-8 -21.5l-172 -381q-49 -125 -95 -215l-71 -154q44 -24 112 -30zM657 1337h-41q-18 0 -24 -2l-27 -2q-80 -31 -121 -69q-102 -61 -116 -351q-6 -63 -6 -112v-176q-2 -20 -3 -50q4 -47 21 -122q2 -33 6 -39l14 -27 q125 299 144 328l160 334l22 49l23 53q31 72 32 82l31 74q-52 26 -115 30z" glyph-name="Oslash" horiz-adv-x="1370" unicode=""/><glyph d="M369 1448v-121q0 -96 -4 -184v-129l4 -213v-123q-4 -74 -4 -125q0 -80 12 -150q33 -102 80 -127q37 -35 93 -57t99 -22q10 0 78 10l16 4l13 2l35 10q23 6 59 27q31 25 41 43q35 57 39 74l10 34l6 21q18 76 19 170v57q0 53 2 86v19q4 33 4 49v35q0 102 -4 149q-2 27 -2 78 v207q0 25 4 45v17.5v23.5v16q0 8 1 29.5t1 28.5q0 68 21.5 85t78.5 17q59 0 79.5 -15.5t20.5 -82.5v-103q0 -2 -1 -8t-1 -10v-62v-30q-2 -29 -2 -78q0 -55 2 -80l2 -213v-104q-2 -37 -2 -125v-97q0 -55 -8 -120q0 -2 -2 -9v-8l-16 -49q-47 -150 -103 -205 q-154 -145 -374 -147q-98 0 -172 22q-123 39 -207 136.5t-119 228.5q-18 74 -18 184q0 2 1 6t1 8v127q0 78 6 136q0 35 -2 36q-4 41 -4 95v51q-4 45 0 90v18q0 10 2 17v139q4 86 2 141q-2 72 22.5 91.5t83.5 19.5q70 0 88.5 -16.5t18.5 -69.5zM537 1925l10 -6l33 -18l28 -19 l6 -4l11 -6q6 -6 12 -6q29 -18 43 -25q61 -29 82 -39q8 -4 31.5 -19.5t37.5 -23.5q33 -20 9 -90q-23 -66 -97 -37l-30 10q-2 0 -13.5 5.5t-19.5 9.5q-6 4 -19.5 10t-15.5 6l-12 6l-25 13l-12 8l-16 6l-23 12l-49 31q-16 4 -21 10q-16 10 -50 33t-50 31q-37 29 -27 65 q4 12 27 45q33 45 76 29l51 -23z" glyph-name="Ugrave" horiz-adv-x="1411" unicode=""/><glyph d="M369 1448v-121q0 -96 -4 -184v-129l4 -213v-123q-4 -74 -4 -125q0 -80 12 -150q33 -102 80 -127q37 -35 93 -57t99 -22q10 0 78 10l16 4l13 2l35 10q23 6 59 27q31 25 41 43q35 57 39 74l10 34l6 21q18 76 19 170v57q0 53 2 86v19q4 33 4 49v35q0 102 -4 149q-2 27 -2 78 v207q0 25 4 45v17.5v23.5v16q0 8 1 29.5t1 28.5q0 68 21.5 85t78.5 17q59 0 79.5 -15.5t20.5 -82.5v-103q0 -2 -1 -8t-1 -10v-62v-30q-2 -29 -2 -78q0 -55 2 -80l2 -213v-104q-2 -37 -2 -125v-97q0 -55 -8 -120q0 -2 -2 -9v-8l-16 -49q-47 -150 -103 -205 q-154 -145 -374 -147q-98 0 -172 22q-123 39 -207 136.5t-119 228.5q-18 74 -18 184q0 2 1 6t1 8v127q0 78 6 136q0 35 -2 36q-4 41 -4 95v51q-4 45 0 90v18q0 10 2 17v139q4 86 2 141q-2 72 22.5 91.5t83.5 19.5q70 0 88.5 -16.5t18.5 -69.5zM813 1892l33 19l45 20 q57 23 84 -18q20 -27 26 -45q14 -47 -24 -74l-105 -61q-4 -4 -20 -11l-49 -26l-25 -13l-20 -8l-6 -4l-25 -14l-20 -8h-2q-6 -4 -19 -9q-6 -4 -39 -20l-26 -8q-74 -31 -99 37q-25 74 21 100l61 37q18 4 82 41l37 16l20 12l7 5q16 12 34 20z" glyph-name="Uacute" horiz-adv-x="1411" unicode=""/><glyph d="M369 1327q0 -96 -4 -184v-129l4 -213v-123q-4 -74 -4 -125q0 -80 12 -150q33 -102 80 -127q37 -35 93 -57t99 -22q10 0 78 10l16 4l13 2l35 10q23 6 59 27q31 25 41 43q35 57 39 74l10 34l6 21q18 76 19 170v57q0 53 2 86v19q4 33 4 49v35q0 102 -4 149q-2 27 -2 78v207 q0 25 4 45v17.5v23.5v16q0 8 1 29.5t1 28.5q0 37 5 57t20.5 30.5t29.5 12.5t45 2q59 0 79.5 -15.5t20.5 -82.5v-103q0 -2 -1 -8t-1 -10v-62v-30q-2 -29 -2 -78q0 -55 2 -80l2 -213v-104q-2 -37 -2 -125v-97q0 -55 -8 -120q0 -2 -2 -9v-8l-16 -49q-47 -150 -103 -205 q-154 -145 -374 -147q-98 0 -172 22q-123 39 -207 136.5t-119 228.5q-18 74 -18 184q0 2 1 6t1 8v127q0 78 6 136q0 35 -2 36q-4 41 -4 95v51q-4 45 0 90v18l2 17v139q4 86 2 141q-2 72 22.5 91.5t83.5 19.5q70 0 88.5 -16.5t18.5 -69.5v-121zM692 1778l-37 37 q-4 -4 -23.5 -27t-29.5 -35l-12 -12q-4 -4 -23 -25l-16 -20l-21 -23l-10 -8q-23 -23 -41 -23q-25 0 -65 41q-45 49 -13 86l43 50l25 24q23 23 31 33l59 63l35 33q37 37 61 37q29 0 64 -35l31 -30q23 -23 28 -31q14 -16 31 -31l39 -45l31 -35l14 -14l20 -23q20 -20 13 -53 q-4 -16 -41 -51q-41 -39 -84 4l-80 78z" glyph-name="Ucircumflex" horiz-adv-x="1411" unicode=""/><glyph d="M369 1448v-121q0 -96 -4 -184v-129l4 -213v-123q-4 -74 -4 -125q0 -80 12 -150q33 -102 80 -127q37 -35 93 -57t99 -22q10 0 78 10l16 4l13 2l35 10q23 6 59 27q31 25 41 43q35 57 39 74l10 34l6 21q18 76 19 170v57q0 53 2 86v19q4 33 4 49v35q0 102 -4 149q-2 27 -2 78 v207q0 25 4 45v17.5v23.5v16q0 8 1 29.5t1 28.5q0 68 21.5 85t78.5 17q59 0 79.5 -15.5t20.5 -82.5v-103q0 -2 -1 -8t-1 -10v-62v-30q-2 -29 -2 -78q0 -55 2 -80l2 -213v-104q-2 -37 -2 -125v-97q0 -55 -8 -120q0 -2 -2 -9v-8l-16 -49q-47 -150 -103 -205 q-154 -145 -374 -147q-98 0 -172 22q-123 39 -207 136.5t-119 228.5q-18 74 -18 184q0 2 1 6t1 8v127q0 78 6 136q0 35 -2 36q-4 41 -4 95v51q-4 45 0 90v18q0 10 2 17v139q4 86 2 141q-2 72 22.5 91.5t83.5 19.5q70 0 88.5 -16.5t18.5 -69.5zM530 1888q45 0 71 -26.5 t32 -59.5q4 -47 -28 -86t-66 -49q-35 -8 -69 4t-48 43q-10 27 -10 53q0 39 24.5 74t59.5 45q10 0 20 2h8h6zM848 1888q43 0 73.5 -26.5t32.5 -57.5q6 -39 -30.5 -80t-71.5 -55q-25 -8 -54.5 3t-45.5 40q-23 45 -7.5 90t54.5 70q22 16 49 16z" glyph-name="Udieresis" horiz-adv-x="1411" unicode=""/><glyph d="M209 1487l53 -84l35 -55l4 -9l8 -12l41 -65l21 -35l57 -109l14 -24l29 -41l25 -35l43 -78q2 -2 20 -35l12 -22l15 -31l16 -18l19 -31q6 12 18 34.5t18 32.5l15 27l20 35l51 76l78 118l31 60l18 28l29 37q4 6 12.5 20.5t12.5 20.5l51 92l37 66l30 51q12 31 93 35 q84 2 101 -18.5t-7 -67.5l-74 -154q-29 -45 -35 -61l-14 -25l-21 -39l-12 -24l-20 -35q-59 -88 -80 -115q-6 -10 -23.5 -37.5t-25.5 -39.5l-41 -72q-33 -59 -43 -82l-60 -92l-55 -76v-88q0 -18 2 -43v-31l2 -102l2 -17v-69q-2 -39 -2 -168q2 -49 -20.5 -64.5t-73.5 -15.5 q-66 0 -86.5 20.5t-20.5 71.5v131q-4 70 -4 113v16q-2 6 -2 15q-4 43 0 71q4 14 0 49q-4 25 -4 45v58q-12 18 -26.5 37.5t-20.5 29.5l-8 11l-33 57l-14 29l-54 80l-12 20l-53 98q-51 94 -98 152l-97 178l-16 27l-35 73q-31 45 -47 107q-8 31 18.5 40t90.5 7q41 0 60.5 -11 t35.5 -38zM762 1866l33 18l45 21q57 23 84 -19q20 -27 26 -45q14 -47 -24 -74l-105 -61q-6 -6 -20 -10l-49 -27l-25 -12l-20 -8l-7 -4l-24 -15l-21 -8h-2q-6 -4 -18 -8q-6 -4 -39 -21l-27 -8q-74 -31 -98 37q-25 74 21 100l61 37q18 4 82 41l37 17l20 12l6 4q16 12 35 20z " glyph-name="Yacute" horiz-adv-x="1329" unicode=""/><glyph d="M471 340h-55v-39q0 -10 1 -34.5t1 -39.5q2 -45 2 -145q0 -51 -18.5 -67.5t-92.5 -16.5q-55 0 -79.5 12.5t-24.5 48.5q2 37 2 179q0 80 -6 143q-4 51 -4 145v518q-4 37 -4 52v8q0 6 -1.5 20.5t-1.5 20.5v184q-2 29 -2 96v9q0 70 14.5 86t88.5 16q59 -4 78.5 -18.5 t19.5 -61.5l8 -145l-2 -90h6h60q143 0 235 -17q80 -12 176 -76q82 -70 132 -149q45 -74 51 -156q4 -33 4 -65q0 -35 -4 -64q-2 -2 -2 -10l-2 -8q-29 -106 -125 -217q-41 -47 -120 -80t-147 -33q-70 0 -94 -2q-49 -4 -94 -4zM635 543q45 8 67 20l58 33l16 8l10 10 q14 14 19 29q12 20 20.5 39.5t10.5 30.5l2 8q6 25 6 47q0 47 -21.5 95t-44.5 71q-37 47 -112 74q-84 16 -224 16h-12h-12q-12 2 -17 0q2 -47 2 -123q0 -43 3 -63v-7q4 -57 4 -96q0 -6 -1 -14t-1 -10v-95q-2 -20 -2 -73v-8h75q109 0 154 8z" glyph-name="Thorn" horiz-adv-x="1224" unicode=""/><glyph d="M709 -14q-59 0 -134 32q-39 23 -79 68l-23 18q-39 39 -67 107v-2q-12 23 24.5 52.5t77.5 37.5t61 -14v2l17 -27q18 -23 30 -35q33 -37 95 -37q39 0 49 11q25 10 33 18l12 14q23 25 29 37q6 10 10 78q2 53 -72 121q-8 6 -27 25q-31 35 -57 55l-8 6q-8 6 -27 25l-41 32 l-10 8q-47 41 -81 96.5t-36 98.5q-8 92 86 170q8 6 24.5 23.5t25.5 23.5l34 27l31 26q47 33 47 109q0 16 -4 37q-6 27 -30.5 55.5t-51.5 34.5q-45 16 -88 16q-94 0 -153 -94l-3 -8q-8 -14 -22 -70q0 -12 -4 -37l-2 -32l-2 -43q-2 -20 -2 -35v-15l-2 -57v-39l-2 -61 q-2 -2 -2 -49v-35q0 -41 -3 -64v-73q4 -55 0 -111v-92q2 -23 3 -68l-3 -20v-234q2 -59 -16 -78.5t-94 -19.5q-61 0 -74.5 12.5t-13.5 73.5v326l-2 149v88l2 58v47q2 14 2 75v177q0 63 4 92q12 207 98 303q96 104 242 133q20 4 61 4q47 0 68 -4h-2q2 -2 10 -2q4 -2 8 -2 q82 -8 179 -92l14 -15q70 -74 84 -170q18 -125 -43 -237q-45 -63 -94 -103q-2 -2 -35 -26q-8 -4 -19 -15l-28 -18l-23 -29q0 -31 19 -41q4 -2 8 -5t9 -6t7 -5l12 -12q35 -29 37 -31q274 -213 273 -369q-2 -137 -76 -239q-53 -68 -156 -109q-63 -22 -114 -22z" glyph-name="germandbls" horiz-adv-x="1243" unicode=""/><glyph d="M551 1386l8 23l27 45q43 82 88 82q35 0 65.5 -49t89.5 -201l72 -199l6 -12l21 -69l24 -74l13 -31l14 -41l86 -256l20 -65l17 -47l14 -46q0 -2 6 -17t17.5 -43t17.5 -44q37 -92 39 -98l6 -29l2 -12l17 -33l6 -18l16 -54q20 -51 5 -76.5t-74 -23.5q-6 0 -18.5 1t-18.5 1 l-9 2q-80 0 -92 72q-4 23 -22 45l-6 14q-2 4 -2 6l-15 39q-18 37 -20 43q-6 12 -6 19l-7 14l-10 41q0 2 -2 6l-22 55q-4 4 -4 9q-27 68 -37 110q0 2 -15 31l-8 12h-313q-72 0 -90 -2h2l-25 -2l-2 -4l-6 -16q-2 -2 -2 -9q-18 -61 -47 -110v2q-4 -14 -8 -19q-8 -10 -25 -51 l-12 -31q-2 -4 -16.5 -35.5t-18.5 -45.5l-12 -27q-4 -4 -4 -8l-11 -29l-41 -74q-20 -35 -40.5 -46t-61.5 -11l-66 2q-39 6 -49 22.5t6 65.5l13 31l6 14l12 27l6 12l6 16q0 2 2.5 7.5t2.5 7.5l18 35v-2q16 33 20 47q4 6 17 34l4 15l33 78l22 45l29 69l31 78l28 76l6 14 q25 74 37 99l17 43l43 90l12 28q2 2 6 17.5t10.5 33t12.5 27.5q8 23 22 43q2 4 5 14.5t5 14.5l9 20l14 39l8 21q0 14 29 86l6 20q6 14 6 17l19 43q2 6 8 18t8 18zM678 1124l-12 43l-7 -28l-10 -31q0 -16 -8 -29l-23 -67l-18 -56l-18 -47l-17 -32q-20 -47 -26 -74 q-2 -4 -2 -8l-27 -64h127q82 0 160 2l-21 60q-4 4 -4 14l-22 72l-19 53l-10 33l-6 18zM571 1898l11 -6l32 -18l29 -19l6 -4l10 -6q6 -6 13 -6q29 -18 43 -24q61 -29 82 -39q8 -4 31.5 -19.5t37.5 -23.5q33 -20 8 -91q-23 -66 -96 -36l-30 10q-2 0 -13.5 5t-19.5 9 q-6 4 -19.5 10.5t-15.5 6.5l-12 6l-25 12l-12 8l-17 6l-22 13l-49 30q-14 6 -21 11q-16 10 -50 32.5t-50 30.5q-37 29 -27 66q6 12 27 45q33 45 76 28l51 -22z" glyph-name="agrave" unicode=""/><glyph d="M551 1386l8 23l27 45q43 82 88 82q35 0 65.5 -49t89.5 -201l72 -199l6 -12l21 -69l24 -74l13 -31l14 -41l86 -256l20 -65l17 -47l14 -46q0 -2 6 -17t17.5 -43t17.5 -44q37 -92 39 -98l6 -29l2 -12l17 -33l6 -18l16 -54q20 -51 5 -76.5t-74 -23.5q-6 0 -18.5 1t-18.5 1 l-9 2q-80 0 -92 72q-4 23 -22 45l-6 14q-2 4 -2 6l-15 39q-18 37 -20 43q-6 12 -6 19l-7 14l-10 41q0 2 -2 6l-22 55q-4 4 -4 9q-27 68 -37 110q0 2 -15 31l-8 12h-313q-72 0 -90 -2h2l-25 -2l-2 -4l-6 -16q-2 -2 -2 -9q-18 -61 -47 -110v2q-4 -14 -8 -19q-8 -10 -25 -51 l-12 -31q-2 -4 -16.5 -35.5t-18.5 -45.5l-12 -27q-4 -4 -4 -8l-11 -29l-41 -74q-20 -35 -40.5 -46t-61.5 -11l-66 2q-39 6 -49 22.5t6 65.5l13 31l6 14l12 27l6 12l6 16q0 2 2.5 7.5t2.5 7.5l18 35v-2q16 33 20 47q4 6 17 34l4 15l33 78l22 45l29 69l31 78l28 76l6 14 q25 74 37 99l17 43l43 90l12 28q2 2 6 17.5t10.5 33t12.5 27.5q8 23 22 43q2 4 5 14.5t5 14.5l9 20l14 39l8 21q0 14 29 86l6 20q6 14 6 17l19 43q2 6 8 18t8 18zM678 1124l-12 43l-7 -28l-10 -31q0 -16 -8 -29l-23 -67l-18 -56l-18 -47l-17 -32q-20 -47 -26 -74 q-2 -4 -2 -8l-27 -64h127q82 0 160 2l-21 60q-4 4 -4 14l-22 72l-19 53l-10 33l-6 18zM788 1878l33 18l45 21q57 23 84 -19q20 -27 27 -45q14 -47 -25 -73l-104 -62q-4 -6 -21 -10l-49 -27l-24 -12l-21 -8l-6 -4l-25 -15l-20 -8h-2q-6 -4 -18 -8q-6 -4 -39 -20l-27 -9 q-74 -31 -98 37q-25 74 20 101l62 37q18 4 82 40l36 17l21 12l6 4q16 12 35 21z" glyph-name="aacute" unicode=""/><glyph d="M551 1386l8 23l27 45q43 82 88 82q35 0 65.5 -49t89.5 -201l72 -199l6 -12l21 -69l24 -74l13 -31l14 -41l86 -256l20 -65l17 -47l14 -46q0 -2 6 -17t17.5 -43t17.5 -44q37 -92 39 -98l6 -29l2 -12l17 -33l6 -18l16 -54q20 -51 5 -76.5t-74 -23.5q-6 0 -18.5 1t-18.5 1 l-9 2q-80 0 -92 72q-4 23 -22 45l-6 14q-2 4 -2 6l-15 39q-18 37 -20 43q-6 12 -6 19l-7 14l-10 41q0 2 -2 6l-22 55q-4 4 -4 9q-27 68 -37 110q0 2 -15 31l-8 12h-313q-72 0 -90 -2h2l-25 -2l-2 -4l-6 -16q-2 -2 -2 -9q-18 -61 -47 -110v2q-4 -14 -8 -19q-8 -10 -25 -51 l-12 -31q-2 -4 -16.5 -35.5t-18.5 -45.5l-12 -27q-4 -4 -4 -8l-11 -29l-41 -74q-20 -35 -40.5 -46t-61.5 -11l-66 2q-39 6 -49 22.5t6 65.5l13 31l6 14l12 27l6 12l6 16q0 2 2.5 7.5t2.5 7.5l18 35v-2q16 33 20 47q4 6 17 34l4 15l33 78l22 45l29 69l31 78l28 76l6 14 q25 74 37 99l17 43l43 90l12 28q2 2 6 17.5t10.5 33t12.5 27.5q8 23 22 43q2 4 5 14.5t5 14.5l9 20l14 39l8 21q0 14 29 86l6 20q6 14 6 17l19 43q2 6 8 18t8 18zM678 1124l-12 43l-7 -28l-10 -31q0 -16 -8 -29l-23 -67l-18 -56l-18 -47l-17 -32q-20 -47 -26 -74 q-2 -4 -2 -8l-27 -64h127q82 0 160 2l-21 60q-4 4 -4 14l-22 72l-19 53l-10 33l-6 18zM696 1704l-37 37q-4 -4 -23.5 -26.5t-29.5 -35.5l-12 -12q-4 -4 -23 -25l-16 -20l-20 -23l-11 -8q-23 -23 -41 -22q-25 0 -65 41q-45 49 -12 86l43 49l24 24q23 23 31 33l59 64l35 32 q37 37 61 37q29 0 64 -34l31 -31q23 -23 28 -31q14 -16 31 -31l39 -45l31 -34l14 -15l21 -22q20 -20 12 -54q-4 -16 -41 -51q-41 -39 -84 4l-80 78z" glyph-name="acircumflex" unicode=""/><glyph d="M551 1386l8 23l27 45q43 82 88 82q35 0 65.5 -49t89.5 -201l72 -199l6 -12l21 -69l24 -74l13 -31l14 -41l86 -256l20 -65l17 -47l14 -46q0 -2 6 -17t17.5 -43t17.5 -44q37 -92 39 -98l6 -29l2 -12l17 -33l6 -18l16 -54q20 -51 5 -76.5t-74 -23.5q-6 0 -18.5 1t-18.5 1 l-9 2q-80 0 -92 72q-4 23 -22 45l-6 14q-2 4 -2 6l-15 39q-18 37 -20 43q-6 12 -6 19l-7 14l-10 41q0 2 -2 6l-22 55q-4 4 -4 9q-27 68 -37 110q0 2 -15 31l-8 12h-313q-72 0 -90 -2h2l-25 -2l-2 -4l-6 -16q-2 -2 -2 -9q-18 -61 -47 -110v2q-4 -14 -8 -19q-8 -10 -25 -51 l-12 -31q-2 -4 -16.5 -35.5t-18.5 -45.5l-12 -27q-4 -4 -4 -8l-11 -29l-41 -74q-20 -35 -40.5 -46t-61.5 -11l-66 2q-39 6 -49 22.5t6 65.5l13 31l6 14l12 27l6 12l6 16q0 2 2.5 7.5t2.5 7.5l18 35v-2q16 33 20 47q4 6 17 34l4 15l33 78l22 45l29 69l31 78l28 76l6 14 q25 74 37 99l17 43l43 90l12 28q2 2 6 17.5t10.5 33t12.5 27.5q8 23 22 43q2 4 5 14.5t5 14.5l9 20l14 39l8 21q0 14 29 86l6 20q6 14 6 17l19 43q2 6 8 18t8 18zM678 1124l-12 43l-7 -28l-10 -31q0 -16 -8 -29l-23 -67l-18 -56l-18 -47l-17 -32q-20 -47 -26 -74 q-2 -4 -2 -8l-27 -64h127q82 0 160 2l-21 60q-4 4 -4 14l-22 72l-19 53l-10 33l-6 18zM561 1753q-29 0 -108 -63q-18 -14 -48 6t-46.5 54t-0.5 54q37 41 99.5 76t97.5 35q68 0 109 -29q14 -4 75 -53q45 -25 72 -25q37 0 88 60q25 29 86.5 -7t42.5 -83q-23 -45 -82 -89 t-123 -49q-41 -4 -114 35l-76 54l-33 16q-12 8 -39 8z" glyph-name="atilde" unicode=""/><glyph d="M551 1386l8 23l27 45q43 82 88 82q35 0 65.5 -49t89.5 -201l72 -199l6 -12l21 -69l24 -74l13 -31l14 -41l86 -256l20 -65l17 -47l14 -46q0 -2 6 -17t17.5 -43t17.5 -44q37 -92 39 -98l6 -29l2 -12l17 -33l6 -18l16 -54q20 -51 5 -76.5t-74 -23.5q-6 0 -18.5 1t-18.5 1 l-9 2q-80 0 -92 72q-4 23 -22 45l-6 14q-2 4 -2 6l-15 39q-18 37 -20 43q-6 12 -6 19l-7 14l-10 41q0 2 -2 6l-22 55q-4 4 -4 9q-27 68 -37 110q0 2 -15 31l-8 12h-313q-72 0 -90 -2h2l-25 -2l-2 -4l-6 -16q-2 -2 -2 -9q-18 -61 -47 -110v2q-4 -14 -8 -19q-8 -10 -25 -51 l-12 -31q-2 -4 -16.5 -35.5t-18.5 -45.5l-12 -27q-4 -4 -4 -8l-11 -29l-41 -74q-20 -35 -40.5 -46t-61.5 -11l-66 2q-39 6 -49 22.5t6 65.5l13 31l6 14l12 27l6 12l6 16q0 2 2.5 7.5t2.5 7.5l18 35v-2q16 33 20 47q4 6 17 34l4 15l33 78l22 45l29 69l31 78l28 76l6 14 q25 74 37 99l17 43l43 90l12 28q2 2 6 17.5t10.5 33t12.5 27.5q8 23 22 43q2 4 5 14.5t5 14.5l9 20l14 39l8 21q0 14 29 86l6 20q6 14 6 17l19 43q2 6 8 18t8 18zM678 1124l-12 43l-7 -28l-10 -31q0 -16 -8 -29l-23 -67l-18 -56l-18 -47l-17 -32q-20 -47 -26 -74 q-2 -4 -2 -8l-27 -64h127q82 0 160 2l-21 60q-4 4 -4 14l-22 72l-19 53l-10 33l-6 18zM508 1874q45 0 70.5 -26.5t31.5 -59.5q4 -47 -27.5 -86t-66.5 -49q-35 -8 -68.5 4t-48.5 43q-10 25 -10 53q0 39 24.5 74t59.5 45h19l10 2h6zM825 1874q43 0 74 -26.5t33 -57.5 q6 -39 -31 -80t-72 -55q-25 -8 -54.5 3t-45.5 40q-23 45 -7.5 90t54.5 70q22 16 49 16z" glyph-name="adieresis" unicode=""/><glyph d="M551 1386l8 23l27 45q43 82 88 82q35 0 65.5 -49t89.5 -201l72 -199l6 -12l21 -69l24 -74l13 -31l14 -41l86 -256l20 -65l17 -47l14 -46q0 -2 6 -17t17.5 -43t17.5 -44q37 -92 39 -98l6 -29l2 -12l17 -33l6 -18l16 -54q20 -51 5 -76.5t-74 -23.5q-6 0 -18.5 1t-18.5 1 l-9 2q-80 0 -92 72q-4 23 -22 45l-6 14q-2 4 -2 6l-15 39q-18 37 -20 43q-6 12 -6 19l-7 14l-10 41q0 2 -2 6l-22 55q-4 4 -4 9q-27 68 -37 110q0 2 -15 31l-8 12h-313q-72 0 -90 -2h2l-25 -2l-2 -4l-6 -16q-2 -2 -2 -9q-18 -61 -47 -110v2q-4 -14 -8 -19q-8 -10 -25 -51 l-12 -31q-2 -4 -16.5 -35.5t-18.5 -45.5l-12 -27q-4 -4 -4 -8l-11 -29l-41 -74q-20 -35 -40.5 -46t-61.5 -11l-66 2q-39 6 -49 22.5t6 65.5l13 31l6 14l12 27l6 12l6 16q0 2 2.5 7.5t2.5 7.5l18 35v-2q16 33 20 47q4 6 17 34l4 15l33 78l22 45l29 69l31 78l28 76l6 14 q25 74 37 99l17 43l43 90l12 28q2 2 6 17.5t10.5 33t12.5 27.5q8 23 22 43q2 4 5 14.5t5 14.5l9 20l14 39l8 21q0 14 29 86l6 20q6 14 6 17l19 43q2 6 8 18t8 18zM678 1124l-12 43l-7 -28l-10 -31q0 -16 -8 -29l-23 -67l-18 -56l-18 -47l-17 -32q-20 -47 -26 -74 q-2 -4 -2 -8l-27 -64h127q82 0 160 2l-21 60q-4 4 -4 14l-22 72l-19 53l-10 33l-6 18zM782 1952q86 -47 90 -170q-2 -68 -26.5 -105t-73.5 -71q-41 -23 -88 -23q-137 0 -182 80q-29 45 -29 109q0 152 143 196q33 12 68 12q59 1 98 -28zM629 1831q-8 -6 -17 -25q-8 -10 2 -45 q2 -16 28 -27.5t48 -11.5q29 2 47 50q8 18 -12 53q-2 4 -33 14q-38 6 -63 -8z" glyph-name="aring" unicode=""/><glyph d="M1415 1534q41 0 55.5 -17.5t14.5 -68.5l-2 -33q0 -31 -12.5 -49t-31 -22.5t-39 -6.5t-34.5 0h-8q-68 0 -109 -2q-25 -2 -82 -2q-29 0 -47 -2h-88l-127 -2h-26q0 -59 4 -96q4 -74 4 -113q0 -37 -4 -82l-2 -4v-8v-108q-4 -14 -2 -35h147q29 -4 37 -4q33 0 70 4l141 -4 q41 0 52 -21.5t11 -62.5q2 -35 -1 -55.5t-15 -29t-22.5 -9.5t-36.5 -1h-29q-84 -8 -133 -4h-76q-23 -2 -70 -2l-65 2h-8v-94q2 -16 -2 -65v-23l-2 -49q-2 -23 4 -84q2 -35 2 -115l-2 -55v-4q45 -4 123 -4q8 0 25.5 -1t27.5 -1q49 -4 100 0h125l74 -4q6 0 15 -1t13 -1 q55 -4 67.5 -14.5t18.5 -63.5q2 -68 -5 -84.5t-42 -28.5q-6 0 -10 -2q-16 -2 -172 2h-194q-102 0 -191 -4h-100q-55 0 -70.5 23.5t-15.5 80.5v35q2 63 2 187v192h-72q-129 0 -160 -2q-2 -2 -24 -2l-2 -4l-6 -16q-2 -2 -2 -9q-18 -61 -48 -110q-4 -12 -8 -17q-8 -10 -24 -51 l-13 -31l-47 -108q-4 -4 -4 -8l-10 -29l-49 -88q-16 -31 -30.5 -37t-51.5 -6h-12l-66 2q-39 6 -48 22.5t7 65.5l16 45l13 27l6 12l6 16q0 2 5 13.5t5 13.5l13 23l4 6q2 6 6 15t6 13q12 20 20 48q0 2 2 6t2 6l33 78l23 45l31 69l30 78l27 76l6 14q25 74 37 99l59 133l13 28 q2 2 6 17.5t10 33t12 27.5q8 23 23 43l12 29l8 20l15 39l8 21q0 14 28 86l5 20q6 14 6 17l18 43q2 6 8 18t8 18l9 23l26 45q43 82 88 82h105q123 0 172 -2q119 -4 135 -2q61 4 174 4zM670 1018l4 229l-37 -108l-10 -31q0 -16 -9 -29l-22 -67l-18 -56l-15 -47l-16 -32 q-20 -45 -27 -72v-6l-2 -4l-29 -68h54q16 0 40.5 -1t34.5 -1h52v18l2 131q0 95 -2 144z" glyph-name="ae" horiz-adv-x="1570" unicode=""/><glyph d="M1108 1282l-14 -12q-23 -29 -36.5 -33t-62.5 10l-37 19q-8 8 -22 14l-43 29l-43 16q-53 14 -94 14l-37 -2q-25 -4 -45 -4q-88 -20 -176 -80q-51 -53 -131 -170l2 2q-70 -143 -82 -305v-26q-4 -43 -2 -52q4 -78 30 -190q47 -115 64 -143l24 -25q37 -43 64 -68l29 -20 q8 -8 19 -14t20 -9l8 -2l45 -12q8 -4 26 -4l25 -2q35 -14 162 -14h16l55 14q8 4 27 14.5t23 12.5l26 12q8 6 41 29l19 10q66 37 114 -45q41 -74 13 -94l-60 -52q-47 -41 -108 -71l-11 -4h2q-80 -31 -145 -31q-31 0 -49 -2q-45 -4 -78 -2l-20 4v-33h12q70 -6 78 -8 q10 0 37 -12q123 -57 125 -183q2 -70 -15 -112q-47 -102 -125 -142q-51 -23 -53 -22l-39 -4q-37 0 -53 2q-51 4 -70 14q-6 4 -18 8q-41 16 -80 56q-31 31 6 92q25 45 45.5 53t46.5 -10l45 -19q27 -14 50.5 -15t33.5 5l10 6q20 10 29 33l6 25q10 39 -30 65q-16 10 -37 10h-8 q-8 2 -13 2q-25 4 -43 5l-80 -3q-18 0 -32.5 12.5t-14.5 37.5v180q-61 20 -106 43q-68 41 -197 213q-57 96 -86 301v-2q-8 33 -8 110q0 121 10 172v-2q39 281 144 412l30 33l6 6l11 14q6 6 18 25q39 43 68 59h-2l14 10.5t10 6.5t6 4l41 33l25 14q104 53 211 57q4 0 12 2 l74 2q111 -2 188 -41l101 -53q51 -37 86 -76q26 -28 -27 -98z" glyph-name="ccedilla" horiz-adv-x="1290" unicode=""/><glyph d="M496 1937l10 -6l33 -18l28 -19l6 -4l11 -6q6 -6 12 -6q29 -18 43 -25q61 -29 82 -38q8 -4 31.5 -19.5t38.5 -23.5q33 -20 8 -91q-23 -66 -97 -36l-30 10q-2 0 -13.5 5t-19.5 9q-6 4 -19.5 10.5t-15.5 6.5l-12 6l-25 12l-12 8l-16 6l-23 13l-49 30q-14 4 -21 11 q-16 8 -48.5 30.5t-51.5 32.5q-37 29 -27 66q4 12 27 45q33 45 76 28l51 -22zM893 1534q66 -2 81 -13.5t23 -72.5l-2 -33q0 -84 -116 -78h-9q-68 0 -108 -2q-25 -2 -84 -2q-27 0 -45 -2l-217 -2h-6h-8.5h-10.5q0 -59 4 -96q4 -74 4 -113q0 -37 -4 -82l-2 -4v-8 q-6 -92 -2 -119h148q29 -4 36 -4q33 0 70 4l133 -6q33 0 49.5 -13.5t19.5 -27.5t3 -41q2 -35 -1 -54.5t-16.5 -27.5t-22.5 -9t-38 -1h-18q-92 -8 -142 -4h-75q-23 -2 -72 -2l-64 2h-8v-121q2 -16 -2 -65v-23l-2 -49q-2 -23 4 -84q2 -35 2 -115l-2 -57v-4q41 -4 123 -4 q8 0 25.5 -1t27.5 -1q49 -4 99 0h127l73 -4q6 0 15.5 -1t11.5 -1q33 -2 43 -3.5t23.5 -9.5t15.5 -21.5t6 -41.5q2 -68 -5 -84.5t-44 -28.5q-6 0 -10 -2q-16 -2 -170 2h-195q-104 0 -190 -4h-101q-55 0 -71.5 23.5t-16.5 80.5v35q2 63 2 187v217q0 61 -2 92l-2 113l4 126 q0 94 -2 144v90l2 43q0 39 -2 57q-2 29 -2 103q0 98 2 135v8q2 29 5 43t24.5 26.5t62.5 12.5q123 0 170 -2q121 -4 138 -2q61 4 174 4z" glyph-name="egrave" horiz-adv-x="1157" unicode=""/><glyph d="M696 1909l33 18l45 21q57 23 84 -19q20 -27 27 -45q14 -47 -25 -74l-104 -61q-6 -4 -21 -10l-49 -27l-24 -12l-21 -8l-6 -4l-25 -15l-20 -8h-2q-6 -4 -19 -8q-6 -4 -39 -21l-26 -8q-74 -31 -98 37q-25 74 20 100l61 37q18 4 82 41l37 17l21 12l6 4q16 12 35 20zM893 1534 q66 -2 81 -13.5t23 -72.5l-2 -33q0 -84 -116 -78h-9q-68 0 -108 -2q-25 -2 -84 -2q-27 0 -45 -2l-217 -2h-6h-8.5h-10.5q0 -59 4 -96q4 -74 4 -113q0 -37 -4 -82l-2 -4v-8q-6 -92 -2 -119h148q29 -4 36 -4q33 0 70 4l133 -6q33 0 49.5 -13.5t19.5 -27.5t3 -41 q2 -35 -1 -54.5t-16.5 -27.5t-22.5 -9t-38 -1h-18q-92 -8 -142 -4h-75q-23 -2 -72 -2l-64 2h-8v-121q2 -16 -2 -65v-23l-2 -49q-2 -23 4 -84q2 -35 2 -115l-2 -57v-4q41 -4 123 -4q8 0 25.5 -1t27.5 -1q49 -4 99 0h127l73 -4q6 0 15.5 -1t11.5 -1q33 -2 43 -3.5t23.5 -9.5 t15.5 -21.5t6 -41.5q2 -68 -5 -84.5t-44 -28.5q-6 0 -10 -2q-16 -2 -170 2h-195q-104 0 -190 -4h-101q-55 0 -71.5 23.5t-16.5 80.5v35q2 63 2 187v217q0 61 -2 92l-2 113l4 126q0 94 -2 144v90l2 43q0 39 -2 57q-2 29 -2 103q0 98 2 135v8q2 29 5 43t24.5 26.5t62.5 12.5 q123 0 170 -2q121 -4 138 -2q61 4 174 4z" glyph-name="eacute" horiz-adv-x="1157" unicode=""/><glyph d="M657 1755l-36 37q-4 -4 -23.5 -26.5t-30.5 -34.5l-12 -13q-4 -4 -23 -24l-16 -21l-20 -22l-11 -9q-23 -23 -41 -22q-25 0 -65 41q-45 49 -12 86l43 49l24 25q23 23 31 32l59 64l35 33q37 37 62 37q29 0 63 -35l31 -31q23 -23 28 -31q14 -16 31 -30l39 -45l31 -35l14 -15 l21 -22q20 -20 12 -53q-6 -14 -41 -52q-39 -41 -84 4l-80 78zM893 1534q66 -2 81 -13.5t23 -72.5l-2 -33q0 -84 -116 -78h-9q-68 0 -108 -2q-25 -2 -84 -2q-27 0 -45 -2l-217 -2h-6h-8.5h-10.5q0 -59 4 -96q4 -74 4 -113q0 -37 -4 -82l-2 -4v-8q-6 -92 -2 -119h148 q29 -4 36 -4q33 0 70 4l133 -6q33 0 49.5 -13.5t19.5 -27.5t3 -41q2 -29 -2 -47t-7 -27.5t-17.5 -13.5t-20.5 -4h-31h-18q-92 -8 -142 -4h-75q-23 -2 -72 -2l-64 2h-8v-121q2 -16 -2 -65v-23l-2 -49q-2 -23 4 -84q2 -35 2 -115l-2 -57v-4q41 -4 123 -4q8 0 25.5 -1t27.5 -1 q49 -4 99 0h127l73 -4q6 0 15.5 -1t11.5 -1q57 -4 69.5 -13.5t18.5 -62.5q2 -68 -5 -84.5t-44 -28.5q-6 0 -10 -2q-16 -2 -170 2h-195q-104 0 -190 -4h-101q-55 0 -71.5 23.5t-16.5 80.5v35q2 63 2 187v217q0 61 -2 92l-2 113l4 126q0 94 -2 144v90l2 43q0 39 -2 57 q-2 29 -2 103q0 98 2 135v8q2 29 5 43t24.5 26.5t62.5 12.5q123 0 170 -2q121 -4 138 -2q61 4 174 4q80 0 139 -2z" glyph-name="ecircumflex" horiz-adv-x="1157" unicode=""/><glyph d="M455 1880q45 0 70.5 -26.5t31.5 -59.5q4 -47 -27.5 -86t-66.5 -49q-35 -8 -69 4t-48 43q-10 27 -10 53q0 39 24.5 74t59.5 45q10 0 18 2h11h6zM772 1880q43 0 74 -26.5t33 -57.5q6 -39 -31 -80t-72 -55q-25 -8 -54.5 3t-45.5 40q-23 45 -7.5 90t54.5 70q22 16 49 16z M893 1534q66 -2 81 -13.5t23 -72.5l-2 -33q0 -84 -116 -78h-9q-68 0 -108 -2q-25 -2 -84 -2q-27 0 -45 -2l-217 -2h-6h-8.5h-10.5q0 -59 4 -96q4 -74 4 -113q0 -37 -4 -82l-2 -4v-8q-6 -92 -2 -119h148q29 -4 36 -4q33 0 70 4l133 -6q33 0 49.5 -13.5t19.5 -27.5t3 -41 q2 -35 -1 -54.5t-16.5 -27.5t-22.5 -9t-38 -1h-18q-92 -8 -142 -4h-75q-23 -2 -72 -2l-64 2h-8v-121q2 -16 -2 -65v-23l-2 -49q-2 -23 4 -84q2 -35 2 -115l-2 -57v-4q41 -4 123 -4q8 0 25.5 -1t27.5 -1q49 -4 99 0h127l73 -4q6 0 15.5 -1t11.5 -1q33 -2 43 -3.5t23.5 -9.5 t15.5 -21.5t6 -41.5q2 -68 -5 -84.5t-44 -28.5q-6 0 -10 -2q-16 -2 -170 2h-195q-104 0 -190 -4h-101q-55 0 -71.5 23.5t-16.5 80.5v35q2 63 2 187v217q0 61 -2 92l-2 113l4 126q0 94 -2 144v90l2 43q0 39 -2 57q-2 29 -2 103q0 98 2 135v8q2 29 5 43t24.5 26.5t62.5 12.5 q123 0 170 -2q121 -4 138 -2q61 4 174 4z" glyph-name="edieresis" horiz-adv-x="1157" unicode=""/><glyph d="M147 1919l11 -6l32 -19l29 -18l6 -4l11 -6q6 -6 12 -6q29 -18 43 -25q61 -29 82 -39q8 -4 31.5 -19.5t37.5 -23.5q33 -20 9 -90q-23 -66 -97 -37l-30 10q-2 0 -13.5 5.5t-19.5 9.5q-6 4 -19.5 10t-15.5 6l-12 6l-25 13l-12 8l-17 6l-22 12l-49 31q-14 6 -21 10 q-16 8 -49 31.5t-51 32.5q-37 29 -27 65q4 12 27 45q33 45 76 29l51 -23zM375 1446v-6q2 -45 -2 -117q-2 -14 -2 -53q0 -41 -2 -62v-20q0 -2 2 -60q4 -106 4 -344v-385q0 -6 2 -16v-12q6 -37 2 -58q0 -31 -2 -39v-18q4 -18 4 -55l2 -19q2 -12 2 -37v-28q2 -33 1 -55.5 t-10 -37t-30.5 -20.5t-60.5 -6t-60.5 6t-31 25.5t-11.5 37t-2 60.5l-2 8v60q-4 51 -4 170v75q2 39 2 119q0 98 -2 148v90q0 14 -1 44.5t-1 47.5v24q0 10 1 30t1 26v96q-2 14 -2 51q0 57 -2 90v54q0 27 2 38q0 6 1 15.5t1 11.5v127q0 55 23.5 71.5t78.5 12.5 q68 -6 83.5 -18.5t15.5 -71.5z" glyph-name="igrave" horiz-adv-x="583" unicode=""/><glyph d="M348 1909l33 18l45 21q57 23 84 -19q20 -27 27 -45q14 -47 -25 -74l-104 -61q-4 -4 -21 -10l-49 -27l-25 -12l-20 -8l-6 -4l-25 -15l-20 -8h-2q-6 -4 -19 -8q-6 -4 -39 -21l-26 -8q-74 -31 -99 37q-25 74 21 100l61 37q18 4 82 41l37 17l21 12l6 4q16 12 34 20zM375 1446 v-6q2 -45 -2 -117q-2 -14 -2 -53q0 -41 -2 -62v-20q0 -2 2 -60q4 -106 4 -344v-385q0 -6 2 -16v-12q6 -37 2 -58q0 -31 -2 -39v-18q4 -18 4 -55l2 -19q2 -12 2 -37v-28q2 -33 1 -55.5t-10 -37t-30.5 -20.5t-60.5 -6t-60.5 6t-31 25.5t-11.5 37t-2 60.5l-2 8v60q-4 51 -4 170 v75q2 39 2 119q0 98 -2 148v90q0 14 -1 44.5t-1 47.5v24q0 10 1 30t1 26v96q-2 14 -2 51q0 57 -2 90v54q0 27 2 38q0 6 1 15.5t1 11.5v127q0 55 23.5 71.5t78.5 12.5q68 -6 83.5 -18.5t15.5 -71.5z" glyph-name="iacute" horiz-adv-x="583" unicode=""/><glyph d="M289 1755l-37 37q-4 -4 -23.5 -26.5t-29.5 -34.5l-13 -13q-4 -4 -22 -24l-17 -21l-20 -22l-10 -9q-23 -23 -41 -22q-25 0 -66 41q-45 49 -12 86l43 49l25 25q23 23 30 32l60 64l34 33q37 37 62 37q29 0 63 -35l31 -31q23 -23 29 -31q14 -16 31 -30l38 -45l31 -35l14 -15 l21 -22q20 -20 12 -53q-6 -14 -41 -52q-39 -41 -84 4l-80 78zM375 1440q2 -45 -2 -117q-2 -14 -2 -53q0 -41 -2 -62v-20q0 -2 2 -60q4 -106 4 -344v-385q0 -6 2 -16v-12q6 -37 2 -58q0 -31 -2 -39v-18q4 -18 4 -55l2 -19q2 -12 2 -37v-28q2 -33 1 -55.5t-10 -37t-30.5 -20.5 t-60.5 -6t-60.5 6t-31 25.5t-11.5 37t-2 60.5l-2 8v60q-4 51 -4 170v75q2 39 2 119q0 98 -2 148v90q0 14 -1 44.5t-1 47.5v24q0 10 1 30t1 26v96q-2 14 -2 51q0 57 -2 90v54l2 38q0 6 1 15.5t1 11.5v127q0 55 23.5 71.5t78.5 12.5q68 -6 83.5 -18.5t15.5 -71.5v-6z" glyph-name="icircumflex" horiz-adv-x="583" unicode=""/><glyph d="M100 1888q45 0 71 -26.5t32 -59.5q4 -47 -28 -86t-66 -49q-35 -8 -69 4t-48 43q-10 27 -10 53q0 39 24.5 74t59.5 45q10 0 20 2h8h6zM418 1888q43 0 73.5 -26.5t32.5 -57.5q6 -39 -30.5 -80t-71.5 -55q-25 -8 -54.5 3t-45.5 40q-23 45 -7.5 90t54.5 70q22 16 49 16z M375 1446v-6q2 -45 -2 -117q-2 -14 -2 -53q0 -41 -2 -62v-20q0 -2 2 -60q4 -106 4 -344v-385q0 -6 2 -16v-12q6 -37 2 -58q0 -31 -2 -39v-18q4 -18 4 -55l2 -19q2 -12 2 -37v-28q2 -33 1 -55.5t-10 -37t-30.5 -20.5t-60.5 -6t-60.5 6t-31 25.5t-11.5 37t-2 60.5l-2 8v60 q-4 51 -4 170v75q2 39 2 119q0 98 -2 148v90q0 14 -1 44.5t-1 47.5v24q0 10 1 30t1 26v96q-2 14 -2 51q0 57 -2 90v54q0 27 2 38q0 6 1 15.5t1 11.5v127q0 55 23.5 71.5t78.5 12.5q68 -6 83.5 -18.5t15.5 -71.5z" glyph-name="idieresis" horiz-adv-x="583" unicode=""/><glyph d="M190 90v119q0 109 5 309v135h-105q-68 4 -86 28t-12 97q10 53 26.5 63.5t75.5 10.5h17q45 4 84 4v252l4 143v88l2 72l2 70q-2 27 15.5 41t53.5 14h78q137 0 271 -18q236 -39 405 -209l18 -25l48 -51q63 -88 104 -240l6 -24l6 -35q16 -61 17 -148q4 -39 -4 -110l-7 -78 l-18 -74q-2 -25 -27 -78l-18 -38l-8 -17l-8 -14l-21 -39l-18 -21l-25 -36l-20 -25q-25 -45 -66 -70q-199 -150 -367 -176q-86 -12 -237 -12q-6 2 -42 2t-52 -2q-66 4 -81.5 17.5t-15.5 74.5zM532 197q90 0 152 41l64 34l81 60l29 22q31 27 62 68l16 20l18 43q31 53 52 152 q10 41 10 96q0 10 2 17v45q0 2 -1 9t-1 13q0 4 -1 12.5t-1 14.5q-27 115 -41 149l-25 54l-28 45l-41 57l-15 18l-20 29q-33 25 -41 35q-18 18 -41 31l-57 26l-52 12l-35 11l-28 10q-14 4 -59.5 7t-51.5 1l-73 -2v-104l-3 -31v-109q-4 -45 -4 -67q0 -57 2 -82v-78 q88 0 111 -2h55q68 2 93.5 -15.5t25.5 -93.5q0 -59 -25.5 -77.5t-89.5 -18.5h-170q-4 -102 -4 -153v-303z" glyph-name="eth" horiz-adv-x="1388" unicode=""/><glyph d="M547 1708q-29 0 -109 -63q-18 -14 -48 6t-46 54t0 54q37 41 99.5 76t97.5 35q68 0 108 -29q14 -4 76 -53q45 -25 72 -25q37 0 88 60q25 29 86 -7t43 -83q-23 -45 -82.5 -89.5t-122.5 -48.5q-41 -4 -115 35l-76 53l-32 17q-12 8 -39 8zM467 1325q4 -6 19.5 -26.5 t21.5 -32.5l57 -92l49 -87l35 -59l8 -12l27 -45l8 -17q39 -72 88 -143l62 -109l26 -36l74 -142l53 -114q-2 66 -10 176l2 131v153q-2 55 -2 164q0 49 -2 78q-4 104 -2 166l6 147q6 68 23.5 86.5t72.5 22.5q39 0 61.5 -5t32 -18.5t11.5 -24.5t2 -36v-8l2 -82q0 -72 -2 -96 q-4 -115 -4 -308l2 -51v2q2 -10 2 -55v-262q-2 -23 2 -41v-361q2 -16 2 -53v-55q0 -80 -82 -80q-59 0 -102 61q-27 39 -64 93l-18 26l-74 109l-98 147l-17 31q-8 16 -47 80l-12 20l-43 78l-21 37l-57 78l-41 80l-16 26l-94 183l-39 81l8 -116q0 -14 4 -52t4 -49l2 -69l2 -15 l-4 -127q0 -20 2 -32v-13l2 -20q2 -29 2 -86v-27l-2 -143q-4 -41 -2 -55l6 -35l4 -53v-48q0 -16 2 -36l2 -11l-2 -59q0 -29 -3 -45t-14 -24.5t-21.5 -10.5t-34.5 -4q-2 0 -7.5 -1t-7.5 -1h-28q-43 8 -59.5 24.5t-20.5 53.5q-4 41 -4 96q-2 14 -2 70q-4 53 -4 77l-3 127 l-2 158v27l-4 110q-4 31 0 58v131l-2 53v23q2 29 -2 81q0 8 -1 22.5t-1 18.5v62l2 94q-2 39 -2 178q0 72 70 72q51 0 79.5 -16.5t53.5 -57.5l61 -92z" glyph-name="ntilde" horiz-adv-x="1462" unicode=""/><glyph d="M539 1927l10 -6l33 -18l28 -19l6 -4l11 -6q6 -6 12 -6q29 -18 43 -25q61 -29 82 -39q8 -4 31.5 -19.5t38.5 -23.5q33 -20 8 -90q-23 -66 -97 -37l-30 11q-2 0 -13.5 5t-19.5 9q-6 4 -19.5 10t-15.5 6l-12 6l-25 13l-12 8l-16 6l-23 12l-49 31q-14 6 -21 10 q-18 10 -50.5 33t-49.5 31q-37 29 -27 65q6 12 27 45q33 45 76 29l51 -22zM276 1395q74 70 143.5 106.5t172.5 42.5l55 2h23q6 0 10 -2h10q156 -10 314 -141q127 -123 151 -297q0 -14 4 -31v-20q0 -6 2 -19v-47q4 -25 4 -43l2 -78v-231q0 -49 -4 -70q-2 -8 -2 -20 q0 -70 -6 -113q-2 -4 -2 -6q-2 -4 -2 -8q-27 -117 -57 -168q-82 -133 -146 -174l-108 -49l-43 -17q-55 -16 -160 -24h-41q-86 4 -129 24q-178 82 -272 232q-59 111 -70 276q-2 27 -2 88v74q0 96 -2 147v115q2 14 4 21v28q0 6 2 17v26q2 12 2 25q4 25 4 43q24 172 143 291z M446 270q41 -39 74 -52t90 -19q27 0 37 -2q84 8 115 30l57 29q4 2 10.5 6t8.5 4l20 21q43 49 80 139q2 4 2 16l6 39q4 41 8 54v2l2 4q8 20 9 55v115q-2 16 -2 49q0 129 -13 272q-10 145 -102 217q-88 84 -191 88h-41q-18 0 -24 -2l-27 -2q-80 -31 -121 -69 q-102 -61 -116 -351q-6 -63 -6 -112v-176q-2 -20 -3 -50q4 -47 21 -122q2 -33 6 -39q51 -97 100 -144z" glyph-name="ograve" horiz-adv-x="1370" unicode=""/><glyph d="M760 1929l33 19l45 20q57 23 84 -18q20 -27 26 -45q14 -47 -24 -74l-105 -62q-4 -4 -20 -10l-49 -26l-25 -13l-20 -8l-7 -4l-24 -14l-21 -8h-2q-6 -4 -18 -9q-6 -4 -39 -20l-27 -8q-74 -31 -98 37q-25 74 20 100l62 37q18 4 82 41l37 16l20 12l6 4q16 12 35 21zM276 1395 q74 70 143.5 106.5t172.5 42.5l55 2h23q6 0 10 -2h10q156 -10 314 -141q127 -123 151 -297q0 -14 4 -31v-20q0 -6 2 -19v-47q4 -25 4 -43l2 -78v-231q0 -49 -4 -70q-2 -8 -2 -20q0 -70 -6 -113q-2 -4 -2 -6q-2 -4 -2 -8q-27 -117 -57 -168q-82 -133 -146 -174l-108 -49 l-43 -17q-55 -16 -160 -24h-41q-86 4 -129 24q-178 82 -272 232q-59 111 -70 276q-2 27 -2 88v74q0 96 -2 147v115q2 14 4 21v28q0 6 2 17v26q2 12 2 25q4 25 4 43q24 172 143 291zM446 270q41 -39 74 -52t90 -19q27 0 37 -2q84 8 115 30l57 29q4 2 10.5 6t8.5 4l20 21 q43 49 80 139q2 4 2 16l6 39q4 41 8 54v2l2 4q8 20 9 55v115q-2 16 -2 49q0 129 -13 272q-10 145 -102 217q-88 84 -191 88h-41q-18 0 -24 -2l-27 -2q-80 -31 -121 -69q-102 -61 -116 -351q-6 -63 -6 -112v-176q-2 -20 -3 -50q4 -47 21 -122q2 -33 6 -39q51 -97 100 -144z " glyph-name="oacute" horiz-adv-x="1370" unicode=""/><glyph d="M684 1745l-37 37q-4 -4 -23.5 -26.5t-29.5 -35.5l-12 -12q-4 -4 -23 -25l-16 -20l-21 -23l-10 -8q-23 -23 -41 -22q-25 0 -65 41q-45 49 -13 86l43 49l25 24q23 23 31 33l59 64l35 32q37 37 61 37q29 0 64 -34l30 -31q23 -23 29 -31q14 -16 31 -31l39 -45l30 -35l15 -14 l20 -22q20 -20 13 -54q-4 -16 -41 -51q-41 -39 -84 4l-80 78zM276 1395q74 70 143.5 106.5t172.5 42.5l55 2h23q6 0 10 -2h10q156 -10 314 -141q127 -123 151 -297q0 -14 4 -31v-20q0 -6 2 -19v-47q4 -25 4 -43l2 -78v-231q0 -49 -4 -70q-2 -8 -2 -20q0 -70 -6 -113 q-2 -4 -2 -6q-2 -4 -2 -8q-27 -117 -57 -168q-82 -133 -146 -174l-108 -49l-43 -17q-55 -16 -160 -24h-41q-86 4 -129 24q-178 82 -272 232q-59 111 -70 276q-2 27 -2 88v74q0 96 -2 147v115q2 14 4 21v28q0 6 2 17v26q2 12 2 25q4 25 4 43q24 172 143 291zM446 270 q41 -39 74 -52t90 -19q27 0 37 -2q84 8 115 30l57 29q4 2 10.5 6t8.5 4l20 21q43 49 80 139q2 4 2 16l6 39q4 41 8 54v2l2 4q8 20 9 55v115q-2 16 -2 49q0 129 -13 272q-10 145 -102 217q-88 84 -191 88h-41q-18 0 -24 -2l-27 -2q-80 -31 -121 -69q-102 -61 -116 -351 q-6 -63 -6 -112v-176q-2 -20 -3 -50q4 -47 21 -122q2 -33 6 -39q51 -97 100 -144z" glyph-name="ocircumflex" horiz-adv-x="1370" unicode=""/><glyph d="M541 1749q-29 0 -109 -63q-18 -14 -48 6t-46 54t0 54q37 41 99.5 76t97.5 35q68 0 108 -29q14 -4 76 -53q45 -25 72 -25q37 0 88 60q25 29 86 -7t43 -83q-23 -45 -82.5 -89.5t-122.5 -48.5q-41 -4 -115 35l-76 53l-32 17q-12 8 -39 8zM276 1395q74 70 143.5 106.5 t172.5 42.5l55 2h23q6 0 10 -2h10q156 -10 314 -141q127 -123 151 -297q0 -14 4 -31v-20q0 -6 2 -19v-47q4 -25 4 -43l2 -78v-231q0 -49 -4 -70q-2 -8 -2 -20q0 -70 -6 -113q-2 -4 -2 -6q-2 -4 -2 -8q-27 -117 -57 -168q-82 -133 -146 -174l-108 -49l-43 -17 q-55 -16 -160 -24h-41q-86 4 -129 24q-178 82 -272 232q-59 111 -70 276q-2 27 -2 88v74q0 96 -2 147v115q2 14 4 21v28q0 6 2 17v26q2 12 2 25q4 25 4 43q24 172 143 291zM446 270q41 -39 74 -52t90 -19q27 0 37 -2q84 8 115 30l57 29q4 2 10.5 6t8.5 4l20 21q43 49 80 139 q2 4 2 16l6 39q4 41 8 54v2l2 4q8 20 9 55v115q-2 16 -2 49q0 129 -13 272q-10 145 -102 217q-88 84 -191 88h-41q-18 0 -24 -2l-27 -2q-80 -31 -121 -69q-102 -61 -116 -351q-6 -63 -6 -112v-176q-2 -20 -3 -50q4 -47 21 -122q2 -33 6 -39q51 -97 100 -144z" glyph-name="otilde" horiz-adv-x="1370" unicode=""/><glyph d="M492 1862q45 0 70.5 -27t31.5 -59q4 -47 -27.5 -86t-66.5 -50q-35 -8 -69 4.5t-48 43.5q-10 25 -10 53q0 39 24.5 73.5t59.5 45.5h18l10 2h7zM809 1862q43 0 73.5 -27t32.5 -57q6 -39 -30.5 -80t-71.5 -56q-25 -8 -54.5 3.5t-45.5 40.5q-23 45 -7.5 90t54.5 69 q22 17 49 17zM276 1395q74 70 143.5 106.5t172.5 42.5l55 2h23q6 0 10 -2h10q156 -10 314 -141q127 -123 151 -297q0 -14 4 -31v-20q0 -6 2 -19v-47q4 -25 4 -43l2 -78v-231q0 -49 -4 -70q-2 -8 -2 -20q0 -70 -6 -113q-2 -4 -2 -6q-2 -4 -2 -8q-27 -117 -57 -168 q-82 -133 -146 -174l-108 -49l-43 -17q-55 -16 -160 -24h-41q-86 4 -129 24q-178 82 -272 232q-59 111 -70 276q-2 27 -2 88v74q0 96 -2 147v115q2 14 4 21v28q0 6 2 17v26q2 12 2 25q4 25 4 43q24 172 143 291zM446 270q41 -39 74 -52t90 -19q27 0 37 -2q84 8 115 30l57 29 q4 2 10.5 6t8.5 4l20 21q43 49 80 139q2 4 2 16l6 39q4 41 8 54v2l2 4q8 20 9 55v115q-2 16 -2 49q0 129 -13 272q-10 145 -102 217q-88 84 -191 88h-41q-18 0 -24 -2l-27 -2q-80 -31 -121 -69q-102 -61 -116 -351q-6 -63 -6 -112v-176q-2 -20 -3 -50q4 -47 21 -122 q2 -33 6 -39q51 -97 100 -144z" glyph-name="odieresis" horiz-adv-x="1370" unicode=""/><glyph d="M481 1090q41 0 73 -34t38 -71q6 -41 -34 -88t-79 -61q-80 -12 -100 28q-14 33 -14 68q0 45 20.5 88t52.5 61q20 9 43 9zM512 358l10 -4l49 -22q23 -18 30 -57t-3 -70q-18 -51 -67.5 -71.5t-88.5 -18.5q-92 14 -88 112q-2 51 53.5 94t104.5 37zM207 524q-106 -2 -132 20.5 t-20 96.5q6 37 30 55.5t44.5 21.5t52.5 3h23q25 -2 114 2q25 2 82 2l62 -2l303 -6q35 0 57.5 -5t41 -27.5t18.5 -63.5q-4 -68 -28 -83.5t-101 -15.5q-106 4 -207 4q-117 0 -168 -4q-20 -2 -72 -2z" glyph-name="divide" horiz-adv-x="962" unicode=""/><glyph d="M1001 1593l13 -6q39 -20 50 -40.5t-3 -53.5l-45 -104q115 -117 139 -283q0 -14 4 -31v-20q0 -6 2 -19v-47q4 -25 4 -43l2 -78v-231q0 -49 -4 -70q-2 -8 -2 -20q0 -70 -6 -113q-2 -4 -2 -6q-2 -4 -2 -8q-27 -117 -57 -168q-82 -133 -146 -174l-108 -49l-43 -17 q-55 -16 -160 -24h-41q-86 4 -129 24q-20 8 -57 29l-29 -68q-27 -51 -45.5 -57t-75.5 21q-53 25 -60 48t21 89l39 86q-41 41 -65 84q-59 111 -70 276q-2 27 -2 88v74q0 96 -2 147v115q2 14 4 21v28q0 6 2 17v26q2 12 2 25q4 25 4 43q25 172 143 291q74 70 143.5 106.5 t172.5 42.5l55 2h23q6 0 10 -2h10q96 -8 168 -43l8 17l17 24q14 33 24.5 44t34.5 19t59 -12zM610 199q27 0 37 -2q84 8 115 30l57 29q4 2 10.5 6t8.5 4l20 21q43 49 80 139q2 4 2 16l6 39q4 41 8 54v2l2 4q8 20 9 55v115q-2 16 -2 49q0 129 -13 272q-6 76 -37 135l-4 -8 q0 -2 -26 -72q-6 -16 -18.5 -42.5t-20.5 -44t-8 -21.5l-172 -381q-49 -125 -95 -215l-71 -154q44 -24 112 -30zM657 1337h-41q-18 0 -24 -2l-27 -2q-80 -31 -121 -69q-102 -61 -116 -351q-6 -63 -6 -112v-176q-2 -20 -3 -50q4 -47 21 -122q2 -33 6 -39l14 -27 q125 299 144 328l160 334l22 49l23 53q31 72 32 82l31 74q-52 26 -115 30z" glyph-name="oslash" horiz-adv-x="1370" unicode=""/><glyph d="M582 1919l10 -6l33 -19l28 -18l6 -4l11 -6q6 -6 12 -6q29 -18 43 -25q61 -29 82 -39q8 -4 31.5 -19.5t38.5 -23.5q33 -20 8 -90q-23 -66 -97 -37l-30 10q-2 0 -13.5 5.5t-19.5 9.5q-6 4 -19.5 10t-15.5 6l-12 6l-25 13l-12 8l-16 6l-23 12l-49 31q-14 6 -21 10 q-18 8 -49.5 31.5t-50.5 32.5q-37 29 -26 65q4 12 26 45q33 45 76 29l51 -23zM369 1448v-121q0 -96 -4 -184v-129l4 -213v-123q-4 -74 -4 -125q0 -80 12 -150q33 -102 80 -127q37 -35 93 -57t99 -22q10 0 78 10l16 4l13 2l35 10q23 6 59 27q31 25 41 43q35 57 39 74l10 34 l6 21q18 76 19 170v57q0 53 2 86v19q4 33 4 49v35q0 102 -4 149q-2 27 -2 78v207q0 25 4 45v17.5v23.5v16q0 8 1 29.5t1 28.5q0 68 21.5 85t78.5 17q59 0 79.5 -15.5t20.5 -82.5v-103q0 -2 -1 -8t-1 -10v-62v-30q-2 -29 -2 -78q0 -55 2 -80l2 -213v-104q-2 -37 -2 -125v-97 q0 -55 -8 -120q0 -2 -2 -9v-8l-16 -49q-47 -150 -103 -205q-154 -145 -374 -147q-98 0 -172 22q-123 39 -207 136.5t-119 228.5q-18 74 -18 184q0 2 1 6t1 8v127q0 78 6 136q0 35 -2 36q-4 41 -4 95v51q-4 45 0 90v18q0 10 2 17v139q4 86 2 141q-2 72 22.5 91.5t83.5 19.5 q70 0 88.5 -16.5t18.5 -69.5z" glyph-name="ugrave" horiz-adv-x="1411" unicode=""/><glyph d="M803 1909l33 18l45 21q57 23 84 -19q20 -27 26 -45q14 -47 -24 -74l-105 -61q-4 -4 -20 -10l-49 -27l-25 -12l-20 -8l-7 -4l-24 -15l-21 -8h-2q-6 -4 -18 -8q-6 -4 -39 -21l-27 -8q-74 -31 -98 37q-25 74 20 100l62 37q18 4 82 41l37 17l20 12l6 4q16 12 35 20zM369 1448 v-121q0 -96 -4 -184v-129l4 -213v-123q-4 -74 -4 -125q0 -80 12 -150q33 -102 80 -127q37 -35 93 -57t99 -22q10 0 78 10l16 4l13 2l35 10q23 6 59 27q31 25 41 43q35 57 39 74l10 34l6 21q18 76 19 170v57q0 53 2 86v19q4 33 4 49v35q0 102 -4 149q-2 27 -2 78v207 q0 25 4 45v17.5v23.5v16q0 8 1 29.5t1 28.5q0 68 21.5 85t78.5 17q59 0 79.5 -15.5t20.5 -82.5v-103q0 -2 -1 -8t-1 -10v-62v-30q-2 -29 -2 -78q0 -55 2 -80l2 -213v-104q-2 -37 -2 -125v-97q0 -55 -8 -120q0 -2 -2 -9v-8l-16 -49q-47 -150 -103 -205q-154 -145 -374 -147 q-98 0 -172 22q-123 39 -207 136.5t-119 228.5q-18 74 -18 184q0 2 1 6t1 8v127q0 78 6 136q0 35 -2 36q-4 41 -4 95v51q-4 45 0 90v18q0 10 2 17v139q4 86 2 141q-2 72 22.5 91.5t83.5 19.5q70 0 88.5 -16.5t18.5 -69.5z" glyph-name="uacute" horiz-adv-x="1411" unicode=""/><glyph d="M698 1755l-36 37q-4 -4 -24 -26.5t-30 -34.5l-12 -13q-4 -4 -23 -24l-16 -21l-20 -22l-11 -9q-23 -23 -41 -22q-25 0 -65 41q-45 49 -12 86l43 49l24 25q23 23 31 32l59 64l35 33q37 37 62 37q29 0 63 -35l31 -31q23 -23 28 -31q14 -16 31 -30l39 -45l31 -35l14 -15 l21 -22q20 -20 12 -53q-6 -14 -41 -52q-39 -41 -84 4l-80 78zM369 1327q0 -96 -4 -184v-129l4 -213v-123q-4 -74 -4 -125q0 -80 12 -150q33 -102 80 -127q37 -35 93 -57t99 -22q10 0 78 10l16 4l13 2l35 10q23 6 59 27q31 25 41 43q35 57 39 74l10 34l6 21q18 76 19 170v57 q0 53 2 86v19q4 33 4 49v35q0 102 -4 149q-2 27 -2 78v207q0 25 4 45v17.5v23.5v16q0 8 1 29.5t1 28.5q0 37 5 57t20.5 30.5t29.5 12.5t45 2q59 0 79.5 -15.5t20.5 -82.5v-103q0 -2 -1 -8t-1 -10v-62v-30q-2 -29 -2 -78q0 -55 2 -80l2 -213v-104q-2 -37 -2 -125v-97 q0 -55 -8 -120q0 -2 -2 -9v-8l-16 -49q-47 -150 -103 -205q-154 -145 -374 -147q-98 0 -172 22q-123 39 -207 136.5t-119 228.5q-18 74 -18 184q0 2 1 6t1 8v127q0 78 6 136q0 35 -2 36q-4 41 -4 95v51q-4 45 0 90v18l2 17v139q4 86 2 141q-2 72 22.5 91.5t83.5 19.5 q70 0 88.5 -16.5t18.5 -69.5v-121z" glyph-name="ucircumflex" horiz-adv-x="1411" unicode=""/><glyph d="M516 1880q45 0 70.5 -26.5t31.5 -59.5q4 -47 -27.5 -86t-66.5 -49q-35 -8 -68.5 4t-47.5 43q-10 27 -11 53q0 39 24.5 74t59.5 45q10 0 19 2h10h6zM834 1880q43 0 73.5 -26.5t32.5 -57.5q6 -39 -31 -80t-71 -55q-25 -8 -54.5 3t-46.5 40q-23 45 -7.5 90t54.5 70 q23 16 50 16zM369 1448v-121q0 -96 -4 -184v-129l4 -213v-123q-4 -74 -4 -125q0 -80 12 -150q33 -102 80 -127q37 -35 93 -57t99 -22q10 0 78 10l16 4l13 2l35 10q23 6 59 27q31 25 41 43q35 57 39 74l10 34l6 21q18 76 19 170v57q0 53 2 86v19q4 33 4 49v35q0 102 -4 149 q-2 27 -2 78v207q0 25 4 45v17.5v23.5v16q0 8 1 29.5t1 28.5q0 68 21.5 85t78.5 17q59 0 79.5 -15.5t20.5 -82.5v-103q0 -2 -1 -8t-1 -10v-62v-30q-2 -29 -2 -78q0 -55 2 -80l2 -213v-104q-2 -37 -2 -125v-97q0 -55 -8 -120q0 -2 -2 -9v-8l-16 -49q-47 -150 -103 -205 q-154 -145 -374 -147q-98 0 -172 22q-123 39 -207 136.5t-119 228.5q-18 74 -18 184q0 2 1 6t1 8v127q0 78 6 136q0 35 -2 36q-4 41 -4 95v51q-4 45 0 90v18q0 10 2 17v139q4 86 2 141q-2 72 22.5 91.5t83.5 19.5q70 0 88.5 -16.5t18.5 -69.5z" glyph-name="udieresis" horiz-adv-x="1411" unicode=""/><glyph d="M782 1888l33 19l45 20q57 23 84 -18q20 -27 27 -45q14 -47 -25 -74l-104 -61q-6 -4 -21 -11l-49 -26l-24 -13l-21 -8l-6 -4l-25 -14l-20 -8h-2q-6 -4 -19 -9q-6 -4 -39 -20l-26 -8q-74 -31 -98 37q-25 74 20 100l61 37q18 4 82 41l37 16l21 12l6 4q16 12 35 21zM209 1487 l53 -84l35 -55l4 -9l8 -12l41 -65l21 -35l57 -109l14 -24l29 -41l25 -35l43 -78q2 -2 20 -35l12 -22l15 -31l16 -18l19 -31q6 12 18 34.5t18 32.5l15 27l20 35l51 76l78 118l31 60l18 28l29 37q4 6 12.5 20.5t12.5 20.5l51 92l37 66l30 51q12 31 93 35q84 2 101 -18.5 t-7 -67.5l-74 -154q-29 -45 -35 -61l-14 -25l-21 -39l-12 -24l-20 -35q-59 -88 -80 -115q-6 -10 -23.5 -37.5t-25.5 -39.5l-41 -72q-33 -59 -43 -82l-60 -92l-55 -76v-88q0 -18 2 -43v-31l2 -102l2 -17v-69q-2 -39 -2 -168q2 -49 -20.5 -64.5t-73.5 -15.5q-66 0 -86.5 20.5 t-20.5 71.5v131q-4 70 -4 113v16q-2 6 -2 15q-4 43 0 71q4 14 0 49q-4 25 -4 45v58q-12 18 -26.5 37.5t-20.5 29.5l-8 11l-33 57l-14 29l-54 80l-12 20l-53 98q-51 94 -98 152l-97 178l-16 27l-35 73q-31 45 -47 107q-8 31 18.5 40t90.5 7q41 0 60.5 -11t35.5 -38z" glyph-name="yacute" horiz-adv-x="1329" unicode=""/><glyph d="M471 340h-55v-39q0 -10 1 -34.5t1 -39.5q2 -45 2 -145q0 -51 -18.5 -67.5t-92.5 -16.5q-55 0 -79.5 12.5t-24.5 48.5q2 37 2 179q0 80 -6 143q-4 51 -4 145v518q-4 37 -4 52v8q0 6 -1.5 20.5t-1.5 20.5v184q-2 29 -2 96v9q0 70 14.5 86t88.5 16q59 -4 78.5 -18.5 t19.5 -61.5l8 -145l-2 -90h6h60q143 0 235 -17q80 -12 176 -76q82 -70 132 -149q45 -74 51 -156q4 -33 4 -65q0 -35 -4 -64q-2 -2 -2 -10l-2 -8q-29 -106 -125 -217q-41 -47 -120 -80t-147 -33q-70 0 -94 -2q-49 -4 -94 -4zM635 543q45 8 67 20l58 33l16 8l10 10 q14 14 19 29q12 20 20.5 39.5t10.5 30.5l2 8q6 25 6 47q0 47 -21.5 95t-44.5 71q-37 47 -112 74q-84 16 -224 16h-12h-12q-12 2 -17 0q2 -47 2 -123q0 -43 3 -63v-7q4 -57 4 -96q0 -6 -1 -14t-1 -10v-95q-2 -20 -2 -73v-8h75q109 0 154 8z" glyph-name="thorn" horiz-adv-x="1224" unicode=""/><glyph d="M487 1845q45 0 71 -26.5t32 -59.5q4 -47 -28 -86t-66 -49q-35 -8 -69 4t-48 43q-10 25 -10 53q0 39 24.5 74t59.5 45h18l10 2h6zM805 1845q43 0 73.5 -26.5t32.5 -57.5q6 -39 -30.5 -80t-71.5 -55q-25 -8 -54.5 3t-45.5 40q-23 45 -7.5 90t54.5 70q22 16 49 16zM209 1487 l53 -84l35 -55l4 -9l8 -12l41 -65l21 -35l57 -109l14 -24l29 -41l25 -35l43 -78q2 -2 20 -35l12 -22l15 -31l16 -18l19 -31q6 12 18 34.5t18 32.5l15 27l20 35l51 76l78 118l31 60l18 28l29 37q4 6 12.5 20.5t12.5 20.5l51 92l37 66l30 51q12 31 93 35q84 2 101 -18.5 t-7 -67.5l-74 -154q-29 -45 -35 -61l-14 -25l-21 -39l-12 -24l-20 -35q-59 -88 -80 -115q-6 -10 -23.5 -37.5t-25.5 -39.5l-41 -72q-33 -59 -43 -82l-60 -92l-55 -76v-88q0 -18 2 -43v-31l2 -102l2 -17v-69q-2 -39 -2 -168q2 -49 -20.5 -64.5t-73.5 -15.5q-66 0 -86.5 20.5 t-20.5 71.5v131q-4 70 -4 113v16q-2 6 -2 15q-4 43 0 71q4 14 0 49q-4 25 -4 45v58q-12 18 -26.5 37.5t-20.5 29.5l-8 11l-33 57l-14 29l-54 80l-12 20l-53 98q-51 94 -98 152l-97 178l-16 27l-35 73q-31 45 -47 107q-8 31 18.5 40t90.5 7q41 0 60.5 -11t35.5 -38z" glyph-name="ydieresis" horiz-adv-x="1329" unicode=""/><glyph d="M551 1386l8 23l27 45q43 82 88 82q35 0 65.5 -49t89.5 -201l72 -199l6 -12l21 -69l24 -74l13 -31l14 -41l86 -256l20 -65l17 -47l14 -46q0 -2 6 -17t17.5 -43t17.5 -44q37 -92 39 -98l6 -29l2 -12l17 -33l6 -18l16 -54q20 -51 5 -76.5t-74 -23.5q-6 0 -18.5 1t-18.5 1 l-9 2q-80 0 -92 72q-4 23 -22 45l-6 14q-2 4 -2 6l-15 39q-18 37 -20 43q-6 12 -6 19l-7 14l-10 41q0 2 -2 6l-22 55q-4 4 -4 9q-27 68 -37 110q0 2 -15 31l-8 12h-313q-72 0 -90 -2h2l-25 -2l-2 -4l-6 -16q-2 -2 -2 -9q-18 -61 -47 -110v2q-4 -14 -8 -19q-8 -10 -25 -51 l-12 -31q-2 -4 -16.5 -35.5t-18.5 -45.5l-12 -27q-4 -4 -4 -8l-11 -29l-41 -74q-20 -35 -40.5 -46t-61.5 -11l-66 2q-39 6 -49 22.5t6 65.5l13 31l6 14l12 27l6 12l6 16q0 2 2.5 7.5t2.5 7.5l18 35v-2q16 33 20 47q4 6 17 34l4 15l33 78l22 45l29 69l31 78l28 76l6 14 q25 74 37 99l17 43l43 90l12 28q2 2 6 17.5t10.5 33t12.5 27.5q8 23 22 43q2 4 5 14.5t5 14.5l9 20l14 39l8 21q0 14 29 86l6 20q6 14 6 17l19 43q2 6 8 18t8 18zM678 1124l-12 43l-7 -28l-10 -31q0 -16 -8 -29l-23 -67l-18 -56l-18 -47l-17 -32q-20 -47 -26 -74 q-2 -4 -2 -8l-27 -64h127q82 0 160 2l-21 60q-4 4 -4 14l-22 72l-19 53l-10 33l-6 18zM637 1688l-176 4q-47 -6 -47 69v11q0 43 13 59t54 14h35q35 2 96 2h82l23 -2l28 -2q2 0 19.5 1t30.5 1l47 -6q25 0 34 -1t18 -16.5t7 -49.5q-2 -37 -14.5 -60.5t-38.5 -21.5h-68l-32 2 h-23z" glyph-name="Amacron" unicode=""/><glyph d="M639 1681l-176 5q-47 -6 -47 69v10q0 43 13 59.5t54 14.5h35q35 2 96 2h82l23 -2l29 -2q2 0 19 1t30 1l47 -6q25 0 34 -1t18 -16.5t7 -50.5q-2 -37 -14 -60.5t-39 -21.5h-68l-32 3h-23zM551 1386l8 23l27 45q43 82 88 82q35 0 65.5 -49t89.5 -201l72 -199l6 -12l21 -69 l24 -74l13 -31l14 -41l86 -256l20 -65l17 -47l14 -46q0 -2 6 -17t17.5 -43t17.5 -44q37 -92 39 -98l6 -29l2 -12l17 -33l6 -18l16 -54q20 -51 5 -76.5t-74 -23.5q-6 0 -18.5 1t-18.5 1l-9 2q-80 0 -92 72q-4 23 -22 45l-6 14q-2 4 -2 6l-15 39q-18 37 -20 43q-6 12 -6 19 l-7 14l-10 41q0 2 -2 6l-22 55q-4 4 -4 9q-27 68 -37 110q0 2 -15 31l-8 12h-313q-72 0 -90 -2h2l-25 -2l-2 -4l-6 -16q-2 -2 -2 -9q-18 -61 -47 -110v2q-4 -14 -8 -19q-8 -10 -25 -51l-12 -31q-2 -4 -16.5 -35.5t-18.5 -45.5l-12 -27q-4 -4 -4 -8l-11 -29l-41 -74 q-20 -35 -40.5 -46t-61.5 -11l-66 2q-39 6 -49 22.5t6 65.5l13 31l6 14l12 27l6 12l6 16q0 2 2.5 7.5t2.5 7.5l18 35v-2q16 33 20 47q4 6 17 34l4 15l33 78l22 45l29 69l31 78l28 76l6 14q25 74 37 99l17 43l43 90l12 28q2 2 6 17.5t10.5 33t12.5 27.5q8 23 22 43 q2 4 5 14.5t5 14.5l9 20l14 39l8 21q0 14 29 86l6 20q6 14 6 17l19 43q2 6 8 18t8 18zM678 1124l-12 43l-7 -28l-10 -31q0 -16 -8 -29l-23 -67l-18 -56l-18 -47l-17 -32q-20 -47 -26 -74q-2 -4 -2 -8l-27 -64h127q82 0 160 2l-21 60q-4 4 -4 14l-22 72l-19 53l-10 33l-6 18z " glyph-name="amacron" unicode=""/><glyph d="M541 1386l8 23l26 45q43 82 89 82q35 0 65.5 -49t89.5 -201l72 -199l6 -12l21 -69l24 -74l12 -31l15 -41l86 -256l20 -65l17 -47l14 -46q0 -2 6 -17t17.5 -43t17.5 -44q37 -92 39 -98l6 -29l2 -12l16 -33l7 -18l16 -54q29 -86 -29 -98q-23 -8 -45 -27l-8 -6 q-31 -27 -25 -59q0 -25 29 -47q8 -4 14 -6q39 -10 54 -19q39 -20 34 -57q-2 -49 -20 -70.5t-57 -11.5q-113 25 -168 86q-45 61 -45 129q0 84 59 156v6q-4 23 -22 45l-7 14q-2 4 -2 6l-14 39q-18 37 -20 43q-6 12 -7 19l-6 14l-10 41q0 2 -2 6l-23 55q-4 4 -4 9 q-27 68 -37 110q0 2 -14 31l-8 12h-313q-72 0 -91 -2h3l-25 -2l-2 -4l-6 -16q-2 -2 -2 -9q-18 -61 -47 -110v2q-4 -14 -9 -19q-8 -10 -24 -51l-12 -31q-2 -4 -16.5 -35.5t-18.5 -45.5l-13 -27q-4 -4 -4 -8l-10 -29l-41 -74q-20 -35 -40.5 -46t-61.5 -11l-66 2 q-39 6 -49 22.5t6 65.5l12 31l7 14l12 27l6 12l6 16q0 2 2 7.5t2 7.5l19 35v-2q16 33 20 47q4 6 17 34l4 15l32 78l23 45l29 69l30 78l29 76l6 14q25 74 37 99l16 43l43 90l13 28q2 2 6 17.5t10 33t12 27.5q8 23 23 43q2 4 5 14.5t5 14.5l8 20l15 39l8 21q0 14 29 86l6 20 q6 14 6 17l18 43q2 6 8.5 18t8.5 18zM668 1124l-13 43l-6 -28l-10 -31q0 -16 -8 -29l-41 -123l-19 -47l-16 -32q-20 -47 -27 -74q-2 -4 -2 -8l-26 -64h127q82 0 159 2l-20 60q-4 4 -4 14l-23 72l-18 53l-10 33l-6 18z" glyph-name="Aogonek" unicode=""/><glyph d="M541 1386l8 23l26 45q43 82 89 82q35 0 65.5 -49t89.5 -201l72 -199l6 -12l21 -69l24 -74l12 -31l15 -41l86 -256l20 -65l17 -47l14 -46q0 -2 6 -17t17.5 -43t17.5 -44q37 -92 39 -98l6 -29l2 -12l16 -33l7 -18l16 -54q29 -86 -29 -98q-23 -8 -45 -27l-8 -6 q-31 -27 -25 -59q0 -25 29 -47q8 -4 14 -6q39 -10 54 -19q39 -20 34 -57q-2 -49 -20 -70.5t-57 -11.5q-113 25 -168 86q-45 61 -45 129q0 84 59 156v6q-4 23 -22 45l-7 14q-2 4 -2 6l-14 39q-18 37 -20 43q-6 12 -7 19l-6 14l-10 41q0 2 -2 6l-23 55q-4 4 -4 9 q-27 68 -37 110q0 2 -14 31l-8 12h-313q-72 0 -91 -2h3l-25 -2l-2 -4l-6 -16q-2 -2 -2 -9q-18 -61 -47 -110v2q-4 -14 -9 -19q-8 -10 -24 -51l-12 -31q-2 -4 -16.5 -35.5t-18.5 -45.5l-13 -27q-4 -4 -4 -8l-10 -29l-41 -74q-20 -35 -40.5 -46t-61.5 -11l-66 2 q-39 6 -49 22.5t6 65.5l12 31l7 14l12 27l6 12l6 16q0 2 2 7.5t2 7.5l19 35v-2q16 33 20 47q4 6 17 34l4 15l32 78l23 45l29 69l30 78l29 76l6 14q25 74 37 99l16 43l43 90l13 28q2 2 6 17.5t10 33t12 27.5q8 23 23 43q2 4 5 14.5t5 14.5l8 20l15 39l8 21q0 14 29 86l6 20 q6 14 6 17l18 43q2 6 8.5 18t8.5 18zM668 1124l-13 43l-6 -28l-10 -31q0 -16 -8 -29l-41 -123l-19 -47l-16 -32q-20 -47 -27 -74q-2 -4 -2 -8l-26 -64h127q82 0 159 2l-20 60q-4 4 -4 14l-23 72l-18 53l-10 33l-6 18z" glyph-name="aogonek" unicode=""/><glyph d="M1108 1282l-14 -12q-23 -29 -36.5 -33t-62.5 10l-37 19q-8 8 -22 14l-43 29l-43 16q-53 14 -94 14l-37 -2q-25 -4 -45 -4q-88 -20 -176 -80q-51 -53 -131 -170l2 2q-70 -143 -82 -305v-26q-4 -43 -2 -52q4 -78 30 -190q47 -115 64 -143l24 -25q37 -43 64 -68l29 -20 q8 -8 19 -14t20 -9l8 -2l45 -12q8 -4 26 -4l25 -2q35 -14 162 -14h16l55 14q8 4 27 14.5t23 12.5l26 12q8 6 41 29l19 10q66 37 114 -45q41 -74 13 -94l-60 -52q-47 -41 -108 -71l-11 -4h2q-80 -31 -145 -31q-31 0 -49 -2q-45 -4 -78 -2q-178 27 -313 90q-68 41 -197 213 q-57 96 -86 301v-2q-8 33 -8 110q0 121 10 172v-2q39 281 144 412l30 33l6 6l11 14q6 6 18 25q39 43 68 59h-2l14 10.5t10 6.5t6 4l41 33l25 14q104 53 211 57q4 0 12 2l74 2q111 -2 188 -41l101 -53q51 -37 86 -76q26 -28 -27 -98zM793 1894l32 19l45 20q57 23 84 -18 q20 -27 27 -45q14 -47 -25 -74l-104 -61q-4 -6 -21 -11l-49 -26l-24 -12l-21 -9l-6 -4l-24 -14l-21 -8h-2q-6 -4 -18 -9q-6 -4 -39 -20l-27 -8q-74 -31 -98 37q-25 74 20 100l62 37q18 4 82 41l36 16l21 13l6 4q16 12 35 20z" glyph-name="Cacute" horiz-adv-x="1290" unicode=""/><glyph d="M782 1890l33 19l45 20q57 23 84 -18q20 -27 27 -45q14 -47 -25 -74l-104 -61q-6 -6 -21 -11l-49 -26l-24 -13l-21 -8l-6 -4l-25 -14l-20 -8h-2q-6 -4 -19 -9q-6 -4 -39 -20l-26 -8q-74 -31 -98 37q-25 74 20 100l61 37q18 4 82 41l37 16l21 12l6 5q16 12 35 20z M1108 1282l-14 -12q-23 -29 -36.5 -33t-62.5 10l-37 19q-8 8 -22 14l-43 29l-43 16q-53 14 -94 14l-37 -2q-25 -4 -45 -4q-88 -20 -176 -80q-51 -53 -131 -170l2 2q-70 -143 -82 -305v-26q-4 -43 -2 -52q4 -78 30 -190q47 -115 64 -143l24 -25q37 -43 64 -68l29 -20 q8 -8 19 -14t20 -9l8 -2l45 -12q8 -4 26 -4l25 -2q35 -14 162 -14h16l55 14q8 4 27 14.5t23 12.5l26 12q8 6 41 29l19 10q66 37 114 -45q41 -74 13 -94l-60 -52q-47 -41 -108 -71l-11 -4h2q-80 -31 -145 -31q-31 0 -49 -2q-45 -4 -78 -2q-178 27 -313 90q-68 41 -197 213 q-57 96 -86 301v-2q-8 33 -8 110q0 121 10 172v-2q39 281 144 412l30 33l6 6l11 14q6 6 18 25q39 43 68 59h-2l14 10.5t10 6.5t6 4l41 33l25 14q104 53 211 57q4 0 12 2l74 2q111 -2 188 -41l101 -53q51 -37 86 -76q26 -28 -27 -98z" glyph-name="cacute" horiz-adv-x="1290" unicode=""/><glyph d="M1094 1270q-23 -29 -36.5 -33t-62.5 10l-37 19q-8 8 -22 14l-43 29l-43 16q-53 14 -94 14l-37 -2q-25 -4 -45 -4q-88 -20 -176 -80q-51 -53 -131 -170l2 2q-70 -143 -82 -305v-26q-4 -43 -2 -52q4 -78 30 -190q47 -115 64 -143l24 -25q37 -43 64 -68l29 -20 q16 -16 47 -25l45 -12q8 -4 26 -4l25 -2q35 -14 162 -14h16l55 14q8 4 27 14.5t23 12.5l26 12q8 6 41 29l19 10q66 37 114 -45q41 -74 13 -94l-60 -52q-47 -41 -108 -71l-11 -4h2q-80 -31 -145 -31q-31 0 -49 -2q-45 -4 -78 -2q-178 27 -313 90q-68 41 -197 213 q-57 96 -86 301v-2q-8 33 -8 110q0 121 10 172v-2q39 281 144 412l30 33l6 6l11 14l18 25q39 43 68 59h-2q6 4 12 8.5t8 5.5t5 3t5 4l41 33q10 6 25 14q104 53 211 57q4 0 12 2l74 2q111 -2 188 -41l101 -53q51 -37 86 -76q27 -29 -27 -98zM709 1784l36 37l29 34l80 78 q43 45 84 4q37 -35 41 -51q8 -33 -12 -53l-21 -23l-14 -14l-31 -35l-39 -45q-16 -14 -31 -30q-6 -8 -28 -31l-31 -31q-35 -35 -63 -35q-25 0 -62 37l-35 33l-59 63q-8 10 -31 33l-24 25l-43 49q-33 37 12 86q41 41 65 41q18 0 41 -23l11 -8l20 -22l17 -21l22 -24l12 -13 q10 -12 30 -34.5t24 -26.5z" glyph-name="Ccaron" horiz-adv-x="1290" unicode=""/><glyph d="M709 1786l36 37l29 35l80 77q43 43 84 4q37 -35 41 -51q8 -33 -12 -53l-21 -23l-14 -14l-31 -35l-39 -45q-16 -14 -31 -30q-6 -8 -28 -31l-31 -31q-35 -35 -63 -35q-25 0 -62 37l-35 33l-59 63q-8 10 -31 33l-24 25l-43 49q-33 37 12 86q41 41 65 41q18 0 41 -23l11 -8 l20 -22l17 -21l22 -24l12 -13q10 -12 30 -34.5t24 -26.5zM1094 1270q-23 -29 -36.5 -33t-62.5 10l-37 19q-8 8 -22 14l-43 29l-43 16q-53 14 -94 14l-37 -2q-25 -4 -45 -4q-88 -20 -176 -80q-51 -53 -131 -170l2 2q-70 -143 -82 -305v-26q-4 -43 -2 -52q4 -78 30 -190 q47 -115 64 -143l24 -25q37 -43 64 -68l29 -20q16 -16 47 -25l45 -12q8 -4 26 -4l25 -2q35 -14 162 -14h16l55 14q8 4 27 14.5t23 12.5l26 12q8 6 41 29l19 10q66 37 114 -45q41 -74 13 -94l-60 -52q-47 -41 -108 -71l-11 -4h2q-80 -31 -145 -31q-31 0 -49 -2q-45 -4 -78 -2 q-178 27 -313 90q-68 41 -197 213q-57 96 -86 301v-2q-8 33 -8 110q0 121 10 172v-2q39 281 144 412l30 33l6 6l11 14l18 25q39 43 68 59h-2q6 4 12 8.5t8 5.5t5 3t5 4l41 33q10 6 25 14q104 53 211 57q4 0 12 2l74 2q111 -2 188 -41l101 -53q51 -37 86 -76q27 -29 -27 -98z " glyph-name="ccaron" horiz-adv-x="1290" unicode=""/><glyph d="M190 209q0 109 5 309v590l4 143v88l2 72l2 70q-2 27 15.5 41t53.5 14h78q137 0 271 -18q236 -39 405 -209l18 -25l48 -51q63 -88 104 -240l6 -24l6 -35q16 -61 17 -148q4 -39 -4 -110l-7 -78l-18 -74q-2 -25 -27 -78l-18 -38l-8 -17l-8 -14l-21 -39l-18 -21l-25 -36 l-20 -25q-25 -45 -66 -70q-199 -150 -367 -176q-86 -12 -237 -12q-6 2 -42 2t-52 -2q-66 4 -81.5 17.5t-15.5 74.5v119zM532 197q90 0 152 41l64 34l81 60l29 22q31 27 62 68l16 20l18 43q31 53 52 152q10 41 10 96l2 17v45q0 2 -1 9t-1 13q0 4 -1 12.5t-1 14.5 q-27 115 -41 149l-25 54l-28 45l-41 57l-15 18l-20 29q-33 25 -41 35q-18 18 -41 31q-2 2 -57 26l-52 12l-35 11l-28 10q-14 4 -59.5 7t-51.5 1l-73 -2v-104l-3 -31v-109q-4 -45 -4 -67q0 -57 2 -82v-193q0 -82 -4 -245v-303q59 0 135 4zM670 1765l37 37l28 35l80 78 q45 43 84 4q35 -35 41 -51q8 -33 -12 -53l-21 -23l-14 -14l-31 -35l-39 -45q-16 -14 -30 -31q-6 -8 -29 -31l-31 -30q-35 -35 -63 -35q-25 0 -62 37l-35 32l-59 64q-8 10 -31 33l-24 24l-43 49q-33 37 12 86q41 41 66 41q18 0 41 -22l10 -8l20 -23l17 -20l22 -25l12 -12 q10 -12 30 -35t24 -27z" glyph-name="Dcaron" horiz-adv-x="1388" unicode=""/><glyph d="M696 1753l37 37l29 35l80 78q43 43 84 4q37 -35 41 -52q8 -33 -13 -53l-20 -22l-14 -15l-31 -34l-39 -45q-16 -14 -31 -31q-6 -8 -28 -31l-31 -31q-35 -35 -64 -34q-25 0 -61 36l-35 33l-59 64q-8 10 -31 32l-25 25l-43 49q-33 37 13 86q41 41 65 41q18 0 41 -22l10 -9 l21 -22l16 -21l23 -24l12 -12q10 -12 29.5 -35t23.5 -27zM190 209q0 109 5 309v590l4 143v88l2 72l2 70q-2 27 15.5 41t53.5 14h78q137 0 271 -18q236 -39 405 -209l18 -25l48 -51q63 -88 104 -240l6 -24l6 -35q16 -61 17 -148q4 -39 -4 -110l-7 -78l-18 -74q-2 -25 -27 -78 l-18 -38l-8 -17l-8 -14l-21 -39l-18 -21l-25 -36l-20 -25q-25 -45 -66 -70q-199 -150 -367 -176q-86 -12 -237 -12q-6 2 -42 2t-52 -2q-66 4 -81.5 17.5t-15.5 74.5v119zM532 197q90 0 152 41l64 34l81 60l29 22q31 27 62 68l16 20l18 43q31 53 52 152q10 41 10 96l2 17v45 q0 2 -1 9t-1 13q0 4 -1 12.5t-1 14.5q-27 115 -41 149l-25 54l-28 45l-41 57l-15 18l-20 29q-33 25 -41 35q-18 18 -41 31q-2 2 -57 26l-52 12l-35 11l-28 10q-14 4 -59.5 7t-51.5 1l-73 -2v-104l-3 -31v-109q-4 -45 -4 -67q0 -57 2 -82v-193q0 -82 -4 -245v-303q59 0 135 4 z" glyph-name="dcaron" horiz-adv-x="1388" unicode=""/><glyph d="M190 90v119q0 109 5 309v135h-105q-68 4 -86 28t-12 97q10 53 26.5 63.5t75.5 10.5h17q45 4 84 4v252l4 143v88l2 72l2 70q-2 27 15.5 41t53.5 14h78q137 0 271 -18q236 -39 405 -209l18 -25l48 -51q63 -88 104 -240l6 -24l6 -35q16 -61 17 -148q4 -39 -4 -110l-7 -78 l-18 -74q-2 -25 -27 -78l-18 -38l-8 -17l-8 -14l-21 -39l-18 -21l-25 -36l-20 -25q-25 -45 -66 -70q-199 -150 -367 -176q-86 -12 -237 -12q-6 2 -42 2t-52 -2q-66 4 -81.5 17.5t-15.5 74.5zM532 197q90 0 152 41l64 34l81 60l29 22q31 27 62 68l16 20l18 43q31 53 52 152 q10 41 10 96q0 10 2 17v45q0 2 -1 9t-1 13q0 4 -1 12.5t-1 14.5q-27 115 -41 149l-25 54l-28 45l-41 57l-15 18l-20 29q-33 25 -41 35q-18 18 -41 31l-57 26l-52 12l-35 11l-28 10q-14 4 -59.5 7t-51.5 1l-73 -2v-104l-3 -31v-109q-4 -45 -4 -67q0 -57 2 -82v-78 q88 0 111 -2h55q68 2 93.5 -15.5t25.5 -93.5q0 -59 -25.5 -77.5t-89.5 -18.5h-170q-4 -102 -4 -153v-303z" glyph-name="Dcroat" horiz-adv-x="1388" unicode=""/><glyph d="M190 90v119q0 109 5 309v135h-105q-68 4 -86 28t-12 97q10 53 26.5 63.5t75.5 10.5h17q45 4 84 4v252l4 143v88l2 72l2 70q-2 27 15.5 41t53.5 14h78q137 0 271 -18q236 -39 405 -209l18 -25l48 -51q63 -88 104 -240l6 -24l6 -35q16 -61 17 -148q4 -39 -4 -110l-7 -78 l-18 -74q-2 -25 -27 -78l-18 -38l-8 -17l-8 -14l-21 -39l-18 -21l-25 -36l-20 -25q-25 -45 -66 -70q-199 -150 -367 -176q-86 -12 -237 -12q-6 2 -42 2t-52 -2q-66 4 -81.5 17.5t-15.5 74.5zM532 197q90 0 152 41l64 34l81 60l29 22q31 27 62 68l16 20l18 43q31 53 52 152 q10 41 10 96q0 10 2 17v45q0 2 -1 9t-1 13q0 4 -1 12.5t-1 14.5q-27 115 -41 149l-25 54l-28 45l-41 57l-15 18l-20 29q-33 25 -41 35q-18 18 -41 31l-57 26l-52 12l-35 11l-28 10q-14 4 -59.5 7t-51.5 1l-73 -2v-104l-3 -31v-109q-4 -45 -4 -67q0 -57 2 -82v-78 q88 0 111 -2h55q68 2 93.5 -15.5t25.5 -93.5q0 -59 -25.5 -77.5t-89.5 -18.5h-170q-4 -102 -4 -153v-303z" glyph-name="dcroat" horiz-adv-x="1388" unicode=""/><glyph d="M893 1534q66 -2 81 -13.5t23 -72.5l-2 -33q0 -84 -116 -78h-9q-68 0 -108 -2q-25 -2 -84 -2q-27 0 -45 -2l-217 -2h-6h-8.5h-10.5q0 -59 4 -96q4 -74 4 -113q0 -37 -4 -82l-2 -4v-8q-6 -92 -2 -119h148q29 -4 36 -4q33 0 70 4l133 -6q33 0 49.5 -13.5t19.5 -27.5t3 -41 q2 -35 -1 -54.5t-16.5 -27.5t-22.5 -9t-38 -1h-18q-92 -8 -142 -4h-75q-23 -2 -72 -2l-64 2h-8v-121q2 -16 -2 -65v-23l-2 -49q-2 -23 4 -84q2 -35 2 -115l-2 -57v-4q41 -4 123 -4q8 0 25.5 -1t27.5 -1q49 -4 99 0h127l73 -4q6 0 15.5 -1t11.5 -1q33 -2 43 -3.5t23.5 -9.5 t15.5 -21.5t6 -41.5q2 -68 -5 -84.5t-44 -28.5q-6 0 -10 -2q-16 -2 -170 2h-195q-104 0 -190 -4h-101q-55 0 -71.5 23.5t-16.5 80.5v35q2 63 2 187v217q0 61 -2 92l-2 113l4 126q0 94 -2 144v90l2 43q0 39 -2 57q-2 29 -2 103q0 98 2 135v8q2 29 5 43t24.5 26.5t62.5 12.5 q123 0 170 -2q121 -4 138 -2q61 4 174 4zM598 1671l-176 4q-47 -6 -47 70v10q0 43 13 59.5t54 14.5h35q35 2 96 2h82l23 -2l29 -2q2 0 19 1t30 1l47 -6q25 0 34 -1t18 -16.5t7 -50.5q-2 -37 -14 -60.5t-39 -21.5h-68l-32 2h-23z" glyph-name="Emacron" horiz-adv-x="1157" unicode=""/><glyph d="M594 1673l-176 4q-47 -6 -47 70v10q0 43 13 59.5t54 14.5h35q35 2 96 2h82l23 -2l28 -2q2 0 19.5 1t30.5 1l47 -6q25 0 34 -1t18 -16.5t7 -50.5q-2 -37 -14.5 -60.5t-38.5 -21.5h-68l-32 2h-23zM893 1534q66 -2 81 -13.5t23 -72.5l-2 -33q0 -84 -116 -78h-9 q-68 0 -108 -2q-25 -2 -84 -2q-27 0 -45 -2l-217 -2h-6h-8.5h-10.5q0 -59 4 -96q4 -74 4 -113q0 -37 -4 -82l-2 -4v-8q-6 -92 -2 -119h148q29 -4 36 -4q33 0 70 4l133 -6q33 0 49.5 -13.5t19.5 -27.5t3 -41q2 -35 -1 -54.5t-16.5 -27.5t-22.5 -9t-38 -1h-18q-92 -8 -142 -4 h-75q-23 -2 -72 -2l-64 2h-8v-121q2 -16 -2 -65v-23l-2 -49q-2 -23 4 -84q2 -35 2 -115l-2 -57v-4q41 -4 123 -4q8 0 25.5 -1t27.5 -1q49 -4 99 0h127l73 -4q6 0 15.5 -1t11.5 -1q33 -2 43 -3.5t23.5 -9.5t15.5 -21.5t6 -41.5q2 -68 -5 -84.5t-44 -28.5q-6 0 -10 -2 q-16 -2 -170 2h-195q-104 0 -190 -4h-101q-55 0 -71.5 23.5t-16.5 80.5v35q2 63 2 187v217q0 61 -2 92l-2 113l4 126q0 94 -2 144v90l2 43q0 39 -2 57q-2 29 -2 103q0 98 2 135v8q2 29 5 43t24.5 26.5t62.5 12.5q123 0 170 -2q121 -4 138 -2q61 4 174 4z" glyph-name="emacron" horiz-adv-x="1157" unicode=""/><glyph d="M893 1534q66 -2 81 -13.5t23 -72.5l-2 -33q0 -84 -116 -78h-9q-68 0 -108 -2q-25 -2 -84 -2q-27 0 -45 -2l-217 -2h-6h-8.5h-10.5q0 -59 4 -96q4 -74 4 -113q0 -37 -4 -82l-2 -4v-8q-6 -92 -2 -119h148q29 -4 36 -4q33 0 70 4l133 -6q33 0 49.5 -13.5t19.5 -27.5t3 -41 q2 -35 -1 -54.5t-16.5 -27.5t-22.5 -9t-38 -1h-18q-92 -8 -142 -4h-75q-23 -2 -72 -2l-64 2h-8v-121q2 -16 -2 -65v-23l-2 -49q-2 -23 4 -84q2 -35 2 -115l-2 -57v-4q41 -4 123 -4q8 0 25.5 -1t27.5 -1q49 -4 99 0h127l73 -4q6 0 15.5 -1t11.5 -1q33 -2 43 -3.5t23.5 -9.5 t15.5 -21.5t6 -41.5q2 -68 -5 -84.5t-44 -28.5q-6 0 -10 -2q-16 -2 -170 2h-195q-104 0 -190 -4h-101q-55 0 -71.5 23.5t-16.5 80.5v35q2 63 2 187v217q0 61 -2 92l-2 113l4 126q0 94 -2 144v90l2 43q0 39 -2 57q-2 29 -2 103q0 98 2 135v8q2 29 5 43t24.5 26.5t62.5 12.5 q123 0 170 -2q121 -4 138 -2q61 4 174 4zM639 1886q43 0 71.5 -29.5t32.5 -74.5q6 -35 -30.5 -75t-65.5 -52q-57 -14 -81.5 -2t-55.5 53q-35 57 -4 108.5t96 65.5l10 2q9 4 27 4z" glyph-name="Edotaccent" horiz-adv-x="1157" unicode=""/><glyph d="M655 1892q43 0 72 -29.5t33 -74.5q6 -35 -31 -75t-65 -52q-57 -14 -82 -2t-56 53q-35 57 -4 108.5t96 65.5l11 2q8 4 26 4zM893 1534q66 -2 81 -13.5t23 -72.5l-2 -33q0 -84 -116 -78h-9q-68 0 -108 -2q-25 -2 -84 -2q-27 0 -45 -2l-217 -2h-6h-8.5h-10.5q0 -59 4 -96 q4 -74 4 -113q0 -37 -4 -82l-2 -4v-8q-6 -92 -2 -119h148q29 -4 36 -4q33 0 70 4l133 -6q33 0 49.5 -13.5t19.5 -27.5t3 -41q2 -35 -1 -54.5t-16.5 -27.5t-22.5 -9t-38 -1h-18q-92 -8 -142 -4h-75q-23 -2 -72 -2l-64 2h-8v-121q2 -16 -2 -65v-23l-2 -49q-2 -23 4 -84 q2 -35 2 -115l-2 -57v-4q41 -4 123 -4q8 0 25.5 -1t27.5 -1q49 -4 99 0h127l73 -4q6 0 15.5 -1t11.5 -1q33 -2 43 -3.5t23.5 -9.5t15.5 -21.5t6 -41.5q2 -68 -5 -84.5t-44 -28.5q-6 0 -10 -2q-16 -2 -170 2h-195q-104 0 -190 -4h-101q-55 0 -71.5 23.5t-16.5 80.5v35 q2 63 2 187v217q0 61 -2 92l-2 113l4 126q0 94 -2 144v90l2 43q0 39 -2 57q-2 29 -2 103q0 98 2 135v8q2 29 5 43t24.5 26.5t62.5 12.5q123 0 170 -2q121 -4 138 -2q61 4 174 4z" glyph-name="edotaccent" horiz-adv-x="1157" unicode=""/><glyph d="M893 1534q66 -2 81 -13.5t23 -72.5l-2 -33q0 -84 -116 -78h-9q-68 0 -108 -2q-25 -2 -84 -2q-27 0 -45 -2l-217 -2h-6h-8.5h-10.5q0 -59 4 -96q4 -74 4 -113q0 -37 -4 -82l-2 -4v-8q-6 -92 -2 -121h148q29 -4 36 -4q33 0 70 4l133 -6q33 0 49.5 -13.5t19.5 -27.5t3 -41 q2 -35 -1 -54.5t-16.5 -27.5t-22.5 -9t-38 -1h-18q-92 -8 -142 -4h-75q-23 -2 -72 -2l-64 2h-8v-119q2 -16 -2 -65v-23l-2 -49q-2 -23 4 -84q2 -35 2 -115l-2 -57v-4q41 -4 123 -4q8 0 25.5 -1t27.5 -1q49 -4 99 0h127l73 -4q6 0 15.5 -1t11.5 -1q33 -2 43 -3.5t23.5 -9.5 t15.5 -21.5t6 -41.5q2 -68 -5 -84.5t-44 -28.5h-2q-41 -16 -62 -35l-8 -6q-31 -27 -24 -59q0 -25 28 -47q8 -4 15 -7q39 -10 53 -18q39 -20 35 -57q-2 -49 -20.5 -70.5t-57.5 -11.5q-113 25 -168 86q-45 61 -45 129q0 55 41 96h-160q-104 0 -190 -4h-101q-55 0 -71.5 23.5 t-16.5 80.5v35q2 63 2 187v217q0 61 -2 92l-2 113l4 126q0 94 -2 144v90l2 43q0 39 -2 57q-2 29 -2 103q0 98 2 135v8q2 29 5 43t24.5 26.5t62.5 12.5q123 0 170 -2q121 -4 138 -2q61 4 174 4z" glyph-name="Eogonek" horiz-adv-x="1157" unicode=""/><glyph d="M893 1534q66 -2 81 -13.5t23 -72.5l-2 -33q0 -84 -116 -78h-9q-68 0 -108 -2q-25 -2 -84 -2q-27 0 -45 -2l-217 -2h-6h-8.5h-10.5q0 -59 4 -96q4 -74 4 -113q0 -37 -4 -82l-2 -4v-8q-6 -92 -2 -121h148q29 -4 36 -4q33 0 70 4l133 -6q33 0 49.5 -13.5t19.5 -27.5t3 -41 q2 -35 -1 -54.5t-16.5 -27.5t-22.5 -9t-38 -1h-18q-92 -8 -142 -4h-75q-23 -2 -72 -2l-64 2h-8v-119q2 -16 -2 -65v-23l-2 -49q-2 -23 4 -84q2 -35 2 -115l-2 -57v-4q41 -4 123 -4q8 0 25.5 -1t27.5 -1q49 -4 99 0h127l73 -4q6 0 15.5 -1t11.5 -1q33 -2 43 -3.5t23.5 -9.5 t15.5 -21.5t6 -41.5q2 -68 -5 -84.5t-44 -28.5h-2q-41 -16 -62 -35l-8 -6q-31 -27 -24 -59q0 -25 28 -47q8 -4 15 -7q39 -10 53 -18q39 -20 35 -57q-2 -49 -20.5 -70.5t-57.5 -11.5q-113 25 -168 86q-45 61 -45 129q0 55 41 96h-160q-104 0 -190 -4h-101q-55 0 -71.5 23.5 t-16.5 80.5v35q2 63 2 187v217q0 61 -2 92l-2 113l4 126q0 94 -2 144v90l2 43q0 39 -2 57q-2 29 -2 103q0 98 2 135v8q2 29 5 43t24.5 26.5t62.5 12.5q123 0 170 -2q121 -4 138 -2q61 4 174 4z" glyph-name="eogonek" horiz-adv-x="1157" unicode=""/><glyph d="M893 1534q66 -2 81 -13.5t23 -72.5l-2 -33q0 -84 -116 -78h-9q-68 0 -108 -2q-25 -2 -84 -2q-27 0 -45 -2l-217 -2h-6h-8.5h-10.5q0 -59 4 -96q4 -74 4 -113q0 -37 -4 -82l-2 -4v-8q-6 -92 -2 -119h148q29 -4 36 -4q33 0 70 4l133 -6q33 0 49.5 -13.5t19.5 -27.5t3 -41 q2 -29 -2 -47t-7 -27.5t-17.5 -13.5t-20.5 -4h-31h-18q-92 -8 -142 -4h-75q-23 -2 -72 -2l-64 2h-8v-121q2 -16 -2 -65v-23l-2 -49q-2 -23 4 -84q2 -35 2 -115l-2 -57v-4q41 -4 123 -4q8 0 25.5 -1t27.5 -1q49 -4 99 0h127l73 -4q6 0 15.5 -1t11.5 -1q57 -4 69.5 -13.5 t18.5 -62.5q2 -68 -5 -84.5t-44 -28.5q-6 0 -10 -2q-16 -2 -170 2h-195q-104 0 -190 -4h-101q-55 0 -71.5 23.5t-16.5 80.5v35q2 63 2 187v217q0 61 -2 92l-2 113l4 126q0 94 -2 144v90l2 43q0 39 -2 57q-2 29 -2 103q0 98 2 135v8q2 29 5 43t24.5 26.5t62.5 12.5 q123 0 170 -2q121 -4 138 -2q61 4 174 4q80 0 139 -2zM608 1767l37 37l29 35l80 78q45 45 84 4q35 -37 41 -51q8 -33 -13 -53l-20 -23l-15 -14l-30 -35l-39 -45q-16 -14 -31 -31q-6 -8 -29 -31l-30 -30q-35 -35 -64 -35q-25 0 -61 37l-35 32l-59 64q-8 10 -31 33l-25 24 l-43 49q-33 37 13 86q41 41 65 41q18 0 41 -22l10 -8l21 -23l16 -20l23 -25l12 -12q10 -12 29.5 -35t23.5 -27z" glyph-name="Ecaron" horiz-adv-x="1157" unicode=""/><glyph d="M621 1776l36 36l29 35l80 78q45 45 84 4q35 -37 41 -51q8 -33 -12 -53l-21 -23l-14 -14l-31 -35l-39 -45q-16 -14 -31 -31q-6 -8 -28 -30l-31 -31q-35 -35 -63 -35q-25 0 -62 37l-35 33l-59 63q-8 10 -31 33l-24 25l-43 49q-33 37 12 86q41 41 65 41q18 0 41 -23l11 -8 l20 -23l16 -20l23 -25l12 -12q10 -12 30 -34.5t24 -26.5zM893 1534q66 -2 81 -13.5t23 -72.5l-2 -33q0 -84 -116 -78h-9q-68 0 -108 -2q-25 -2 -84 -2q-27 0 -45 -2l-217 -2h-6h-8.5h-10.5q0 -59 4 -96q4 -74 4 -113q0 -37 -4 -82l-2 -4v-8q-6 -92 -2 -119h148q29 -4 36 -4 q33 0 70 4l133 -6q33 0 49.5 -13.5t19.5 -27.5t3 -41q2 -29 -2 -47t-7 -27.5t-17.5 -13.5t-20.5 -4h-31h-18q-92 -8 -142 -4h-75q-23 -2 -72 -2l-64 2h-8v-121q2 -16 -2 -65v-23l-2 -49q-2 -23 4 -84q2 -35 2 -115l-2 -57v-4q41 -4 123 -4q8 0 25.5 -1t27.5 -1q49 -4 99 0 h127l73 -4q6 0 15.5 -1t11.5 -1q57 -4 69.5 -13.5t18.5 -62.5q2 -68 -5 -84.5t-44 -28.5q-6 0 -10 -2q-16 -2 -170 2h-195q-104 0 -190 -4h-101q-55 0 -71.5 23.5t-16.5 80.5v35q2 63 2 187v217q0 61 -2 92l-2 113l4 126q0 94 -2 144v90l2 43q0 39 -2 57q-2 29 -2 103 q0 98 2 135v8q2 29 5 43t24.5 26.5t62.5 12.5q123 0 170 -2q121 -4 138 -2q61 4 174 4q80 0 139 -2z" glyph-name="ecaron" horiz-adv-x="1157" unicode=""/><glyph d="M1079 1290q-27 -59 -80 -59q-20 0 -45 20q-2 0 -8 5.5t-10 7.5l-25 14l-28 16l-54 21l-16 4q-47 16 -104 16q-27 0 -45 -4q-117 -23 -203 -117q-2 -4 -39 -49l-14 -22q-68 -94 -82 -152q-25 -123 -33 -241q-10 -166 57 -308l21 -39l20 -30h-2l14 -15q63 -63 91 -84 q92 -49 133 -61l20 -8q14 -4 88 -4q76 0 154 47l14 10l12 8l5 4v148q0 49 -2 51l-3 70v34q0 12 1.5 33t1.5 33q4 59 0 117v37q0 63 16 80.5t88 15.5q51 -2 66.5 -20.5t21.5 -63.5q2 -14 2 -113v-117q4 -94 4 -141q0 -31 -4 -72q0 -16 2 -61t2 -63q0 -31 -4 -48 q-14 -45 -84 -94l-14 -14q-139 -96 -293 -92h-43q-29 0 -43 6q-78 10 -117 29l-10 2q-25 6 -43 14q-41 16 -75 36.5t-49 34t-58 50.5q-94 102 -117 184q-25 35 -33 72l-18 49q-25 113 -25 244q0 113 10 176v20l6 60q12 86 41 137q33 76 88.5 162t98.5 123l14 10l17 14 q6 4 38.5 27.5t47.5 32.5q139 74 254 71q145 -2 233 -49q119 -72 141 -100q33 -48 0 -105zM958 1874l-2 -16l-10 -52q-14 -63 -74 -116q-45 -45 -94 -54q-23 -8 -61 -8q-45 0 -66 6q-70 10 -106 41v-2q-104 84 -105 205q0 51 74 51q61 0 70 -39q2 -20 12 -47q25 -49 55 -65 l29 -9q4 0 14.5 -1t16.5 -1q33 0 47 15l12 6l12 18q0 2 11 13h-2q12 16 12 24q10 14 16 49q6 41 70 39q43 -2 55 -12t14 -45z" glyph-name="Gbreve" horiz-adv-x="1333" unicode=""/><glyph d="M952 1884l-2 -16l-10 -51q-14 -63 -74 -117q-45 -45 -94 -53q-23 -8 -61 -9q-43 0 -66 7q-70 10 -106 41v-3q-104 82 -105 205q0 51 74 51q61 0 70 -38q2 -20 12 -48q25 -49 55 -65l29 -8q6 0 16 -1t15 -1q33 0 47 14l12 6q4 4 8 12q2 4 4 7q0 2 10 12h-2q12 16 13 24 q10 14 16 50q6 41 70 39q43 -2 55 -12.5t14 -45.5zM1079 1290q-27 -59 -80 -59q-20 0 -45 20q-2 0 -8 5.5t-10 7.5l-25 14l-28 16l-54 21l-16 4q-47 16 -104 16q-27 0 -45 -4q-117 -23 -203 -117q-2 -4 -39 -49l-14 -22q-68 -94 -82 -152q-25 -123 -33 -241 q-10 -166 57 -308l21 -39l20 -30h-2l14 -15q63 -63 91 -84q92 -49 133 -61l20 -8q14 -4 88 -4q76 0 154 47l14 10l12 8l5 4v148q0 49 -2 51l-3 70v34q0 12 1.5 33t1.5 33q4 59 0 117v37q0 63 16 80.5t88 15.5q51 -2 66.5 -20.5t21.5 -63.5q2 -14 2 -113v-117q4 -94 4 -141 q0 -31 -4 -72q0 -16 2 -61t2 -63q0 -31 -4 -48q-14 -45 -84 -94l-14 -14q-139 -96 -293 -92h-43q-29 0 -43 6q-78 10 -117 29l-10 2q-25 6 -43 14q-41 16 -75 36.5t-49 34t-58 50.5q-94 102 -117 184q-25 35 -33 72l-18 49q-25 113 -25 244q0 113 10 176v20l6 60 q12 86 41 137q33 76 88.5 162t98.5 123l14 10l17 14q6 4 38.5 27.5t47.5 32.5q139 74 254 71q145 -2 233 -49q119 -72 141 -100q33 -48 0 -105z" glyph-name="gbreve" horiz-adv-x="1333" unicode=""/><glyph d="M1079 1290q-27 -59 -80 -59q-20 0 -45 20q-2 0 -8 5.5t-10 7.5l-25 14l-28 16l-54 21l-16 4q-47 16 -104 16q-27 0 -45 -4q-117 -23 -203 -117q-2 -4 -39 -49l-14 -22q-68 -94 -82 -152q-25 -123 -33 -241q-10 -166 57 -308l21 -39l20 -30h-2l14 -15q63 -63 91 -84 q92 -49 133 -61l20 -8q14 -4 88 -4q76 0 154 47l14 10l12 8l5 4v148q0 49 -2 51l-3 70v34q0 12 1.5 33t1.5 33q4 59 0 117v37q0 63 16 80.5t88 15.5q51 -2 66.5 -20.5t21.5 -63.5q2 -14 2 -113v-117q4 -94 4 -141q0 -31 -4 -72q0 -16 2 -61t2 -63q0 -31 -4 -48 q-14 -45 -84 -94l-14 -14q-139 -96 -293 -92h-43q-29 0 -43 6q-78 10 -117 29l-10 2q-25 6 -43 14q-41 16 -75 36.5t-49 34t-58 50.5q-94 102 -117 184q-25 35 -33 72l-18 49q-25 113 -25 244q0 113 10 176v20l6 60q12 86 41 137q33 76 88.5 162t98.5 123l14 10l17 14 q6 4 38.5 27.5t47.5 32.5q139 74 254 71q145 -2 233 -49q119 -72 141 -100q33 -48 0 -105zM563 -256l70 131q20 53 119 12q27 -12 43 -38.5t8 -49.5l-8 -18q-16 -31 -17 -37l-18 -37q-2 -6 -8.5 -18.5t-8.5 -18.5q-23 -23 -41 -86l-61 -133l-8 -16q-14 -31 -21 -37 q-2 -2 -20 -27q-35 -39 -98.5 2t-53.5 97q2 25 21 49q4 10 18 39q47 100 51 112z" glyph-name="Gcommaaccent" horiz-adv-x="1333" unicode=""/><glyph d="M1079 1290q-27 -59 -80 -59q-20 0 -45 20q-2 0 -8 5.5t-10 7.5l-25 14l-28 16l-54 21l-16 4q-47 16 -104 16q-27 0 -45 -4q-117 -23 -203 -117q-2 -4 -39 -49l-14 -22q-68 -94 -82 -152q-25 -123 -33 -241q-10 -166 57 -308l21 -39l20 -30h-2l14 -15q63 -63 91 -84 q92 -49 133 -61l20 -8q14 -4 88 -4q76 0 154 47l14 10l12 8l5 4v148q0 49 -2 51l-3 70v34q0 12 1.5 33t1.5 33q4 59 0 117v37q0 63 16 80.5t88 15.5q51 -2 66.5 -20.5t21.5 -63.5q2 -14 2 -113v-117q4 -94 4 -141q0 -31 -4 -72q0 -16 2 -61t2 -63q0 -31 -4 -48 q-14 -45 -84 -94l-14 -14q-139 -96 -293 -92h-43q-29 0 -43 6q-78 10 -117 29l-10 2q-25 6 -43 14q-41 16 -75 36.5t-49 34t-58 50.5q-94 102 -117 184q-25 35 -33 72l-18 49q-25 113 -25 244q0 113 10 176v20l6 60q12 86 41 137q33 76 88.5 162t98.5 123l14 10l17 14 q6 4 38.5 27.5t47.5 32.5q139 74 254 71q145 -2 233 -49q119 -72 141 -100q33 -48 0 -105zM545 -270l69 131q20 53 119 12q27 -12 43.5 -39t7.5 -49l-8 -18q-16 -31 -16 -37l-19 -37q-2 -6 -8 -18.5t-8 -18.5q-23 -23 -41 -86l-61 -133l-9 -17q-14 -31 -20 -36 q-2 -2 -21 -27q-35 -39 -98 2t-53 96q2 25 20 49q4 10 19 39q47 100 51 113z" glyph-name="gcommaaccent" horiz-adv-x="1333" unicode=""/><glyph d="M375 1446v-6q2 -45 -2 -117q-2 -14 -2 -53q0 -41 -2 -62v-20q0 -2 2 -60q4 -106 4 -344v-385q0 -6 2 -16v-12q6 -37 2 -58q0 -31 -2 -39v-18q4 -18 4 -55l2 -19q2 -12 2 -37v-28q2 -33 1 -55.5t-10 -37t-30.5 -20.5t-60.5 -6t-60.5 6t-31 25.5t-11.5 37t-2 60.5l-2 8v60 q-4 51 -4 170v75q2 39 2 119q0 98 -2 148v90q0 14 -1 44.5t-1 47.5v24q0 10 1 30t1 26v96q-2 14 -2 51q0 57 -2 90v54q0 27 2 38q0 6 1 15.5t1 11.5v127q0 55 23.5 71.5t78.5 12.5q68 -6 83.5 -18.5t15.5 -71.5zM254 1722l-176 4q-47 -6 -47 70v10q0 43 13 59.5t54 14.5h35 q35 2 96 2h82l23 -2l28 -2q2 0 19.5 1t30.5 1l47 -6q25 0 34 -1t18 -16.5t7 -50.5q-2 -37 -14 -60.5t-39 -21.5h-68l-32 2h-23z" glyph-name="Imacron" horiz-adv-x="583" unicode=""/><glyph d="M240 1675l-177 4q-47 -6 -47 70v10q0 43 13.5 59.5t54.5 14.5h35q35 2 96 2h82l22 -2l29 -2q2 0 19.5 1t29.5 1l47 -6q25 0 34 -1t18.5 -16.5t7.5 -50.5q-2 -37 -14.5 -60.5t-38.5 -21.5h-68l-33 2h-22zM375 1446v-6q2 -45 -2 -117q-2 -14 -2 -53q0 -41 -2 -62v-20 q0 -2 2 -60q4 -106 4 -344v-385q0 -6 2 -16v-12q6 -37 2 -58q0 -31 -2 -39v-18q4 -18 4 -55l2 -19q2 -12 2 -37v-28q2 -33 1 -55.5t-10 -37t-30.5 -20.5t-60.5 -6t-60.5 6t-31 25.5t-11.5 37t-2 60.5l-2 8v60q-4 51 -4 170v75q2 39 2 119q0 98 -2 148v90q0 14 -1 44.5 t-1 47.5v24q0 10 1 30t1 26v96q-2 14 -2 51q0 57 -2 90v54q0 27 2 38q0 6 1 15.5t1 11.5v127q0 55 23.5 71.5t78.5 12.5q68 -6 83.5 -18.5t15.5 -71.5z" glyph-name="imacron" horiz-adv-x="583" unicode=""/><glyph d="M375 1446v-6q2 -45 -2 -117q-2 -14 -2 -53q0 -41 -2 -62v-20q0 -2 2 -60q4 -106 4 -344v-385q0 -6 2 -16v-12q6 -37 2 -58q0 -31 -2 -39v-18q4 -18 4 -55l2 -19q2 -12 2 -37v-28v-58.5t-11.5 -38t-35.5 -18.5q-31 -14 -49 -29l-8 -6q-31 -27 -25 -59q0 -25 29 -47 q8 -4 14 -6q39 -10 53 -19q39 -20 35 -57q-2 -49 -20.5 -70.5t-57.5 -11.5q-113 25 -168 86q-45 61 -45 129q0 92 84 162v53l-2 8v60q-4 51 -4 170v75q2 39 2 119q0 98 -2 148v90q0 14 -1 44.5t-1 47.5v24q0 10 1 30t1 26v96q-2 14 -2 51q0 57 -2 90v54q0 27 2 38 q0 6 1 15.5t1 11.5v127q0 55 23.5 71.5t78.5 12.5q68 -6 83.5 -18.5t15.5 -71.5z" glyph-name="Iogonek" horiz-adv-x="583" unicode=""/><glyph d="M375 1446v-6q2 -45 -2 -117q-2 -14 -2 -53q0 -41 -2 -62v-20q0 -2 2 -60q4 -106 4 -344v-385q0 -6 2 -16v-12q6 -37 2 -58q0 -31 -2 -39v-18q4 -18 4 -55l2 -19q2 -12 2 -37v-28v-58.5t-11.5 -38t-35.5 -18.5q-31 -14 -49 -29l-8 -6q-31 -27 -25 -59q0 -25 29 -47 q8 -4 14 -6q39 -10 53 -19q39 -20 35 -57q-2 -49 -20.5 -70.5t-57.5 -11.5q-113 25 -168 86q-45 61 -45 129q0 92 84 162v53l-2 8v60q-4 51 -4 170v75q2 39 2 119q0 98 -2 148v90q0 14 -1 44.5t-1 47.5v24q0 10 1 30t1 26v96q-2 14 -2 51q0 57 -2 90v54q0 27 2 38 q0 6 1 15.5t1 11.5v127q0 55 23.5 71.5t78.5 12.5q68 -6 83.5 -18.5t15.5 -71.5z" glyph-name="iogonek" horiz-adv-x="583" unicode=""/><glyph d="M375 1446v-6q2 -45 -2 -117q-2 -14 -2 -53q0 -41 -2 -62v-20q0 -2 2 -60q4 -106 4 -344v-385q0 -6 2 -16v-12q6 -37 2 -58q0 -31 -2 -39v-18q4 -18 4 -55l2 -19q2 -12 2 -37v-28q2 -33 1 -55.5t-10 -37t-30.5 -20.5t-60.5 -6t-60.5 6t-31 25.5t-11.5 37t-2 60.5l-2 8v60 q-4 51 -4 170v75q2 39 2 119q0 98 -2 148v90q0 14 -1 44.5t-1 47.5v24q0 10 1 30t1 26v96q-2 14 -2 51q0 57 -2 90v54q0 27 2 38q0 6 1 15.5t1 11.5v127q0 55 23.5 71.5t78.5 12.5q68 -6 83.5 -18.5t15.5 -71.5zM295 1962q43 0 71.5 -29.5t32.5 -74.5q6 -35 -30.5 -75 t-65.5 -52q-57 -14 -81.5 -2t-55.5 53q-35 57 -4 108.5t96 65.5l10 2q9 4 27 4z" glyph-name="Idotaccent" horiz-adv-x="583" unicode=""/><glyph d="M375 1446v-6q2 -45 -2 -117q-2 -14 -2 -53q0 -41 -2 -62v-20q0 -2 2 -60q4 -106 4 -344v-385q0 -6 2 -16v-12q6 -37 2 -58q0 -31 -2 -39v-18q4 -18 4 -55l2 -19q2 -12 2 -37v-28q2 -33 1 -55.5t-10 -37t-30.5 -20.5t-60.5 -6t-60.5 6t-31 25.5t-11.5 37t-2 60.5l-2 8v60 q-4 51 -4 170v75q2 39 2 119q0 98 -2 148v90q0 14 -1 44.5t-1 47.5v24q0 10 1 30t1 26v96q-2 14 -2 51q0 57 -2 90v54q0 27 2 38q0 6 1 15.5t1 11.5v127q0 55 23.5 71.5t78.5 12.5q68 -6 83.5 -18.5t15.5 -71.5z" glyph-name="dotlessi" horiz-adv-x="583" unicode=""/><glyph d="M393 948l101 105l24 30l53 56l72 69q4 6 14.5 18.5t14.5 18.5l6 10l31 37q37 33 59 62q6 8 31 28q39 35 49 52l74 65q20 18 33.5 26.5t17.5 8.5t28 2q43 4 72 0q90 -4 37 -76l-33 -39l-35 -43l-43 -51l-55 -63l-57 -60l-99 -110l-116 -121q-39 -45 -84 -90l-64 -64 l-30 -35l-7 -6l5 -2l79 -84l295 -311l80 -88l53 -60l25 -26l45 -49q68 -72 84 -99q39 -59 -23 -59h-102q-47 0 -67.5 9t-51.5 42l-24 23l-27 24l-37 35l-22 25q-31 25 -56 55l-47 51l-53 58l-20 26l-101 92l-18 23l-27 31l-10 10l-27 24q-12 12 -32 41q-10 10 -13 15 q0 -268 -6 -516q-2 -47 -21.5 -58.5t-80.5 -11.5q-53 0 -76 17.5t-23 74.5v295q2 10 2 51v80l3 45v53v70v47v64.5t1 41t1 17.5v8l-7 178q0 29 2 37v185q0 10 1.5 45.5t1.5 48.5v16l-5 70q0 63 16.5 78.5t84.5 15.5q41 0 56 -3t26.5 -17.5t15.5 -47t4 -125.5l4 -112 q-6 -119 -2 -158v-63v-62zM489 -166l70 131q20 53 119 12q27 -12 43 -38.5t8 -49.5l-8 -18q-16 -31 -16 -37l-19 -37q-2 -6 -8 -18t-8 -19q-23 -23 -41 -86l-62 -133l-8 -16q-14 -31 -20 -37q-2 -2 -21 -27q-35 -39 -98.5 2t-52.5 97q2 25 20 49q4 10 19 39q47 100 51 112z " glyph-name="Kcommaaccent" horiz-adv-x="1234" unicode=""/><glyph d="M487 -145l70 131q20 53 119 12q27 -12 43 -39t8 -49l-8 -19q-16 -31 -17 -36l-18 -37q-2 -6 -8 -18.5t-8 -18.5q-23 -23 -41 -86l-62 -133l-8 -17q-16 -31 -20 -37q-2 -2 -21 -26q-35 -39 -98.5 2t-52.5 96q2 25 20 49q4 10 18 39q47 100 52 113zM393 948l101 105l24 30 l53 56l72 69q4 6 14.5 18.5t14.5 18.5l6 10l31 37q37 33 59 62q6 8 31 28q39 35 49 52l74 65q20 18 33.5 26.5t17.5 8.5t28 2q43 4 72 0q90 -4 37 -76l-33 -39l-35 -43l-43 -51l-55 -63l-57 -60l-99 -110l-116 -121q-39 -45 -84 -90l-64 -64l-30 -35l-7 -6l5 -2l79 -84 l295 -311l80 -88l53 -60l25 -26l45 -49q68 -72 84 -99q39 -59 -23 -59h-102q-47 0 -67.5 9t-51.5 42l-24 23l-27 24l-37 35l-22 25q-31 25 -56 55l-47 51l-53 58l-20 26l-101 92l-18 23l-27 31l-10 10l-27 24q-12 12 -32 41q-10 10 -13 15q0 -268 -6 -516 q-2 -47 -21.5 -58.5t-80.5 -11.5q-53 0 -76 17.5t-23 74.5v295q2 10 2 51v80l3 45v53v70v47v64.5t1 41t1 17.5v8l-7 178q0 29 2 37v185q0 10 1.5 45.5t1.5 48.5v16l-5 70q0 63 16.5 78.5t84.5 15.5q41 0 56 -3t26.5 -17.5t15.5 -47t4 -125.5l4 -112q-6 -119 -2 -158v-63v-62 z" glyph-name="kcommaaccent" horiz-adv-x="1234" unicode=""/><glyph d="M397 1417l-2 -231v-49q-6 -43 -6 -60v-471l2 -102q-2 -29 -2 -80q0 -41 2 -62l-2 -81v-37v-2v-3t1 -8.5t1 -14.5v-21q23 2 90 2h41q45 0 76 -2h12q57 -4 62 -5l219 7q51 0 74.5 -13.5t23.5 -60.5l-2 -57q0 -41 -12 -52.5t-43 -11.5h-90q-20 -2 -62 -2q-49 0 -73 2h-56 q-33 6 -94 -2q-23 -2 -72 -2l-79 2h-19q-16 -2 -100 -2q-61 -2 -81 21.5t-24 82.5q-2 51 -2 211l6 168q2 57 -2 187v84q0 4 -1 15t-1 17q-4 49 -4 68q0 47 2 70q-2 20 -2 65q0 29 2 45q0 23 2 27q0 4 2 10v4l2 313l2 68q0 37 11.5 52.5t48.5 23.5q25 4 63 4q55 0 70.5 -24.5 t15.5 -92.5zM455 1917l32 18l45 21q57 23 84 -19q20 -27 27 -45q14 -47 -25 -73l-104 -62q-6 -4 -20 -10l-50 -27l-24 -12l-21 -8l-6 -4l-24 -15l-21 -8h-2q-6 -4 -18 -8q-6 -4 -39 -20l-27 -9q-74 -31 -98 37q-25 74 20 101l62 36q18 4 82 41l37 17l20 12l6 4q16 12 35 21z " glyph-name="Lacute" horiz-adv-x="1103" unicode=""/><glyph d="M457 1917l32 18l46 21q57 23 83 -19q20 -27 27 -45q14 -47 -24 -73l-105 -62q-4 -4 -20 -10l-50 -27l-24 -12l-21 -8l-6 -4l-24 -15l-21 -8h-2q-6 -4 -18 -8q-6 -4 -39 -20l-27 -9q-74 -31 -98 37q-25 74 20 101l62 36q18 4 82 41l37 17l20 12l6 4q16 12 35 21zM397 1417 l-2 -231v-49q-6 -43 -6 -60v-471l2 -102q-2 -29 -2 -80q0 -41 2 -62l-2 -81v-37v-2v-3t1 -8.5t1 -14.5v-21q23 2 90 2h41q45 0 76 -2h12q57 -4 62 -5l219 7q51 0 74.5 -13.5t23.5 -60.5l-2 -57q0 -41 -12 -52.5t-43 -11.5h-90q-20 -2 -62 -2q-49 0 -73 2h-56q-33 6 -94 -2 q-23 -2 -72 -2l-79 2h-19q-16 -2 -100 -2q-61 -2 -81 21.5t-24 82.5q-2 51 -2 211l6 168q2 57 -2 187v84q0 4 -1 15t-1 17q-4 49 -4 68q0 47 2 70q-2 20 -2 65q0 29 2 45q0 23 2 27q0 4 2 10v4l2 313l2 68q0 37 11.5 52.5t48.5 23.5q25 4 63 4q55 0 70.5 -24.5t15.5 -92.5z " glyph-name="lacute" horiz-adv-x="1103" unicode=""/><glyph d="M397 1417l-2 -231v-49q-6 -43 -6 -60v-471l2 -102q-2 -29 -2 -80q0 -41 2 -62l-2 -81v-37v-2v-3t1 -8.5t1 -14.5v-21q23 2 90 2h41q45 0 76 -2h12q57 -4 62 -5l219 7q51 0 74.5 -13.5t23.5 -60.5l-2 -57q0 -41 -12 -52.5t-43 -11.5h-90q-20 -2 -62 -2q-49 0 -73 2h-56 q-33 6 -94 -2q-23 -2 -72 -2l-79 2h-19q-16 -2 -100 -2q-61 -2 -81 21.5t-24 82.5q-2 51 -2 211l6 168q2 57 -2 187v84q0 4 -1 15t-1 17q-4 49 -4 68q0 47 2 70q-2 20 -2 65q0 29 2 45q0 23 2 27q0 4 2 10v4l2 313l2 68q0 37 11.5 52.5t48.5 23.5q25 4 63 4q55 0 70.5 -24.5 t15.5 -92.5zM461 -254l69 131q20 53 119 12q27 -12 43.5 -38.5t7.5 -49.5l-8 -18q-16 -31 -16 -37l-19 -37q-2 -6 -8 -18.5t-8 -18.5q-23 -23 -41 -86l-61 -133l-9 -16q-16 -31 -20 -37q-2 -2 -21 -27q-35 -39 -98 2t-53 97q2 25 20 49q4 10 19 39q47 100 51 112z" glyph-name="Lcommaaccent" horiz-adv-x="1103" unicode=""/><glyph d="M463 -250l69 131q20 53 119 13q27 -12 43.5 -39t7.5 -50l-8 -18q-16 -31 -16 -37l-19 -37q-2 -6 -8 -18t-8 -19q-23 -23 -41 -86l-61 -133l-9 -16q-14 -31 -20 -37q-2 -2 -20 -27q-35 -39 -98.5 2t-53.5 97q2 25 20 49q4 10 19 39q47 100 51 112zM397 1417l-2 -231v-49 q-6 -43 -6 -60v-471l2 -102q-2 -29 -2 -80q0 -41 2 -62l-2 -81v-37v-2v-3t1 -8.5t1 -14.5v-21q23 2 90 2h41q45 0 76 -2h12q57 -4 62 -5l219 7q51 0 74.5 -13.5t23.5 -60.5l-2 -57q0 -41 -12 -52.5t-43 -11.5h-90q-20 -2 -62 -2q-49 0 -73 2h-56q-33 6 -94 -2q-23 -2 -72 -2 l-79 2h-19q-16 -2 -100 -2q-61 -2 -81 21.5t-24 82.5q-2 51 -2 211l6 168q2 57 -2 187v84q0 4 -1 15t-1 17q-4 49 -4 68q0 47 2 70q-2 20 -2 65q0 29 2 45q0 23 2 27q0 4 2 10v4l2 313l2 68q0 37 11.5 52.5t48.5 23.5q25 4 63 4q55 0 70.5 -24.5t15.5 -92.5z" glyph-name="lcommaaccent" horiz-adv-x="1103" unicode=""/><glyph d="M397 1417l-2 -231v-49q-6 -43 -6 -60v-471l2 -102q-2 -29 -2 -80q0 -41 2 -62l-2 -81v-37v-2v-3t1 -8.5t1 -14.5v-21q23 2 90 2h41q45 0 76 -2h12q57 -4 62 -5l219 7q51 0 74.5 -13.5t23.5 -60.5l-2 -57q0 -41 -12 -52.5t-43 -11.5h-90q-20 -2 -62 -2q-49 0 -73 2h-56 q-33 6 -94 -2q-23 -2 -72 -2l-79 2h-19q-16 -2 -100 -2q-61 -2 -81 21.5t-24 82.5q-2 51 -2 211l6 168q2 57 -2 187v84q0 4 -1 15t-1 17q-4 49 -4 68q0 47 2 70q-2 20 -2 65q0 29 2 45q0 23 2 27q0 4 2 10v4l2 313l2 68q0 37 11.5 52.5t48.5 23.5q25 4 63 4q55 0 70.5 -24.5 t15.5 -92.5zM700 1384l70 132q20 53 119 12q29 -14 48 -40t11 -48l-8 -19q-16 -31 -16 -37l-19 -36q-2 -6 -8 -18.5t-8 -18.5q-23 -23 -41 -86l-62 -133l-8 -17q-16 -31 -20 -37q-2 -2 -21 -26q-35 -39 -102.5 2t-56.5 96q2 25 20 49q4 10 18 39q47 100 52 113z" glyph-name="Lcaron" horiz-adv-x="1103" unicode=""/><glyph d="M397 1417l-2 -231v-49q-6 -43 -6 -60v-471l2 -102q-2 -29 -2 -80q0 -41 2 -62l-2 -81v-37v-2v-3t1 -8.5t1 -14.5v-21q23 2 90 2h41q45 0 76 -2h12q57 -4 62 -5l219 7q51 0 74.5 -13.5t23.5 -60.5l-2 -57q0 -41 -12 -52.5t-43 -11.5h-90q-20 -2 -62 -2q-49 0 -73 2h-56 q-33 6 -94 -2q-23 -2 -72 -2l-79 2h-19q-16 -2 -100 -2q-61 -2 -81 21.5t-24 82.5q-2 51 -2 211l6 168q2 57 -2 187v84q0 4 -1 15t-1 17q-4 49 -4 68q0 47 2 70q-2 20 -2 65q0 29 2 45q0 23 2 27q0 4 2 10v4l2 313l2 68q0 37 11.5 52.5t48.5 23.5q25 4 63 4q55 0 70.5 -24.5 t15.5 -92.5zM758 1384l69 132q20 53 119 12q29 -14 48.5 -40t11.5 -48l-9 -19q-16 -31 -16 -37l-18 -36q-2 -6 -8.5 -18.5t-8.5 -18.5q-23 -23 -41 -86l-61 -133l-8 -17q-14 -31 -21 -37q-2 -2 -20 -26q-35 -39 -102.5 2t-57.5 96q2 25 20 49q4 10 19 39q47 100 51 113z" glyph-name="lcaron" horiz-adv-x="1103" unicode=""/><glyph d="M395 1417l-2 -231v-49q-6 -43 -6 -60v-198l6 4q66 41 80 45q74 45 98 57q33 18 56 19q39 0 57 -39q25 -61 25 -91q0 -8 -2 -14t-3.5 -10t-6.5 -9t-7 -7.5t-10 -8.5t-10 -8l-33 -16l-27 -17l2 2q-14 -14 -26 -18l-49 -31l-58 -35l-90 -63v-135q-2 -29 -2 -80q0 -41 2 -62 l-2 -81v-37q0 -2 1 -8.5t1 -8.5v-32q25 2 92 2h41q45 0 76 -2h10q57 -4 64 -5l211 7q41 0 58 -2t33.5 -19.5t14.5 -52.5l-2 -57q-4 -37 -22.5 -50.5t-75.5 -13.5h-47q-20 -2 -62 -2q-49 0 -73 2h-58q-33 6 -92 -2q-23 -2 -72 -2l-82 2h-18l-106 -4q-41 -2 -62.5 10t-26 25.5 t-6.5 40.5q-4 82 -4 241l6 168v68l-32 -17q-66 -35 -70 -36q-27 -10 -49.5 10t-34.5 55q-20 41 -17 63.5t40 39.5l77 51l25 14l37 16q10 10 20 15v31q-4 45 -4 61q0 47 2 70q-2 20 -2 65q0 29 2 45q0 23 2 27q0 4 2 10v4l2 313l2 68q0 37 11.5 52.5t48.5 23.5q25 4 63 4 q53 0 68.5 -24.5t15.5 -92.5z" glyph-name="Lslash" horiz-adv-x="1101" unicode=""/><glyph d="M395 1417l-2 -231v-49q-6 -43 -6 -60v-198l6 4q66 41 80 45q74 45 98 57q33 18 56 19q39 0 57 -39q25 -61 25 -91q0 -8 -2 -14t-3.5 -10t-6.5 -9t-7 -7.5t-10 -8.5t-10 -8l-33 -16l-27 -17l2 2q-14 -14 -26 -18l-49 -31l-58 -35l-90 -63v-135q-2 -29 -2 -80q0 -41 2 -62 l-2 -81v-37q0 -2 1 -8.5t1 -8.5v-32q25 2 92 2h41q45 0 76 -2h10q57 -4 64 -5l211 7q41 0 58 -2t33.5 -19.5t14.5 -52.5l-2 -57q-4 -37 -22.5 -50.5t-75.5 -13.5h-47q-20 -2 -62 -2q-49 0 -73 2h-58q-33 6 -92 -2q-23 -2 -72 -2l-82 2h-18l-106 -4q-41 -2 -62.5 10t-26 25.5 t-6.5 40.5q-4 82 -4 241l6 168v68l-32 -17q-66 -35 -70 -36q-27 -10 -49.5 10t-34.5 55q-20 41 -17 63.5t40 39.5l77 51l25 14l37 16q10 10 20 15v31q-4 45 -4 61q0 47 2 70q-2 20 -2 65q0 29 2 45q0 23 2 27q0 4 2 10v4l2 313l2 68q0 37 11.5 52.5t48.5 23.5q25 4 63 4 q53 0 68.5 -24.5t15.5 -92.5z" glyph-name="lslash" horiz-adv-x="1101" unicode=""/><glyph d="M442 1368l25 -43q4 -6 19.5 -26.5t21.5 -32.5l57 -92l49 -87l35 -59l8 -12l27 -45l8 -17q39 -72 88 -143l62 -109l26 -36l74 -142l53 -114q-2 66 -10 176l2 131v153q-2 55 -2 164q0 49 -2 78q-4 104 -2 166l6 147q6 68 23.5 86.5t72.5 22.5q74 0 90.5 -18.5t16.5 -65.5 v-8l2 -82q0 -72 -2 -96l-4 -308l2 -51v2q2 -10 2 -55v-262q-2 -23 2 -41v-361q2 -16 2 -53v-55q0 -80 -82 -80q-59 0 -102 61l-64 93l-18 26l-74 109l-98 147l-17 31q-8 16 -47 80l-12 20l-43 78l-21 37l-57 78l-41 80l-16 26l-94 183l-39 81l8 -116q0 -14 4 -52t4 -49 l2 -69l2 -15l-4 -127q0 -20 2 -32v-13l2 -20q2 -29 2 -86v-27l-2 -143q-4 -41 -2 -55l6 -35l4 -53v-48q0 -16 2 -36l2 -11l-2 -59q2 -53 -13 -66.5t-60 -17.5q-2 0 -7.5 -1t-7.5 -1h-28q-43 8 -59.5 24.5t-20.5 53.5q-4 41 -4 96q-2 14 -2 70q-4 53 -4 77l-3 127l-2 158v27 l-4 110q-4 31 0 58v131l-2 53v23q2 29 -2 81q0 8 -1 22.5t-1 18.5v62l2 94l-2 178q0 72 70 72q51 0 79.5 -16.5t53.5 -57.5zM846 1851l33 19l45 20q57 23 84 -18q20 -27 26 -45q14 -47 -24 -74l-105 -61q-4 -4 -20 -11l-49 -26l-25 -13l-20 -8l-7 -4l-24 -14l-21 -8h-2 q-6 -4 -18 -9q-6 -4 -39 -20l-27 -8q-74 -31 -98 37q-25 74 20 100l62 37q18 4 82 41l37 16l20 13l6 4q16 12 35 20z" glyph-name="Nacute" horiz-adv-x="1462" unicode=""/><glyph d="M827 1888l33 19l45 20q57 23 84 -18q20 -27 27 -45q14 -47 -25 -74l-104 -61q-4 -4 -21 -11l-49 -26l-24 -13l-21 -8l-6 -4l-25 -14l-20 -8h-2q-6 -4 -19 -9q-6 -4 -38 -20l-27 -8q-74 -31 -98 37q-25 74 20 100l61 37q18 4 82 41l37 16l21 12l6 4q16 12 35 21zM442 1368 l25 -43q4 -6 19.5 -26.5t21.5 -32.5l57 -92l49 -87l35 -59l8 -12l27 -45l8 -17q39 -72 88 -143l62 -109l26 -36l74 -142l53 -114q-2 66 -10 176l2 131v153q-2 55 -2 164q0 49 -2 78q-4 104 -2 166l6 147q6 68 23.5 86.5t72.5 22.5q74 0 90.5 -18.5t16.5 -65.5v-8l2 -82 q0 -72 -2 -96l-4 -308l2 -51v2q2 -10 2 -55v-262q-2 -23 2 -41v-361q2 -16 2 -53v-55q0 -80 -82 -80q-59 0 -102 61l-64 93l-18 26l-74 109l-98 147l-17 31q-8 16 -47 80l-12 20l-43 78l-21 37l-57 78l-41 80l-16 26l-94 183l-39 81l8 -116q0 -14 4 -52t4 -49l2 -69l2 -15 l-4 -127q0 -20 2 -32v-13l2 -20q2 -29 2 -86v-27l-2 -143q-4 -41 -2 -55l6 -35l4 -53v-48q0 -16 2 -36l2 -11l-2 -59q2 -53 -13 -66.5t-60 -17.5q-2 0 -7.5 -1t-7.5 -1h-28q-43 8 -59.5 24.5t-20.5 53.5q-4 41 -4 96q-2 14 -2 70q-4 53 -4 77l-3 127l-2 158v27l-4 110 q-4 31 0 58v131l-2 53v23q2 29 -2 81q0 8 -1 22.5t-1 18.5v62l2 94l-2 178q0 72 70 72q51 0 79.5 -16.5t53.5 -57.5z" glyph-name="nacute" horiz-adv-x="1462" unicode=""/></font>
</defs>
</svg>
