<?xml version="1.0" encoding="utf-8"?>
<!-- Generator: Adobe Illustrator 26.2.1, SVG Export Plug-In . SVG Version: 6.00 Build 0)  -->
<svg version="1.1" id="a" xmlns="http://www.w3.org/2000/svg" xmlns:xlink="http://www.w3.org/1999/xlink" x="0px" y="0px"
	 viewBox="0 0 512 512" style="enable-background:new 0 0 512 512;" xml:space="preserve">
<style type="text/css">
	.st0{fill:#FF855F;}
	.st1{fill:#FFFFFF;}
	.st2{fill:#25364F;}
</style>
<g>
	<circle class="st0" cx="256" cy="220.5" r="220.5"/>
	<path class="st1" d="M194.8,150.1c27.6,0,51.3,16.9,61.2,41c9.9-24,33.5-41,61.2-41c36.5,0,66.2,29.6,66.2,66.2
		s-29.6,66.2-66.2,66.2H194.8c-36.5,0-66.2-29.6-66.2-66.2S158.3,150.1,194.8,150.1L194.8,150.1L194.8,150.1z"/>
	<circle class="st2" cx="256" cy="282.4" r="8.5"/>
	<path class="st2" d="M209.1,234.7c-1.8,0-3.2-1.4-3.2-3.2c0-7.1-5.7-12.8-12.8-12.8s-12.8,5.7-12.8,12.8c0,1.8-1.4,3.2-3.2,3.2
		s-3.2-1.4-3.2-3.2c0-10.6,8.6-19.2,19.2-19.2s19.2,8.6,19.2,19.2C212.3,233.3,210.9,234.7,209.1,234.7L209.1,234.7z"/>
	<path class="st2" d="M335.1,234.7c-1.8,0-3.2-1.4-3.2-3.2c0-7.1-5.8-12.8-12.8-12.8s-12.8,5.7-12.8,12.8c0,1.8-1.4,3.2-3.2,3.2
		s-3.2-1.4-3.2-3.2c0-10.6,8.6-19.2,19.2-19.2s19.2,8.6,19.2,19.2C338.3,233.3,336.9,234.7,335.1,234.7L335.1,234.7z"/>
	<g id="b" transform="translate(-104)">
		<path id="c" class="st2" d="M209.7,437.9l-1.3,0.9l-1.1,0.6l-1.1,0.6l-1.4,0.8l-2.4,1.3l-1.5,1.1c-0.5,0.2-1.6,0.8-1.6,0.8
			l-1.8,1.2c-0.2,0.1-0.3,0.2-0.5,0.3c-0.4,0.3-0.9,0.6-1.4,0.9l-1,0.5l-0.4,0.2l-4,2.5l-0.7,0.5l-0.5,0.4l-0.4,0.2l-1.6,1l-2,1.4
			l-3.5,2.2c0,0-1.2,0.6-1.2,0.7c-1,0.5-1.2,0.4-1.7,0c-0.6-0.4-0.8-1.2-0.6-1.8l0.3-1.9l0.1-0.4c0.2-0.5,0.2-1,0.4-1.5l0.6-1.9
			l0.2-0.7c0.1-0.3,0.3-0.9,0.4-1.1c0.1-0.3,0.2-0.6,0.2-0.9c0.2-0.8,0.5-1.9,0.7-2.8l0.2-0.9c0.5-1.9,1.2-4.8,1.7-6.2l0.2-0.4
			l0.6-1.7l0.1-0.5c0.1-0.5,0.3-1.2,0.5-1.7l0.4-1.4l0.2-0.5l-0.5,0.4c-0.6,0.3-1.1,0.7-1.6,1.1l-1.9,1.2l-0.6,0.4l-1.7,1
			c-0.4,0.2-0.7,0.4-1,0.6l-4,2.7c-1,0.7-1.6,1-3,1.8l-1.9,1.3c-0.3,0.2-0.7,0.5-1,0.6c-0.3,0.2-0.6,0.3-0.9,0.6l-1.7,1L164,443
			c-1.3,0.6-1.5,0.7-2.1,0.4c-0.6-0.4-0.6-0.9-0.5-2c0-0.1,0.5-2.7,0.6-2.8c0.1-0.7,0.4-1.6,0.6-2.2c0.1-0.5,0.2-1.1,0.3-1.5
			l0.3-0.9l0.1-0.6l0.4-1.8l0.5-1.3l0.6-2c0.2-1,0.7-3,1.1-4.1l0.3-0.9l0.5-1.9l0.2-0.6c0.1-0.2,0.1-0.4,0.2-0.5l0.4-1.3l0.3-0.8
			l0.4-1.3l0.5-1.8l0.2-0.5l0.5-1l0.6-2.5c0.1-0.3,0.2-0.5,0.3-0.8l0.4-1.2c0-0.2,0.1-0.5,0.2-0.7l0.2-0.9l0.2-0.5l0.4-1.2l0.1-0.2
			v0c0.4-1.2,0.9-2.1,3.3-0.3l0.4,0.3c0.8,0.5,1.3,0.9,0.9,2.1l-0.4,1.9l-0.2,0.4l-0.2,0.7l-0.2,0.9c-0.2,0.5-0.3,0.7-0.3,0.9
			l-0.2,0.7l-0.4,1.1c-0.3,0.7-0.6,1.4-0.8,2.2l-0.6,2.4l-0.4,1.2l-0.6,2.1l-0.3,1.2l-1.1,3.8c-0.2,0.6-0.5,1.3-0.6,1.6l-0.2,0.5
			l-0.3,1l-0.1,0.3c0,0-0.3,1.2-0.6,1.9l-0.6,1.8l-0.3,0.9l2.8-2.2l1.8-1.2l0.3-0.2c0.1-0.1,0.7-0.4,0.7-0.4s0.3-0.2,0.3-0.2
			l0.5-0.3l2.1-1.4c0.2-0.1,0.7-0.4,0.9-0.5l0.3-0.2l0.5-0.2l0.6-0.4c0.2-0.1,0.4-0.2,0.6-0.4l0.6-0.5l1.3-0.8l0.9-0.7l1-0.7
			l2.7-1.6c0.3-0.1,0.5-0.3,0.7-0.5l0.4-1.1l0.2-0.6l0.2-0.6l0.4-1.3l0.4-1c0.5-1.8,1.4-1.7,3.1-0.3c1.1,0.9,1.7,1.5,1.3,2.6
			l-0.4,2.2l-0.6,2c-0.1,0.3-0.2,1-0.3,1.3s-0.2,0.6-0.3,0.9c-0.1,0.2-0.1,0.3-0.2,0.5l-0.1,0.5c-0.2,0.6-0.4,1.2-0.6,1.8l-0.2,0.4
			l-0.1,0.5l-2,7.5l-0.3,0.9l-0.2,0.5l-0.1,0.3l-0.1,0.3c-0.3,0.6-0.5,1.3-0.6,2l-0.1,0.6l-0.2,0.7c0,0.1-0.1,0.2-0.1,0.3l-0.1,0.4
			l-1.1,3l0.4-0.2l1.8-1.3l2.9-2l3.2-2.1c0.2-0.1,0.8-0.4,0.9-0.5l0.4-0.2c0.2-0.1,0.8-0.4,0.9-0.6l1-0.5l0.8-0.6l2-1.2l0.7-0.4
			l0.5-0.3l1.1-0.6l2.3-1.4l2.9-1.7l2-1c1.1-0.6,2.4-0.3,3.2,0.6c1.9,1.5,1.6,2.1,0.9,2.6c-0.3,0.2-1.4,0.9-1.9,1.2L209.7,437.9
			L209.7,437.9z"/>
		<path id="d" class="st2" d="M260.5,463.2l-1,1.1l-1,0.8l-0.9,0.8l-1.2,1.1l-2.1,1.8l-1.3,1.4l-1.4,1.2l-1.5,1.6
			c-0.1,0.1-0.3,0.3-0.4,0.4c-0.4,0.4-0.8,0.8-1.2,1.1l-0.8,0.7l-0.3,0.3l-3.4,3.2l-0.6,0.7l-0.4,0.4l-0.4,0.3l-1.4,1.3l-1.6,1.7
			l-2.9,2.9c0,0-1,0.9-1,0.9c-0.9,0.7-1.1,0.6-1.6,0.4s-0.9-0.6-0.9-1.7l-0.1-1.9v-0.4c0.1-0.5,0-1,0.1-1.5l0.2-1.9l0.1-0.8
			c0-0.3,0.1-0.9,0.1-1.2c0-0.3,0.1-0.6,0-0.9c0-0.8,0-2,0.1-2.9v-1c0-2,0.2-4.9,0.4-6.4l0.1-0.4l0.2-1.8l0-0.5c0-0.5,0-1.3,0.1-1.7
			l0.1-1.4l0.1-0.5L234,461c-0.5,0.4-0.9,0.9-1.3,1.5l-1.6,1.5l-0.5,0.5l-1.5,1.4c-0.3,0.2-0.6,0.5-0.8,0.8l-3.4,3.5
			c-0.8,0.8-1.7,1.6-2.5,2.4l-1.6,1.7c-0.2,0.3-0.5,0.6-0.8,0.8c-0.3,0.2-0.5,0.5-0.7,0.7l-1.5,1.3l-0.8,0.6c-1.1,0.8-1.3,1-2,0.8
			c-0.7-0.2-0.8-0.7-0.9-1.8c0-0.2-0.1-2.8-0.1-2.9c0-0.7,0.1-1.6,0.1-2.3v-1.6l0.1-0.9v-0.6l0.1-1.8l0.2-1.4l0.1-2.1
			c0-1,0.1-3,0.2-4.2l0.1-0.9l0.1-2v-0.6c0-0.2,0-0.4,0-0.5l0.1-1.3l0.1-0.8l0.1-1.3l0.1-1.9l0.1-0.5l0.2-1.1l0.1-2.7
			c0-0.3,0.1-0.6,0.1-0.8l0.2-1.3c0-0.2,0-0.5,0.1-0.7l0-0.9l0-0.5l0.1-1.2l0.1-0.2v0c0.1-1.2,0.5-2.2,3.2-1l0.5,0.2
			c0.8,0.3,1.4,0.6,1.3,1.8v2l-0.1,0.4l-0.1,0.8l0,0.9c-0.1,0.3-0.1,0.6-0.1,0.9l-0.1,0.7l-0.1,1.1c-0.2,0.7-0.3,1.5-0.3,2.3
			l-0.1,2.4l-0.2,1.3l-0.2,2.2v1.2l-0.2,4c0,0.6-0.2,1.4-0.2,1.7l-0.1,0.5l-0.1,1v0.3c0,0-0.1,1.3-0.1,2l-0.2,1.9l-0.1,0.9l2.2-2.7
			l1.6-1.6l0.3-0.2c0.1-0.1,0.6-0.6,0.6-0.6c0-0.1,0.2-0.2,0.2-0.3l0.4-0.4l1.8-1.8c0.2-0.2,0.6-0.5,0.8-0.7l0.3-0.2l0.4-0.4
			l0.5-0.6c0.2-0.1,0.4-0.3,0.5-0.5l0.5-0.6l1.1-1l0.8-0.9l0.9-0.9l2.3-2.1c0.2-0.2,0.4-0.4,0.6-0.6l0.1-1.1l0.1-0.6l0.1-0.6
			l0.1-1.4l0.1-1c0.1-1.9,1-1.9,2.9-0.9c1.3,0.7,1.9,1.1,1.8,2.3l0.1,2.2l-0.2,2.1v1.3c0,0.4-0.1,0.7-0.1,0.9
			c-0.1,0.2-0.1,0.3-0.1,0.5l-0.1,0.5c-0.1,0.6-0.2,1.2-0.2,1.9l-0.1,0.5v0.5l-0.4,7.8l-0.1,1l-0.1,0.5l0,0.3l-0.1,0.4
			c-0.2,0.7-0.2,1.4-0.2,2.1l0,0.6l-0.1,0.8c0,0.1,0,0.2,0,0.3l0,0.4l-0.5,3.1l0.3-0.3l1.4-1.7l2.4-2.5l2.7-2.7
			c0.2-0.2,0.6-0.5,0.8-0.7l0.3-0.2c0.2-0.2,0.6-0.6,0.8-0.8l0.9-0.7l0.6-0.7l1.7-1.6l0.6-0.5l0.4-0.4l0.9-0.9l2-1.9l2.5-2.2
			l1.8-1.4c0.9-0.8,2.3-0.8,3.3-0.1c2.2,1,2,1.7,1.4,2.4c-0.2,0.3-1.2,1.2-1.6,1.6L260.5,463.2L260.5,463.2z"/>
		<path id="e" class="st2" d="M315.7,477.2l-0.8,1.3l-0.8,1l-0.8,1l-0.9,1.3l-1.6,2.2l-0.9,1.6c-0.4,0.4-1.2,1.4-1.2,1.4l-1.2,1.9
			c-0.1,0.2-0.2,0.3-0.3,0.5c-0.3,0.5-0.6,0.9-0.9,1.3l-0.7,0.9l-0.2,0.4l-2.7,3.9l-0.4,0.8l-0.3,0.5l-0.3,0.4l-1.1,1.6l-1.3,2
			l-2.2,3.5c0,0-0.8,1.1-0.8,1.1c-0.7,0.9-0.9,0.9-1.5,0.7c-0.6-0.1-1-0.4-1.3-1.4l-0.4-1.9l-0.1-0.4c0-0.5-0.2-1-0.3-1.5l-0.2-1.9
			l-0.1-0.8c-0.1-0.3-0.1-0.9-0.1-1.2c0-0.3-0.1-0.6-0.1-0.9c-0.2-0.8-0.4-2-0.5-2.8l-0.2-0.9c-0.4-2-0.8-4.9-1-6.3V486l-0.2-1.8
			l-0.1-0.5c-0.1-0.5-0.2-1.3-0.3-1.7l-0.2-1.4l0-0.5l-0.3,0.5c-0.4,0.5-0.7,1.1-1,1.7l-1.3,1.8l-0.4,0.6l-1.2,1.6
			c-0.3,0.3-0.5,0.6-0.6,1l-2.6,4.1c-0.6,1-1,1.5-2,2.9l-1.2,2c-0.2,0.4-0.4,0.7-0.6,1c-0.2,0.3-0.4,0.6-0.6,0.9l-1.2,1.6l-0.6,0.7
			c-0.9,1-1.1,1.3-1.8,1.2s-1-0.5-1.3-1.6c0-0.1-0.6-2.7-0.6-2.8c-0.1-0.6-0.3-1.6-0.4-2.3c-0.1-0.4-0.3-1.1-0.3-1.5l-0.1-0.9
			l-0.1-0.5l-0.3-1.8l-0.1-1.4l-0.3-2.1c-0.2-1-0.6-3-0.7-4.1l-0.1-0.9l-0.3-1.9l-0.1-0.6c0-0.2-0.1-0.4-0.1-0.5l-0.2-1.3l-0.1-0.9
			l-0.2-1.3l-0.3-1.9v-1.6l-0.5-2.5c0-0.3-0.1-0.6-0.1-0.9l-0.1-1.3c-0.1-0.2-0.1-0.5-0.1-0.7l-0.1-0.9l-0.1-0.5l-0.1-1.2v-0.2
			c-0.1-1.2,0-2.3,2.9-1.6l0.5,0.1c0.9,0.1,1.5,0.3,1.7,1.5l0.4,1.9v0.4l0.1,0.8l0.1,0.9c0,0.3,0,0.6,0.1,0.9l0.1,0.7l0.1,1.1
			c0,0.8,0,1.5,0.2,2.3l0.4,2.4l0.1,1.3l0.3,2.2l0.2,1.2l0.6,3.9c0.1,0.6,0.1,1.4,0.1,1.7l0,0.5l0.1,1l0.1,0.3c0,0,0.2,1.3,0.3,2
			l0.2,1.9l0,1l1.6-3.2l1.2-1.9l0.2-0.3c0.1-0.1,0.5-0.7,0.5-0.7c0-0.1,0.2-0.3,0.2-0.3l0.3-0.4l1.4-2.2c0.1-0.2,0.5-0.6,0.6-0.9
			l0.2-0.3l0.4-0.4l0.4-0.6c0.1-0.2,0.3-0.4,0.4-0.6l0.4-0.7l0.9-1.3l0.6-1l0.6-1l1.8-2.5c0.2-0.2,0.4-0.5,0.5-0.7l-0.1-1.1
			l-0.1-0.6l-0.1-0.6l-0.1-1.4l-0.1-1c-0.2-1.9,0.6-2.1,2.7-1.5c1.4,0.4,2.1,0.7,2.3,1.9l0.5,2.2l0.2,2.1c0,0.3,0.2,1,0.3,1.3
			c0.1,0.3,0,0.7,0.1,0.9c0,0.2,0,0.4,0,0.5l0,0.5c0,0.6,0.1,1.2,0.2,1.9v0.5l0.1,0.5l1.3,7.6l0.1,1v1.2c0,0.7,0.1,1.4,0.2,2.1
			l0.2,0.6l0.1,0.8c0,0.1,0,0.2,0.1,0.3l0.1,0.4l0.2,3.2l0.2-0.4l1.1-1.9l1.8-3l2.1-3.2c0.1-0.2,0.5-0.6,0.6-0.9l0.3-0.3
			c0.1-0.2,0.5-0.7,0.6-0.9l0.7-0.9l0.4-0.8l1.3-1.9l0.5-0.6l0.3-0.5l0.7-1l1.6-2.2l2-2.7l1.4-1.7c0.8-1,2.1-1.3,3.2-0.8
			c2.4,0.5,2.3,1.3,1.9,2c-0.2,0.3-1,1.4-1.2,1.9L315.7,477.2L315.7,477.2z"/>
		<path id="f" class="st2" d="M320.1,506.6c0.1,1.5-2,3-2.8,3.3c-1.2,0.3-2.5-0.4-2.9-1.6c-0.3-2,0.9-3.8,2.7-4.4
			c0.1,0,0.2,0,0.4-0.1c0.1,0,0.3,0,0.4,0C319.2,504.1,320.1,505.3,320.1,506.6"/>
		<path id="g" class="st2" d="M337,482.2l-0.1,1.2c-0.1,0.4-0.2,1.3-0.2,1.5l-0.6,11.6L336,499c-0.1,0.7-0.1,1.3-0.1,2
			c0,0.5,0,1,0,1.5l-0.1,2l0,0.9c0,0.4,0,0.8,0,1.2c0.6,0,1.4,0,2.2,0.1l1,0c0.2,0,1.1,0,1.9,0.1h0.3c0.7,0.1,1.3,0.2,1.5,0.2
			l5.4,0.1c1.5,0.1,2.4,0.3,2.3,1.9l-0.1,1.4c-0.1,1.5-0.6,1.5-1.4,1.5l-2.2-0.1H345c-0.1,0-1.2,0-1.8-0.1l-1.4-0.1
			c-0.8-0.1-1.5-0.1-2.3-0.1c-0.6,0-1.6,0-1.8,0c-1.1,0-2-0.1-2-0.1h-0.5c-0.8,0-1.6,0-2.5-0.1c-2.1,0-2.4-0.9-2.4-2.7
			c0-1.3,0.2-4.2,0.2-5.2l0.4-4.1c0.1-1.3,0.1-3.1,0.2-4.6l0.1-2.1v-0.8c0-0.6,0-1.4,0-1.7c0-0.2,0.1-1.2,0.1-1.7v-1.6
			c0-0.4,0.1-0.7,0.1-1.1c0-0.2,0-0.4,0.1-0.6c0-0.1,0-0.2,0.1-0.4l0.4-7.7l0.1-1.7c0.1-1.1,0.2-1.6,1.6-1.8c0.5,0,1,0,1.6,0
			c1.9,0.1,2.1,1,2,3L337,482.2L337,482.2z"/>
		<path id="h" class="st2" d="M365.3,476.3c0.1,1,0.1,1.9,0,2.9c0,0.4,0,0.9,0,1.3v2c0,0,0,0.5,0.1,1.5c0.2,2.6,0.3,7.2,0.4,8.5
			l0.3,9.5c0,0.1,0,0.3,0.1,0.4v0.3c0.1,0.5,0.1,0.9,0.1,1.4c0,0.3,0,0.6,0,1v0.5c0.1,0.5,0.1,0.9,0.1,1.4l0.1,0.5
			c0,0.3,0.1,0.6,0.1,0.9v0.7c0.1,2.1,0.2,2.9-2.4,3s-2.6-0.8-2.7-3.1l-0.1-0.2l0-1.5c-0.1-1.3-0.2-3.5-0.2-4.2l-0.1-1.9
			c0-1,0-2.7,0-2.9c0-1.2-0.1-2.4-0.2-3.6l-0.1-2.2c0-0.8-0.1-1.5-0.1-2.3v-2l-0.1-2.4c-0.1-0.4-0.1-1.1-0.1-1.3
			c0-0.7,0-1.4-0.1-2.2l0-1.3c0-0.3,0-0.6,0-1v-0.6l-0.1-3.2c-0.1-1.9,0.8-2.2,2.5-2.1c2.1,0.1,2.4,0.1,2.5,2.1L365.3,476.3
			L365.3,476.3z"/>
		<path id="i" class="st2" d="M382.4,481.4l0.1,1.2v1.5l1.3,11.5l0.3,2.5c0,0.7,0.1,1.3,0.2,2c0.1,0.5,0.1,1,0.2,1.5l0.2,2l0.1,0.9
			c0.1,0.4,0.2,0.8,0.2,1.2c0.5-0.1,1.4-0.2,2.2-0.3l1-0.1c0.2,0,1.1-0.1,1.9-0.2l0.3,0c0.7,0,1.3,0,1.5-0.1l5.4-0.8
			c1.5-0.2,2.4-0.1,2.6,1.5l0.1,1.4c0.2,1.5-0.3,1.6-1.2,1.7l-2.2,0.2c-0.5,0.1-1.4,0.2-1.5,0.2s-1.2,0.1-1.8,0.2l-1.4,0.1
			c-0.8,0-1.5,0.1-2.3,0.3c-0.5,0.1-1.5,0.2-1.8,0.2c-1.1,0.1-2,0.2-2,0.2l-0.5,0c-0.8,0.2-1.6,0.3-2.5,0.3
			c-2.1,0.3-2.5-0.5-2.9-2.3c-0.2-1.3-0.5-4.2-0.6-5.2l-0.3-4.1c-0.1-1.3-0.4-3.1-0.6-4.6l-0.2-2c0-0.2-0.1-0.5-0.1-0.8
			c-0.1-0.6-0.2-1.4-0.3-1.6c0-0.2-0.1-1.1-0.1-1.7s-0.2-1.4-0.2-1.6s-0.1-0.7-0.1-1.1c0-0.2,0-0.4,0-0.6c0-0.1,0-0.2,0-0.4
			l-0.8-7.7l-0.1-1.7c-0.1-1.1,0-1.6,1.3-2c0.5-0.1,1-0.2,1.5-0.3c1.9-0.2,2.2,0.6,2.4,2.6L382.4,481.4L382.4,481.4z"/>
		<path id="j" class="st2" d="M409.4,470.9c0.2,0.9,0.4,1.9,0.5,2.8c0,0.4,0.1,0.9,0.2,1.3c0,0.1,0.2,1,0.2,1.5l0.1,0.5
			c0,0,0.1,0.5,0.3,1.4c0.6,2.6,1.5,7.1,1.8,8.3l1.9,9.3c0,0.1,0.1,0.3,0.1,0.4l0.1,0.3c0.1,0.5,0.3,0.9,0.3,1.4
			c0.1,0.3,0.1,0.6,0.1,1l0.1,0.4c0.2,0.4,0.3,0.9,0.4,1.3l0.1,0.4c0.1,0.3,0.2,0.6,0.2,0.9l0.1,0.7c0.5,2.1,0.7,2.8-1.9,3.4
			s-2.7-0.4-3.2-2.6l-0.1-0.2l-0.3-1.4c-0.4-1.2-0.8-3.4-0.9-4.1l-0.4-1.8c-0.1-1-0.5-2.6-0.5-2.9c-0.2-1.1-0.5-2.4-0.8-3.6
			l-0.4-2.2c-0.1-0.8-0.4-1.5-0.5-2.2l-0.1-0.6c-0.1-0.5-0.1-1-0.2-1.4l-0.5-2.3c-0.1-0.4-0.2-0.8-0.3-1.2c-0.1-0.7-0.3-1.4-0.5-2.2
			l-0.2-1.3c-0.1-0.3-0.1-0.6-0.1-1c0-0.2-0.1-0.6-0.1-0.6l-0.6-3.1c-0.4-1.9,0.4-2.3,2.1-2.5C408.6,468.9,408.9,468.8,409.4,470.9
			L409.4,470.9L409.4,470.9z"/>
		<path id="k" class="st2" d="M431.4,498.7c0.6,1.4-0.7,3.5-1.4,4c-1.1,0.7-2.5,0.5-3.3-0.5c-1-1.7-0.6-3.9,0.9-5.1
			c0.1,0,0.2-0.1,0.3-0.2c0.1-0.1,0.2-0.1,0.4-0.1C429.6,496.7,430.9,497.5,431.4,498.7"/>
		<path id="l" class="st2" d="M453.8,462.4c-0.3,0.9-0.5,1.5-2.1,1.3l-1-0.1c-0.2-0.1-0.4-0.1-0.6-0.1l-1.2-0.3l-1.1,0
			c-0.8,0-1.6,0.2-2.3,0.4l-0.9,0.3c-0.3,0.2-0.7,0.3-1,0.5c-1.3,0.9-2.5,2-3.5,3.3c-0.7,1.6-1.2,3.3-1.7,5v-0.1
			c-0.3,2.6-0.1,5.2,0.5,7.8l0.2,0.6c0.1,0.4,0.2,0.8,0.4,1.2c0.6,1.5,1.4,2.9,2.2,4.2c0.8,1,1.7,2,2.6,2.8l0.8,0.4
			c0.6,0.4,1.3,0.8,2,1.1l0.8,0.2c0.4,0.1,0.8,0.2,1.3,0.2l1.1-0.1c0.2,0,0.4,0,0.6-0.1l0.6-0.1c1.3-0.1,2.6-0.4,3.9-1l0.4-0.1
			l1.2-0.8c0.3-0.2,0.7-0.8,0.9-1l0.5-0.5c0.2-0.4,0.5-0.7,0.7-1l0.4-0.4c1-1.1,1.9-0.9,3,0.1c0.8,0.7,1.5,1.5,1,2.1l-1,1.7
			c-0.6,0.9-1.2,1.8-2,2.5l-0.2,0.2h0c-0.9,0.8-2,1.5-3.2,1.9c-0.4,0.1-0.8,0.3-1.1,0.4c-0.6,0.3-1.2,0.5-1.8,0.7
			c-2.6,0.5-5.4,0.6-8,0.4c-2.3-0.8-4.4-1.9-6.3-3.4c-1.8-1.9-3.3-4-4.4-6.3v0c-0.4-0.8-0.8-1.7-1.1-2.5c-0.5-1.3-0.9-2.7-1.1-4.1v0
			c-0.8-3.5-0.8-7.2,0.1-10.8l0.5-1l0.1-0.2l0.1-0.4c0.1-0.2,0.2-0.5,0.2-0.7c0.3-0.7,0.6-1.3,1.1-1.9h0c0.2-0.2,0.4-0.5,0.5-0.7
			l0.7-1.1c0.2-0.2,0.5-0.5,0.5-0.5c1.3-1.3,2.8-2.3,4.5-3c0.1,0,0.2-0.1,0.3-0.1l1.7-0.6c1.5-0.5,3.1-0.7,4.7-0.5l2.8,0.4
			c0.9,0.2,1.8,0.6,2.6,1.1c0.7,0.4,0.4,1.8,0.2,2.5L453.8,462.4L453.8,462.4z"/>
		<path id="m" class="st2" d="M469.7,447.8l1.2-0.6l0.5-0.2c0.1,0,0.2-0.1,0.2-0.1l0.2-0.1c2.7-1.1,5.7-1.2,8.5-0.3
			c2.7,0.8,5,2.6,6.6,4.9c0.1,0.2,0.3,0.4,0.4,0.6l0.2,0.5c0.1,0.1,0.2,0.3,0.2,0.4l0.5,1c0.2,0.3,0.4,0.6,0.6,0.9l0.9,1.7l2.5,5.1
			c0.3,0.5,0.5,1,0.7,1.6c0,0.2,0.1,0.3,0.2,0.5c0.4,0.8,0.8,1.7,1.1,2.5c0,0,0,0.1,0,0.2c0,0.1,0,0.1,0,0.2
			c0.4,1.4,0.5,2.9,0.6,4.3c-0.1,1.9-0.5,3.7-1.3,5.4l-1.9,2.3l-0.8,0.8c-1,0.9-2.1,1.6-3.3,2.3l-0.9,0.4c-1,0.4-2,0.7-3.1,0.9
			c-3,0.1-5.9-0.7-8.5-2.1c-1.8-1.5-3.4-3.3-4.5-5.4c-0.3-0.6-0.9-1.6-1-1.9l-0.8-1.6c-0.5-0.9-1-2.1-1.7-3.2l-1.3-2.5
			c0-0.2-0.1-0.3-0.1-0.5l-0.3-0.6c-0.1-0.1-0.1-0.2-0.1-0.4l-0.3-0.6c0-0.2-0.1-0.4-0.2-0.6c-0.1-0.3-0.2-0.7-0.4-1
			c-0.9-2.6-0.9-5.4,0-8C465.2,451.7,467.1,449.3,469.7,447.8 M484.8,477.4c0.3-0.1,0.5-0.3,0.8-0.4c0.9-0.5,1.6-1.1,2.2-1.9l1-1.3
			c0.1-0.1,0.2-0.3,0.3-0.4l0.2-0.7c0.3-1.3,0.4-2.6,0.2-3.9c0-0.1,0-0.1-0.1-0.4l-0.3-0.9c-0.2-0.4-0.3-0.8-0.4-1.3v-0.2
			c0-0.5-0.2-0.9-0.4-1.3l-1.3-2.5c-0.2-0.3-0.4-0.7-0.6-1.1c-0.7-1.5-2.3-4.4-3.2-5.9c-1-1.8-2.6-3.2-4.6-3.7
			c-1.7-0.6-3.5-0.6-5.2,0.1l-0.9,0.5c-0.2,0.1-0.4,0.2-0.5,0.3l-0.6,0.3c-0.8,0.8-1.5,1.8-1.9,2.9c-1.1,1.8-0.7,4.5,1.3,9
			c0.3,0.9,0.7,1.7,1.1,2.5l1.9,3.9c0.1,0.4,0.3,0.8,0.5,1.1c0.5,0.9,1.1,1.7,1.8,2.5c0.2,0.3,0.3,0.5,0.6,0.8
			c1.2,0.9,2.4,1.6,3.8,2.1C481.9,478.2,483.4,478.1,484.8,477.4"/>
		<path id="n" class="st2" d="M499.6,431l1.1-0.8l0.5-0.3c0.1,0,0.1-0.1,0.2-0.1l0.2-0.1c2.5-1.4,5.5-1.9,8.4-1.4
			c2.8,0.5,5.3,1.9,7.2,4c0.1,0.2,0.3,0.4,0.5,0.6l0.3,0.4c0.1,0.1,0.2,0.2,0.3,0.4l0.6,1c0.2,0.3,0.5,0.5,0.7,0.8l1.1,1.6l3.2,4.8
			c0.3,0.5,0.6,1,0.9,1.5c0.1,0.2,0.1,0.3,0.2,0.5c0.5,0.8,1,1.6,1.4,2.4c0,0,0,0.1,0,0.1c0,0.1,0,0.1,0.1,0.2
			c0.5,1.4,0.9,2.8,1.1,4.2c0.2,1.9,0,3.8-0.6,5.6l-1.6,2.5l-0.6,0.9c-0.9,1-1.9,1.9-3,2.7l-0.8,0.6c-0.9,0.5-1.9,1-3,1.3
			c-3,0.5-6,0.1-8.8-1c-2-1.2-3.8-2.8-5.2-4.7c-0.4-0.5-1.1-1.5-1.3-1.8l-1-1.5c-0.6-0.8-1.3-2-2.1-3l-1.6-2.4
			c-0.1-0.2-0.1-0.3-0.2-0.5l-0.4-0.6c-0.1-0.1-0.1-0.2-0.2-0.4l-0.4-0.5c-0.1-0.2-0.2-0.4-0.3-0.5c-0.1-0.3-0.3-0.6-0.5-0.9
			c-1.2-2.5-1.5-5.2-1-7.9C495.5,435.4,497.1,432.7,499.6,431 M518.3,458.4c0.2-0.2,0.5-0.3,0.8-0.5c0.8-0.6,1.4-1.3,1.9-2.2
			l0.8-1.4c0.1-0.1,0.1-0.3,0.2-0.5l0.1-0.7c0.1-1.3,0-2.6-0.3-4c0-0.1,0-0.1-0.2-0.4l-0.4-0.9c-0.2-0.4-0.4-0.8-0.6-1.2
			c0,0,0-0.1,0-0.1c-0.1-0.5-0.3-0.9-0.6-1.3l-1.6-2.4c-0.3-0.3-0.6-0.9-0.7-1c-0.9-1.4-2.9-4-4-5.4c-1.2-1.7-3-2.8-5.1-3.1
			c-1.7-0.4-3.6-0.1-5.1,0.8l-0.9,0.6c-0.2,0.1-0.3,0.2-0.5,0.4l-0.5,0.4c-0.7,0.9-1.2,2-1.5,3.1c-0.9,1.9-0.1,4.6,2.4,8.8
			c0.4,0.8,0.9,1.6,1.4,2.4l2.4,3.6c0.2,0.4,0.4,0.7,0.6,1c0.7,0.8,1.4,1.5,2.1,2.2c0.2,0.3,0.4,0.5,0.6,0.7c1.3,0.7,2.6,1.2,4,1.6
			C515.4,459.5,517,459.2,518.3,458.4"/>
		<path id="o" class="st2" d="M529.1,420.2l0.8,0.9c0.2,0.3,0.7,1.1,0.8,1.2l7.5,8.9l1.7,1.9c0.4,0.6,0.8,1,1.3,1.5
			c0.3,0.4,0.6,0.8,1,1.1l1.3,1.6l0.6,0.7c0.3,0.3,0.6,0.6,0.8,0.9c0.4-0.4,1-0.9,1.7-1.5l0.8-0.6c0.2-0.2,0.8-0.7,1.5-1.2l0.2-0.2
			c0.6-0.4,1-0.7,1.2-0.9l4-3.6c1.1-1,2-1.5,3-0.2l0.9,1.1c1,1.1,0.6,1.5,0,2.1l-1.7,1.4c-0.3,0.4-1,0.9-1.1,1s-0.9,0.8-1.4,1.1
			l-1,0.9c-0.6,0.5-1.2,1-1.7,1.5c-0.4,0.4-1.2,1-1.3,1.2c-0.8,0.7-1.5,1.3-1.5,1.3l-0.4,0.2c-0.6,0.6-1.2,1.1-1.9,1.6
			c-1.5,1.5-2.4,1-3.6-0.3c-0.8-0.9-2.8-3.2-3.4-3.9l-2.6-3.3c-0.8-1-2-2.4-3-3.5l-1.3-1.6c-0.2-0.2-0.4-0.4-0.6-0.6
			c-0.4-0.4-1-1-1.2-1.2s-0.8-0.9-1.1-1.3c-0.4-0.4-1-1-1.1-1.2c-0.2-0.3-0.5-0.6-0.7-0.9c-0.2-0.2-0.3-0.3-0.4-0.5
			c-0.1-0.1-0.1-0.2-0.2-0.3l-5-5.9l-1-1.3c-0.7-0.9-0.9-1.3-0.1-2.4c0.4-0.4,0.7-0.8,1.1-1.1c1.5-1.3,2.2-0.7,3.5,0.8L529.1,420.2
			L529.1,420.2z"/>
	</g>
</g>
</svg>
